999
dxfrw 0.6.3
  0
SECTION
  2
HEADER
  9
$ACADVER
  1
AC1021
  9
$DWGCODEPAGE
  3
ANSI_1252
  9
$INSBASE
 10
0
 20
0
 30
0
  9
$EXTMIN
 10
0.8514614647386787
 20
0.4399363069500022
 30
0
  9
$EXTMAX
 10
195.7607625352613
 20
51.23993569305001
 30
0
  9
$LIMMIN
 10
0
 20
0
  9
$LIMMAX
 10
420
 20
297
  9
$ORTHOMODE
 70
    0
  9
$REGENMODE
 70
    1
  9
$FILLMODE
 70
    1
  9
$QTEXTMODE
 70
    0
  9
$MIRRTEXT
 70
    0
  9
$LTSCALE
 40
1
  9
$ATTMODE
 70
    0
  9
$TEXTSIZE
 40
2.5
  9
$TRACEWID
 40
15.68
  9
$TEXTSTYLE
  7
STANDARD
  9
$CLAYER
  8
0
  9
$CELTYPE
  6
BYLAYER
  9
$CECOLOR
 62
  256
  9
$CELTSCALE
 40
1
  9
$DISPSILH
 70
    0
  9
$DIMSCALE
 40
1
  9
$DIMASZ
 40
2.5
  9
$DIMEXO
 40
0.625
  9
$DIMDLI
 40
5
  9
$DIMRND
 40
0
  9
$DIMDLE
 40
0
  9
$DIMEXE
 40
1.25
  9
$DIMTP
 40
0
  9
$DIMTM
 40
0
  9
$DIMTXT
 40
2.5
  9
$DIMCEN
 40
2.5
  9
$DIMTSZ
 40
0
  9
$DIMTOL
 70
    0
  9
$DIMLIM
 70
    0
  9
$DIMTIH
 70
    0
  9
$DIMTOH
 70
    0
  9
$DIMSE1
 70
    0
  9
$DIMSE2
 70
    0
  9
$DIMTAD
 70
    1
  9
$DIMZIN
 70
    8
  9
$DIMBLK
  1

  9
$DIMASO
 70
    1
  9
$DIMSHO
 70
    1
  9
$DIMPOST
  1

  9
$DIMAPOST
  1

  9
$DIMALT
 70
    0
  9
$DIMALTD
 70
    3
  9
$DIMALTF
 40
0.03937
  9
$DIMLFAC
 40
1
  9
$DIMTOFL
 70
    1
  9
$DIMTVP
 40
0
  9
$DIMTIX
 70
    0
  9
$DIMSOXD
 70
    0
  9
$DIMSAH
 70
    0
  9
$DIMBLK1
  1

  9
$DIMBLK2
  1

  9
$DIMSTYLE
  2
Standard
  9
$DIMCLRD
 70
    0
  9
$DIMCLRE
 70
    0
  9
$DIMCLRT
 70
    0
  9
$DIMTFAC
 40
1
  9
$DIMGAP
 40
0.625
  9
$DIMJUST
 70
    0
  9
$DIMSD1
 70
    0
  9
$DIMSD2
 70
    0
  9
$DIMTOLJ
 70
    0
  9
$DIMTZIN
 70
    8
  9
$DIMALTZ
 70
    0
  9
$DIMALTTZ
 70
    0
  9
$DIMUPT
 70
    0
  9
$DIMDEC
 70
    2
  9
$DIMTDEC
 70
    2
  9
$DIMALTU
 70
    2
  9
$DIMALTTD
 70
    3
  9
$DIMTXSTY
  7
STANDARD
  9
$DIMAUNIT
 70
    0
  9
$DIMADEC
 70
    0
  9
$DIMALTRND
 40
0
  9
$DIMAZIN
 70
    2
  9
$DIMDSEP
 70
   46
  9
$DIMATFIT
 70
    3
  9
$DIMFRAC
 70
    0
  9
$DIMLDRBLK
  1
STANDARD
  9
$DIMLUNIT
 70
    2
  9
$DIMLWD
 70
   -2
  9
$DIMLWE
 70
   -2
  9
$DIMTMOVE
 70
    0
  9
$DIMFXL
 40
1
  9
$DIMFXLON
 70
    0
  9
$DIMJOGANG
 40
0.7854
  9
$DIMTFILL
 70
    0
  9
$DIMTFILLCLR
 70
    0
  9
$DIMARCSYM
 70
    0
  9
$DIMLTYPE
  6

  9
$DIMLTEX1
  6

  9
$DIMLTEX2
  6

  9
$LUNITS
 70
    2
  9
$LUPREC
 70
    4
  9
$SKETCHINC
 40
1
  9
$FILLETRAD
 40
0
  9
$AUNITS
 70
    0
  9
$AUPREC
 70
    2
  9
$MENU
  1
.
  9
$ELEVATION
 40
0
  9
$PELEVATION
 40
0
  9
$THICKNESS
 40
0
  9
$LIMCHECK
 70
    0
  9
$CHAMFERA
 40
0
  9
$CHAMFERB
 40
0
  9
$CHAMFERC
 40
0
  9
$CHAMFERD
 40
0
  9
$SKPOLY
 70
    0
  9
$USRTIMER
 70
    1
  9
$ANGBASE
 50
0
  9
$ANGDIR
 70
    0
  9
$PDMODE
 70
    0
  9
$PDSIZE
 40
0
  9
$PLINEWID
 40
0
  9
$SPLFRAME
 70
    0
  9
$SPLINETYPE
 70
    2
  9
$SPLINESEGS
 70
    8
  9
$HANDSEED
  5
20000
  9
$SURFTAB1
 70
    6
  9
$SURFTAB2
 70
    6
  9
$SURFTYPE
 70
    6
  9
$SURFU
 70
    6
  9
$SURFV
 70
    6
  9
$UCSBASE
  2

  9
$UCSNAME
  2

  9
$UCSORG
 10
0
 20
0
 30
0
  9
$UCSXDIR
 10
1
 20
0
 30
0
  9
$UCSYDIR
 10
0
 20
1
 30
0
  9
$UCSORTHOREF
  2

  9
$UCSORTHOVIEW
 70
    0
  9
$UCSORGTOP
 10
0
 20
0
 30
0
  9
$UCSORGBOTTOM
 10
0
 20
0
 30
0
  9
$UCSORGLEFT
 10
0
 20
0
 30
0
  9
$UCSORGRIGHT
 10
0
 20
0
 30
0
  9
$UCSORGFRONT
 10
0
 20
0
 30
0
  9
$UCSORGBACK
 10
0
 20
0
 30
0
  9
$PUCSBASE
  2

  9
$PUCSNAME
  2

  9
$PUCSORG
 10
0
 20
0
 30
0
  9
$PUCSXDIR
 10
1
 20
0
 30
0
  9
$PUCSYDIR
 10
0
 20
1
 30
0
  9
$PUCSORTHOREF
  2

  9
$PUCSORTHOVIEW
 70
    0
  9
$PUCSORGTOP
 10
0
 20
0
 30
0
  9
$PUCSORGBOTTOM
 10
0
 20
0
 30
0
  9
$PUCSORGLEFT
 10
0
 20
0
 30
0
  9
$PUCSORGRIGHT
 10
0
 20
0
 30
0
  9
$PUCSORGFRONT
 10
0
 20
0
 30
0
  9
$PUCSORGBACK
 10
0
 20
0
 30
0
  9
$USERI1
 70
    0
  9
$USERI2
 70
    0
  9
$USERI3
 70
    0
  9
$USERI4
 70
    0
  9
$USERI5
 70
    0
  9
$USERR1
 40
0
  9
$USERR2
 40
0
  9
$USERR3
 40
0
  9
$USERR4
 40
0
  9
$USERR5
 40
0
  9
$WORLDVIEW
 70
    1
  9
$SHADEDGE
 70
    3
  9
$SHADEDIF
 70
   70
  9
$TILEMODE
 70
    1
  9
$MAXACTVP
 70
   64
  9
$PINSBASE
 10
0
 20
0
 30
0
  9
$PLIMCHECK
 70
    0
  9
$PEXTMIN
 10
0
 20
0
 30
0
  9
$PEXTMAX
 10
0
 20
0
 30
0
  9
$GRIDMODE
 70
    1
  9
$SNAPSTYLE
 70
    0
  9
$PLIMMIN
 10
0
 20
0
  9
$PLIMMAX
 10
210
 20
297
  9
$UNITMODE
 70
    0
  9
$VISRETAIN
 70
    1
  9
$PLINEGEN
 70
    0
  9
$PSLTSCALE
 70
    1
  9
$TREEDEPTH
 70
 3020
  9
$CMLSTYLE
  2
Standard
  9
$CMLJUST
 70
    0
  9
$CMLSCALE
 40
20
  9
$PROXYGRAPHICS
 70
    1
  9
$MEASUREMENT
 70
    1
  9
$CELWEIGHT
370
   -1
  9
$ENDCAPS
280
    0
  9
$JOINSTYLE
280
    0
  9
$LWDISPLAY
290
    0
  9
$INSUNITS
 70
    4
  9
$HYPERLINKBASE
  1

  9
$STYLESHEET
  1

  9
$XEDIT
290
    1
  9
$CEPSNTYPE
380
    0
  9
$PSTYLEMODE
290
    1
  9
$EXTNAMES
290
    1
  9
$PSVPSCALE
 40
1
  9
$OLESTARTUP
290
    0
  9
$SORTENTS
280
  127
  9
$INDEXCTL
280
    0
  9
$HIDETEXT
280
    1
  9
$XCLIPFRAME
290
    0
  9
$HALOGAP
280
    0
  9
$OBSCOLOR
 70
  257
  9
$OBSLTYPE
280
    0
  9
$INTERSECTIONDISPLAY
280
    0
  9
$INTERSECTIONCOLOR
 70
  257
  9
$DIMASSOC
280
    1
  9
$PROJECTNAME
  1

  9
$CAMERADISPLAY
290
    0
  9
$LENSLENGTH
 40
50
  9
$CAMERAHEIGHT
 40
0
  9
$STEPSPERSEC
 40
2
  9
$STEPSIZE
 40
50
  9
$3DDWFPREC
 40
2
  9
$PSOLWIDTH
 40
5
  9
$PSOLHEIGHT
 40
80
  9
$LOFTANG1
 40
1.570796326794897
  9
$LOFTANG2
 40
1.570796326794897
  9
$LOFTMAG1
 40
0
  9
$LOFTMAG2
 40
0
  9
$LOFTPARAM
 70
    7
  9
$LOFTNORMALS
280
    1
  9
$LATITUDE
 40
1
  9
$LONGITUDE
 40
1
  9
$NORTHDIRECTION
 40
0
  9
$TIMEZONE
 70
-8000
  9
$LIGHTGLYPHDISPLAY
280
    1
  9
$TILEMODELIGHTSYNCH
280
    1
  9
$SOLIDHIST
280
    1
  9
$SHOWHIST
280
    1
  9
$DWFFRAME
280
    2
  9
$DGNFRAME
280
    0
  9
$REALWORLDSCALE
290
    1
  9
$INTERFERECOLOR
 62
    1
  9
$CSHADOW
280
    0
  9
$SHADOWPLANELOCATION
 40
0
  0
ENDSEC
  0
SECTION
  2
CLASSES
  0
ENDSEC
  0
SECTION
  2
TABLES
  0
TABLE
  2
VPORT
  5
8
330
0
100
AcDbSymbolTable
 70
    1
  0
VPORT
  5
31
330
2
100
AcDbSymbolTableRecord
100
AcDbViewportTableRecord
  2
*ACTIVE
 70
    0
 10
0
 20
0
 11
1
 21
1
 12
124.5355779287705
 22
55.63513099838554
 13
0
 23
0
 14
10
 24
10
 15
10
 25
10
 16
0
 26
0
 36
1
 17
0
 27
0
 37
0
 40
167.8953419453058
 41
1.794811320754717
 42
50
 43
0
 44
0
 50
0
 51
0
 71
    0
 72
  100
 73
    1
 74
    3
 75
    0
 76
    1
 77
    0
 78
    0
281
    0
 65
    1
110
0
120
0
130
0
111
1
121
0
131
0
112
0
122
1
132
0
 79
    0
146
0
348
10020
 60
    7
 61
    5
292
1
282
    1
141
0
142
0
 63
  250
421
3358443
  0
ENDTAB
  0
TABLE
  2
LTYPE
  5
5
330
0
100
AcDbSymbolTable
 70
    4
  0
LTYPE
  5
14
330
5
100
AcDbSymbolTableRecord
100
AcDbLinetypeTableRecord
  2
ByBlock
 70
    0
  3

 72
   65
 73
    0
 40
0
  0
LTYPE
  5
15
330
5
100
AcDbSymbolTableRecord
100
AcDbLinetypeTableRecord
  2
ByLayer
 70
    0
  3

 72
   65
 73
    0
 40
0
  0
LTYPE
  5
16
330
5
100
AcDbSymbolTableRecord
100
AcDbLinetypeTableRecord
  2
Continuous
 70
    0
  3
Solid line
 72
   65
 73
    0
 40
0
  0
LTYPE
  5
32
330
5
100
AcDbSymbolTableRecord
100
AcDbLinetypeTableRecord
  2
DOT
 70
    0
  3
Dot . . . . . . . . . . . . . . . . . . . . . .
 72
   65
 73
    2
 40
6.35
 49
0
 74
    0
 49
-6.35
 74
    0
  0
LTYPE
  5
33
330
5
100
AcDbSymbolTableRecord
100
AcDbLinetypeTableRecord
  2
DOTTINY
 70
    0
  3
Dot (.15x) .....................................
 72
   65
 73
    2
 40
0.9525
 49
0
 74
    0
 49
-0.9525
 74
    0
  0
LTYPE
  5
34
330
5
100
AcDbSymbolTableRecord
100
AcDbLinetypeTableRecord
  2
DOT2
 70
    0
  3
Dot (.5x) .....................................
 72
   65
 73
    2
 40
3.175
 49
0
 74
    0
 49
-3.175
 74
    0
  0
LTYPE
  5
35
330
5
100
AcDbSymbolTableRecord
100
AcDbLinetypeTableRecord
  2
DOTX2
 70
    0
  3
Dot (2x) .  .  .  .  .  .  .  .  .  .  .  .  .
 72
   65
 73
    2
 40
12.7
 49
0
 74
    0
 49
-12.7
 74
    0
  0
LTYPE
  5
36
330
5
100
AcDbSymbolTableRecord
100
AcDbLinetypeTableRecord
  2
DASHED
 70
    0
  3
Dashed _ _ _ _ _ _ _ _ _ _ _ _ _ _ _ _ _
 72
   65
 73
    2
 40
19.05
 49
12.7
 74
    0
 49
-6.35
 74
    0
  0
LTYPE
  5
37
330
5
100
AcDbSymbolTableRecord
100
AcDbLinetypeTableRecord
  2
DASHEDTINY
 70
    0
  3
Dashed (.15x) _ _ _ _ _ _ _ _ _ _ _ _ _ _ _ _ _
 72
   65
 73
    2
 40
2.8575
 49
1.905
 74
    0
 49
-0.9525
 74
    0
  0
LTYPE
  5
38
330
5
100
AcDbSymbolTableRecord
100
AcDbLinetypeTableRecord
  2
DASHED2
 70
    0
  3
Dashed (.5x) _ _ _ _ _ _ _ _ _ _ _ _ _ _ _ _ _
 72
   65
 73
    2
 40
9.524999999999999
 49
6.35
 74
    0
 49
-3.175
 74
    0
  0
LTYPE
  5
39
330
5
100
AcDbSymbolTableRecord
100
AcDbLinetypeTableRecord
  2
DASHEDX2
 70
    0
  3
Dashed (2x) ____  ____  ____  ____  ____  ___
 72
   65
 73
    2
 40
38.09999999999999
 49
25.4
 74
    0
 49
-12.7
 74
    0
  0
LTYPE
  5
3A
330
5
100
AcDbSymbolTableRecord
100
AcDbLinetypeTableRecord
  2
DASHDOT
 70
    0
  3
Dash dot __ . __ . __ . __ . __ . __ . __ . __
 72
   65
 73
    4
 40
25.4
 49
12.7
 74
    0
 49
-6.35
 74
    0
 49
0
 74
    0
 49
-6.35
 74
    0
  0
LTYPE
  5
3B
330
5
100
AcDbSymbolTableRecord
100
AcDbLinetypeTableRecord
  2
DASHDOTTINY
 70
    0
  3
Dash dot (.15x) _._._._._._._._._._._._._._._.
 72
   65
 73
    4
 40
3.81
 49
1.905
 74
    0
 49
-0.9525
 74
    0
 49
0
 74
    0
 49
-0.9525
 74
    0
  0
LTYPE
  5
3C
330
5
100
AcDbSymbolTableRecord
100
AcDbLinetypeTableRecord
  2
DASHDOT2
 70
    0
  3
Dash dot (.5x) _._._._._._._._._._._._._._._.
 72
   65
 73
    4
 40
12.7
 49
6.35
 74
    0
 49
-3.175
 74
    0
 49
0
 74
    0
 49
-3.175
 74
    0
  0
LTYPE
  5
3D
330
5
100
AcDbSymbolTableRecord
100
AcDbLinetypeTableRecord
  2
DASHDOTX2
 70
    0
  3
Dash dot (2x) ____  .  ____  .  ____  .  ___
 72
   65
 73
    4
 40
50.8
 49
25.4
 74
    0
 49
-12.7
 74
    0
 49
0
 74
    0
 49
-12.7
 74
    0
  0
LTYPE
  5
3E
330
5
100
AcDbSymbolTableRecord
100
AcDbLinetypeTableRecord
  2
DIVIDE
 70
    0
  3
Divide ____ . . ____ . . ____ . . ____ . . ____
 72
   65
 73
    6
 40
31.75
 49
12.7
 74
    0
 49
-6.35
 74
    0
 49
0
 74
    0
 49
-6.35
 74
    0
 49
0
 74
    0
 49
-6.35
 74
    0
  0
LTYPE
  5
3F
330
5
100
AcDbSymbolTableRecord
100
AcDbLinetypeTableRecord
  2
DIVIDETINY
 70
    0
  3
Divide (.15x) __..__..__..__..__..__..__..__.._
 72
   65
 73
    6
 40
4.7625
 49
1.905
 74
    0
 49
-0.9525
 74
    0
 49
0
 74
    0
 49
-0.9525
 74
    0
 49
0
 74
    0
 49
-0.9525
 74
    0
  0
LTYPE
  5
40
330
5
100
AcDbSymbolTableRecord
100
AcDbLinetypeTableRecord
  2
DIVIDE2
 70
    0
  3
Divide (.5x) __..__..__..__..__..__..__..__.._
 72
   65
 73
    6
 40
15.875
 49
6.35
 74
    0
 49
-3.175
 74
    0
 49
0
 74
    0
 49
-3.175
 74
    0
 49
0
 74
    0
 49
-3.175
 74
    0
  0
LTYPE
  5
41
330
5
100
AcDbSymbolTableRecord
100
AcDbLinetypeTableRecord
  2
DIVIDEX2
 70
    0
  3
Divide (2x) ________  .  .  ________  .  .  _
 72
   65
 73
    6
 40
63.5
 49
25.4
 74
    0
 49
-12.7
 74
    0
 49
0
 74
    0
 49
-12.7
 74
    0
 49
0
 74
    0
 49
-12.7
 74
    0
  0
LTYPE
  5
42
330
5
100
AcDbSymbolTableRecord
100
AcDbLinetypeTableRecord
  2
BORDER
 70
    0
  3
Border __ __ . __ __ . __ __ . __ __ . __ __ .
 72
   65
 73
    6
 40
44.45
 49
12.7
 74
    0
 49
-6.35
 74
    0
 49
12.7
 74
    0
 49
-6.35
 74
    0
 49
0
 74
    0
 49
-6.35
 74
    0
  0
LTYPE
  5
43
330
5
100
AcDbSymbolTableRecord
100
AcDbLinetypeTableRecord
  2
BORDERTINY
 70
    0
  3
Border (.15x) __.__.__.__.__.__.__.__.__.__.__.
 72
   65
 73
    6
 40
6.6675
 49
1.905
 74
    0
 49
-0.9525
 74
    0
 49
1.905
 74
    0
 49
-0.9525
 74
    0
 49
0
 74
    0
 49
-0.9525
 74
    0
  0
LTYPE
  5
44
330
5
100
AcDbSymbolTableRecord
100
AcDbLinetypeTableRecord
  2
BORDER2
 70
    0
  3
Border (.5x) __.__.__.__.__.__.__.__.__.__.__.
 72
   65
 73
    6
 40
22.225
 49
6.35
 74
    0
 49
-3.175
 74
    0
 49
6.35
 74
    0
 49
-3.175
 74
    0
 49
0
 74
    0
 49
-3.175
 74
    0
  0
LTYPE
  5
45
330
5
100
AcDbSymbolTableRecord
100
AcDbLinetypeTableRecord
  2
BORDERX2
 70
    0
  3
Border (2x) ____  ____  .  ____  ____  .  ___
 72
   65
 73
    6
 40
88.89999999999999
 49
25.4
 74
    0
 49
-12.7
 74
    0
 49
25.4
 74
    0
 49
-12.7
 74
    0
 49
0
 74
    0
 49
-12.7
 74
    0
  0
LTYPE
  5
46
330
5
100
AcDbSymbolTableRecord
100
AcDbLinetypeTableRecord
  2
CENTER
 70
    0
  3
Center ____ _ ____ _ ____ _ ____ _ ____ _ ____
 72
   65
 73
    4
 40
50.8
 49
31.75
 74
    0
 49
-6.35
 74
    0
 49
6.35
 74
    0
 49
-6.35
 74
    0
  0
LTYPE
  5
47
330
5
100
AcDbSymbolTableRecord
100
AcDbLinetypeTableRecord
  2
CENTERTINY
 70
    0
  3
Center (.15x) ___ _ ___ _ ___ _ ___ _ ___ _ ___
 72
   65
 73
    4
 40
7.62
 49
4.7625
 74
    0
 49
-0.9525
 74
    0
 49
0.9525
 74
    0
 49
-0.9525
 74
    0
  0
LTYPE
  5
48
330
5
100
AcDbSymbolTableRecord
100
AcDbLinetypeTableRecord
  2
CENTER2
 70
    0
  3
Center (.5x) ___ _ ___ _ ___ _ ___ _ ___ _ ___
 72
   65
 73
    4
 40
28.575
 49
19.05
 74
    0
 49
-3.175
 74
    0
 49
3.175
 74
    0
 49
-3.175
 74
    0
  0
LTYPE
  5
49
330
5
100
AcDbSymbolTableRecord
100
AcDbLinetypeTableRecord
  2
CENTERX2
 70
    0
  3
Center (2x) ________  __  ________  __  _____
 72
   65
 73
    4
 40
101.6
 49
63.5
 74
    0
 49
-12.7
 74
    0
 49
12.7
 74
    0
 49
-12.7
 74
    0
  0
ENDTAB
  0
TABLE
  2
LAYER
  5
2
330
0
100
AcDbSymbolTable
 70
    1
  0
LAYER
  5
10
330
2
100
AcDbSymbolTableRecord
100
AcDbLayerTableRecord
  2
0
 70
    0
 62
  255
  6
CONTINUOUS
370
   25
390
F
  0
LAYER
  5
4A
330
2
100
AcDbSymbolTableRecord
100
AcDbLayerTableRecord
  2
attache
 70
    0
 62
    7
  6
CONTINUOUS
370
    0
390
F
  0
ENDTAB
  0
TABLE
  2
STYLE
  5
3
330
0
100
AcDbSymbolTable
 70
    3
  0
STYLE
  5
4B
330
2
100
AcDbSymbolTableRecord
100
AcDbTextStyleTableRecord
  2
Standard
 70
    0
 40
0
 41
1
 50
0
 71
    0
 42
1
  3
txt
  4

  0
ENDTAB
  0
TABLE
  2
VIEW
  5
6
330
0
100
AcDbSymbolTable
 70
    0
  0
ENDTAB
  0
TABLE
  2
UCS
  5
7
330
0
100
AcDbSymbolTable
 70
    0
  0
ENDTAB
  0
TABLE
  2
APPID
  5
9
330
0
100
AcDbSymbolTable
 70
    1
  0
APPID
  5
12
330
9
100
AcDbSymbolTableRecord
100
AcDbRegAppTableRecord
  2
ACAD
 70
    0
  0
APPID
  5
4C
330
9
100
AcDbSymbolTableRecord
100
AcDbRegAppTableRecord
  2
LibreCad
 70
    0
  0
ENDTAB
  0
TABLE
  2
DIMSTYLE
  5
A
330
0
100
AcDbSymbolTable
 70
    1
100
AcDbDimStyleTable
 71
    1
  0
DIMSTYLE
105
4D
330
A
100
AcDbSymbolTableRecord
100
AcDbDimStyleTableRecord
  2
Standard
 70
    0
 40
1
 41
2.5
 42
0.625
 43
0.38
 44
1.25
 45
0
 46
0
 47
0
 48
0
 49
1
140
2.5
141
0.09
142
0
143
25.4
144
1
145
0
146
1
147
0.625
148
0
 71
    0
 72
    0
 73
    0
 74
    1
 75
    0
 76
    0
 77
    0
 78
    8
 79
    2
170
    0
171
    2
172
    0
173
    0
174
    0
175
    0
176
    0
177
    0
178
    0
179
    0
271
    2
272
    4
273
    2
274
    2
275
    0
276
    0
277
    2
278
   46
279
    0
280
    0
281
    0
282
    0
283
    1
284
    0
285
    0
286
    0
288
    0
289
    3
340
standard
341

371
   -2
372
   -2
  0
ENDTAB
  0
TABLE
  2
BLOCK_RECORD
  5
1
330
0
100
AcDbSymbolTable
 70
    2
  0
BLOCK_RECORD
  5
1F
330
1
100
AcDbSymbolTableRecord
100
AcDbBlockTableRecord
  2
*Model_Space
 70
    0
280
    1
281
    0
  0
BLOCK_RECORD
  5
1E
330
1
100
AcDbSymbolTableRecord
100
AcDbBlockTableRecord
  2
*Paper_Space
 70
    0
280
    1
281
    0
  0
ENDTAB
  0
ENDSEC
  0
SECTION
  2
BLOCKS
  0
BLOCK
  5
20
330
1F
100
AcDbEntity
  8
0
100
AcDbBlockBegin
  2
*Model_Space
 70
    0
 10
0
 20
0
 30
0
  3
*Model_Space
  1

  0
ENDBLK
  5
21
330
1F
100
AcDbEntity
  8
0
100
AcDbBlockEnd
  0
BLOCK
  5
1C
330
1B
100
AcDbEntity
  8
0
100
AcDbBlockBegin
  2
*Paper_Space
 70
    0
 10
0
 20
0
 30
0
  3
*Paper_Space
  1

  0
ENDBLK
  5
1D
330
1F
100
AcDbEntity
  8
0
100
AcDbBlockEnd
  0
ENDSEC
  0
SECTION
  2
ENTITIES
  0
LWPOLYLINE
  5
4E
100
AcDbEntity
  8
0
  6
ByLayer
 62
  256
370
   -1
100
AcDbPolyline
 90
  208
 70
    1
 43
0
 10
115.3787871020601
 20
1.939936172624626
 42
-0.267949178577644
 10
112.7807109682596
 20
0.4399363069500035
 10
83.8315130316597
 20
0.4399363069500022
 42
-0.267949178577643
 10
81.23343689785962
 20
1.939936172650006
 10
71.70110938856011
 20
18.4504097617755
 42
0.2354770330069456
 10
69.46854758495964
 20
19.92805958585002
 10
55.77366692411097
 20
21.60914205056612
 42
0.3624970450183158
 10
54.69704971046478
 20
20.91390816454371
 42
0.3157560512537169
 10
55.40926226758982
 20
20.01288642287112
 42
-0.3658590759313508
 10
57.52838138205958
 20
16.77221869305002
 10
57.48458316610486
 20
16.41601255988623
 42
-0.4142135623730932
 10
54.14089172345971
 20
13.80455175495003
 10
53.79010572769577
 20
13.84768352430483
 42
-0.4142135623730973
 10
51.17864492275963
 20
17.19137496705001
 10
51.66012481997474
 20
21.10719867662873
 42
0.414213562373095
 10
50.78963788495967
 20
22.22176249085003
 10
43.16313026428086
 20
23.15949880836511
 42
0.3663407372987056
 10
42.08242291561574
 20
22.4514974623615
 42
0.3196506797038631
 10
42.79736970146901
 20
21.53792475115032
 42
-0.3662835875628906
 10
44.92312011145962
 20
18.29749950485002
 10
44.88080220586896
 20
17.95128149188203
 42
-0.414213562373095
 10
41.53898572725971
 20
15.33742177425002
 10
41.18865588539155
 20
15.38024226494061
 42
-0.4142135623730923
 10
38.57479616775969
 20
18.72205874345001
 10
39.05549784402948
 20
22.6548521242273
 42
0.4142135623730909
 10
38.18421127145971
 20
23.76879095045003
 10
30.57265520588224
 20
24.69914436731982
 42
0.3617110857257393
 10
29.49722542387453
 20
24.0060082364087
 42
0.3169124514282759
 10
30.2126741281841
 20
23.10316089095203
 42
-0.3672475328636942
 10
32.34077234825962
 20
19.85497432425002
 10
32.29570553281846
 20
19.49314885452991
 42
-0.4142135623730955
 10
28.94791187965971
 20
16.88694900505003
 10
28.56576765423954
 20
16.93454660309131
 42
-0.4142135623730932
 10
25.95956780465961
 20
20.28234025625001
 10
26.4478857149125
 20
24.20287148287672
 42
0.4142135623730878
 10
25.57915243165961
 20
25.31880270065001
 10
17.94080278383306
 20
26.27018982700302
 42
0.361803462561242
 10
16.86368997151055
 20
25.57920678838322
 42
0.3167088133900923
 10
17.58573548705873
 20
24.68240331688371
 42
-0.3684685539817606
 10
19.73622164245965
 20
21.43719714375003
 10
19.68821132304487
 20
21.04181804266311
 42
-0.4142135623730932
 10
16.34845767235957
 20
18.42532314435
 10
15.97666192397269
 20
18.47046977096473
 42
-0.4142135623730925
 10
13.36016702565961
 20
21.81022342165001
 10
13.84025379925477
 20
25.76387920475442
 42
0.4142135623730971
 10
12.96808883315963
 20
26.87713042165002
 10
5.38784442535534
 20
27.79758867114511
 42
0.372554069045002
 10
4.302244172439572
 20
27.0669201580652
 42
0.3187010816279632
 10
5.010530323616122
 20
26.15172426978801
 42
-0.3640425703692585
 10
7.116106642359554
 20
22.91978827845001
 10
7.078929265644931
 20
22.61362164636311
 42
-0.414213562373095
 10
3.739175614959648
 20
19.99712674805001
 10
3.489832088472652
 20
20.02740417626471
 42
-0.4142135623730965
 10
0.8733371902595612
 20
23.36715782695002
 10
3.596371285374346
 20
45.79214449333701
 42
-0.414605001009923
 10
6.940104190559609
 20
48.40815349835002
 10
7.181888271879714
 20
48.37846609655351
 42
-0.4142135623730938
 10
9.793918022459692
 20
45.03521908475001
 10
9.751907596063177
 20
44.69307218912981
 42
-0.3622589140328722
 10
6.949392203599258
 20
42.06379652506091
 42
0.3157396378396529
 10
6.049252740294676
 20
41.35054791253411
 42
0.3661377197549457
 10
6.926383904159692
 20
40.40269615515002
 10
14.51280963431954
 20
39.4711986502822
 42
0.4167217181020287
 10
15.62823165345968
 20
40.35037159635
 10
16.07303434230131
 20
44.24842586582061
 42
-0.4167217181020262
 10
19.41930039975965
 20
46.88594470375001
 10
19.79210361387977
 20
46.84017014845351
 42
-0.4142135623730938
 10
22.40413336445964
 20
43.49692313665001
 10
22.36090794866303
 20
43.14488096262981
 42
-0.3625240175712111
 10
19.55558531945549
 20
40.5154424681521
 42
0.3154138765847054
 10
18.65511723602275
 20
39.8041732350283
 42
0.3665301251727664
 10
19.53563201505959
 20
38.85802027475002
 10
27.13429269136519
 20
37.95205235369953
 42
0.4131870196763968
 10
28.24522764655966
 20
38.82315012345002
 10
28.72381955775613
 20
42.72096194887023
 42
-0.414213562373095
 10
32.06706656965967
 20
45.33299169945001
 10
32.39086870147987
 20
45.29323373055352
 42
-0.4142135623730938
 10
35.00289845205963
 20
41.94998671875003
 10
34.95967316056311
 20
41.5979455570298
 42
-0.3620490653714952
 10
32.15938012834408
 20
38.96880067076241
 42
0.3156099458561601
 10
31.25990443571075
 20
38.25533654335972
 42
0.3662143988804039
 10
32.13704765065958
 20
37.30721460185002
 10
39.77205659131955
 20
36.36975181888211
 42
0.414373924446301
 10
40.88653883425955
 20
37.24097181915
 10
41.36706650575028
 20
41.17234160471803
 42
-0.4142135623730938
 10
44.70888298435965
 20
43.78620132235002
 10
45.05517074462757
 20
43.74387489155943
 42
-0.4143739244463062
 10
47.66883074535961
 20
40.40042816285002
 10
47.62492561776308
 20
40.04285019002991
 42
-0.3663864482558423
 10
44.77874121999868
 20
37.41134022927982
 42
0.3183466418140411
 10
43.86551159897763
 20
36.7022314869704
 42
0.3646925280290028
 10
44.74240184055962
 20
35.75947382945002
 10
52.33779479001963
 20
34.82687528668221
 42
0.4140840683748659
 10
53.4521564801597
 20
35.69711303735001
 10
53.93690621094566
 20
39.6306972713332
 42
-0.4140840683748681
 10
57.27999128135967
 20
42.24141052345003
 10
57.64209538117977
 20
42.19694965645353
 42
-0.414213562373095
 10
60.25412513175966
 20
38.85370264455001
 10
60.21193589546312
 20
38.51009946122981
 42
-0.3649486177571515
 10
57.38095411497076
 20
35.87929492910833
 42
0.3191913379252547
 10
56.47046369544559
 20
35.16262132778662
 42
0.3669999182188229
 10
57.34772634145962
 20
34.21173234145
 10
69.30967802555573
 20
32.7429896744474
 42
0.3009658283950494
 10
72.27336216935963
 20
34.22062810465
 10
81.23343887578264
 20
49.7399357273036
 42
-0.2679491888984235
 10
83.83151506735963
 20
51.23993569305001
 10
112.7807089326595
 20
51.23993569305001
 42
-0.267949188898422
 10
115.3787851242597
 20
49.73993572735002
 10
124.3388618305825
 20
34.22062810469642
 42
0.3009658283950491
 10
127.3025459743596
 20
32.74298967445002
 10
139.2644976585609
 20
34.21173234141581
 42
0.3669999182188191
 10
140.1417603045118
 20
35.16262132773453
 42
0.3191913379252524
 10
139.2312698849929
 20
35.87929492917512
 42
-0.3649486177571515
 10
136.4002881045596
 20
38.51009946125002
 10
136.3580988682561
 20
38.85370264462982
 42
-0.4142135623730965
 10
138.9701286187596
 20
42.19694965645
 10
139.3322327185396
 20
42.24141052345352
 42
-0.4140840683748682
 10
142.6753177890597
 20
39.63069727125001
 10
143.1600675198549
 20
35.697113037389
 42
0.414084068374872
 10
144.2744292099596
 20
34.82687528665001
 10
151.8698221593996
 20
35.75947382948222
 42
0.3646925280290025
 10
152.7467124009546
 20
36.70223148691322
 42
0.3183466418140444
 10
151.8334827799769
 20
37.41134022936062
 42
-0.3663864482558405
 10
148.9872983821596
 20
40.04285018995002
 10
148.9433932546563
 20
40.40042816282981
 42
-0.4143739244463031
 10
151.5570532553596
 20
43.74387489155002
 10
151.9033410155916
 20
43.78620132235942
 42
-0.4142135623730939
 10
155.2451574941595
 20
41.17234160465001
 10
155.7256851657899
 20
37.24097181912741
 42
0.4143739244463027
 10
156.8401674086595
 20
36.36975181885001
 10
164.4751763492997
 20
37.30721460178221
 42
0.3662143988804036
 10
165.3523195643165
 20
38.25533654342122
 42
0.3156099458561625
 10
164.4528438716129
 20
38.96880067071292
 42
-0.362049065371495
 10
161.6525508393596
 20
41.59794555705001
 10
161.6093255478563
 20
41.94998671872982
 42
-0.414213562373095
 10
164.2213552984595
 20
45.29323373055003
 10
164.5451574303394
 20
45.3329916994535
 42
-0.414213562373095
 10
167.8884044421596
 20
42.72096194885002
 10
168.3669963534917
 20
38.82315012351002
 42
0.4131870196764031
 10
169.4779313085596
 20
37.95205235365002
 10
177.076591984854
 20
38.85802027469951
 42
0.3665301251727648
 10
177.9571067639732
 20
39.80417323508273
 42
0.3154138765847057
 10
177.0566386805473
 20
40.51544246814361
 42
-0.3625240175712113
 10
174.2513160513595
 20
43.14488096255
 10
174.2080906355562
 20
43.4969231366298
 42
-0.4142135623730949
 10
176.8201203860596
 20
46.84017014845001
 10
177.1929236002395
 20
46.88594470375351
 42
-0.4167217181020269
 10
180.5391896577597
 20
44.24842586575001
 10
180.9839923464402
 20
40.3503715962599
 42
0.4167217181020302
 10
182.0994143656596
 20
39.47119865035002
 10
189.6858400957996
 20
40.40269615518223
 42
0.3661377197549438
 10
190.5629712596609
 20
41.35054791257032
 42
0.315739637839658
 10
189.6628317963787
 20
42.06379652501751
 42
-0.3622589140328732
 10
186.8603164038597
 20
44.69307218915002
 10
186.8183059775561
 20
45.0352190847298
 42
-0.4142135623730949
 10
189.4303357280597
 20
48.37846609655001
 10
189.6721198094394
 20
48.40815349835352
 42
-0.4146050010099238
 10
193.0158527145596
 20
45.79214449335002
 10
195.7388868097449
 20
23.367157826937
 42
-0.4142135623730948
 10
193.1223919114597
 20
20.02740417625002
 10
192.8730483850466
 20
19.9971267480647
 42
-0.4142135623730939
 10
189.5332947343596
 20
22.61362164635002
 10
189.4961173575742
 20
22.919788278463
 42
-0.3640425703692587
 10
191.6016936763451
 20
26.1517242697373
 42
0.3187010816279633
 10
192.3099798275641
 20
27.06692015805912
 42
0.3725540690449949
 10
191.2243795746595
 20
27.79758867115002
 10
183.6441351667639
 20
26.87713042164511
 42
0.414213562373095
 10
182.7719702006596
 20
25.76387920475001
 10
183.252056974345
 20
21.81022342163691
 42
-0.4142135623730966
 10
180.6355620760597
 20
18.47046977095
 10
180.2637663276465
 20
18.42532314436473
 42
-0.414213562373095
 10
176.9240126769597
 20
21.04181804265001
 10
176.8760023574743
 20
21.43719714376313
 42
-0.3684685539817641
 10
179.0264885128926
 20
24.68240331690551
 42
0.3167088133900884
 10
179.7485340284262
 20
25.57920678835773
 42
0.3618034625612459
 10
178.6714212161597
 20
26.27018982695002
 10
171.0330715682862
 20
25.31880270060292
 42
0.4142135623730894
 10
170.1643382850596
 20
24.20287148285003
 10
170.6526561953185
 20
20.2823402562701
 42
-0.414213562373095
 10
168.0464563457596
 20
16.93454660305001
 10
167.6643121202796
 20
16.88694900499131
 42
-0.414213562373095
 10
164.3165184671597
 20
19.49314885455003
 10
164.2714516517009
 20
19.85497432422993
 42
-0.3672475328636941
 10
166.3995498718343
 20
23.10316089094941
 42
0.3169124514282853
 10
167.1149985761094
 20
24.00600823638102
 42
0.3617110857257417
 10
166.0395687940596
 20
24.69914436735
 10
158.4280127285369
 20
23.76879095041981
 42
0.4142135623730894
 10
157.5567261559596
 20
22.65485212425001
 10
158.037427832269
 20
18.72205874351802
 42
-0.4142135623730971
 10
155.4235681145597
 20
15.38024226495001
 10
155.0732382727276
 20
15.33742177424061
 42
-0.4142135623730963
 10
151.7314217941598
 20
17.95128149185003
 10
151.6891038884502
 20
18.29749950488203
 42
-0.3662835875628911
 10
153.8148542985293
 20
21.53792475111662
 42
0.3196506797038585
 10
154.529801084394
 20
22.4514974623501
 42
0.3663407372991988
 10
153.4490937357596
 20
23.15949880835003
 10
145.8225861150366
 20
22.22176249086491
 42
0.414213562372581
 10
144.9520991800596
 20
21.10719867665001
 10
145.4335790772042
 20
17.191374967019
 42
-0.414213562373606
 10
142.8221182722596
 20
13.84768352435002
 10
142.4713322765234
 20
13.80455175490481
 42
-0.4142135623730963
 10
139.1276408338596
 20
16.41601255995
 10
139.0838426179145
 20
16.77221869308621
 42
-0.3658590759313488
 10
141.202961732403
 20
20.01288642287632
 42
0.3157560512537119
 10
141.9151742894504
 20
20.91390816449571
 42
0.3624970450183228
 10
140.8385570758596
 20
21.60914205065002
 10
127.1436764150057
 20
19.92805958579841
 42
0.2354770330069456
 10
124.9111146113597
 20
18.45040976185003
  0
LWPOLYLINE
  5
4F
100
AcDbEntity
  8
0
  6
ByLayer
 62
  256
370
   -1
100
AcDbPolyline
 90
   12
 70
    1
 43
0
 10
123.9120195090366
 20
27.33993603430362
 42
-0.267949199496522
 10
123.9120195090596
 20
24.33993596575
 10
113.1790776673366
 20
5.749935947296402
 42
-0.2679491888984235
 10
110.5810014757596
 20
4.249935981550024
 10
86.03122252415966
 20
4.249935981550025
 42
-0.2679491888984219
 10
83.43314633255966
 20
5.749935947250029
 10
72.7002044908826
 20
24.33993596579641
 42
-0.2679491994965245
 10
72.7002044908596
 20
27.33993603425002
 10
83.43314633258271
 20
45.92993605270373
 42
-0.2679491888984225
 10
86.0312225241597
 20
47.42993601845002
 10
110.5810014757596
 20
47.42993601845002
 42
-0.2679491888984221
 10
113.1790776673595
 20
45.92993605275002
  0
LWPOLYLINE
  5
50
100
AcDbEntity
  8
attache
  6
ByLayer
 62
  256
370
   -1
100
AcDbPolyline
 90
    4
 70
    1
 43
0
 10
115
 20
35
 10
115
 20
16
 10
81
 20
16
 10
81
 20
35
  0
LWPOLYLINE
  5
51
100
AcDbEntity
  8
attache
  6
ByLayer
 62
  256
370
   -1
100
AcDbPolyline
 90
    4
 70
    1
 43
0
 10
113.5
 20
33.5
 10
113.5
 20
17.5
 10
82.5
 20
17.5
 10
82.5
 20
33.5
  0
ENDSEC
  0
SECTION
  2
OBJECTS
  0
DICTIONARY
  5
C
330
0
100
AcDbDictionary
281
    1
  3
ACAD_GROUP
350
D
  0
DICTIONARY
  5
D
330
C
100
AcDbDictionary
281
    1
  0
ENDSEC
  0
EOF
