999
dxfrw 0.6.3
  0
SECTION
  2
HEADER
  9
$ACADVER
  1
AC1009
  9
$DWGCODEPAGE
  3
ANSI_1252
  9
$INSBASE
 10
0
 20
0
 30
0
  9
$EXTMIN
 10
0
 20
0
 30
0
  9
$EXTMAX
 10
186.5483025727385
 20
142.5050183706678
 30
0
  9
$LIMMIN
 10
0
 20
0
  9
$LIMMAX
 10
420
 20
297
  9
$ORTHOMODE
 70
    0
  9
$REGENMODE
 70
    1
  9
$FILLMODE
 70
    1
  9
$QTEXTMODE
 70
    0
  9
$MIRRTEXT
 70
    0
  9
$DRAGMODE
 70
    2
  9
$LTSCALE
 40
1
  9
$OSMODE
 70
    0
  9
$ATTMODE
 70
    0
  9
$TEXTSIZE
 40
2.5
  9
$TRACEWID
 40
15.68
  9
$TEXTSTYLE
  7
STANDARD
  9
$CLAYER
  8
0
  9
$CELTYPE
  6
BYLAYER
  9
$CECOLOR
 62
  256
  9
$DIMSCALE
 40
2.5
  9
$DIMASZ
 40
2.5
  9
$DIMEXO
 40
0.625
  9
$DIMDLI
 40
3.75
  9
$DIMRND
 40
0
  9
$DIMDLE
 40
0
  9
$DIMEXE
 40
1.25
  9
$DIMTP
 40
0
  9
$DIMTM
 40
0
  9
$DIMTXT
 40
2.5
  9
$DIMCEN
 40
2.5
  9
$DIMTSZ
 40
0
  9
$DIMTOL
 70
    0
  9
$DIMLIM
 70
    0
  9
$DIMTIH
 70
    0
  9
$DIMTOH
 70
    0
  9
$DIMSE1
 70
    0
  9
$DIMSE2
 70
    0
  9
$DIMTAD
 70
    1
  9
$DIMZIN
 70
    8
  9
$DIMBLK
  1

  9
$DIMASO
 70
    1
  9
$DIMSHO
 70
    1
  9
$DIMPOST
  1

  9
$DIMAPOST
  1

  9
$DIMALT
 70
    0
  9
$DIMALTD
 70
    3
  9
$DIMALTF
 40
0.03937
  9
$DIMLFAC
 40
1
  9
$DIMTOFL
 70
    1
  9
$DIMTVP
 40
0
  9
$DIMTIX
 70
    0
  9
$DIMSOXD
 70
    0
  9
$DIMSAH
 70
    0
  9
$DIMBLK1
  1

  9
$DIMBLK2
  1

  9
$DIMSTYLE
  2
STANDARD
  9
$DIMCLRD
 70
    0
  9
$DIMCLRE
 70
    0
  9
$DIMCLRT
 70
    0
  9
$DIMTFAC
 40
1
  9
$DIMGAP
 40
0.625
  9
$LUNITS
 70
    2
  9
$LUPREC
 70
    4
  9
$SKETCHINC
 40
1
  9
$FILLETRAD
 40
0
  9
$AUNITS
 70
    0
  9
$AUPREC
 70
    2
  9
$MENU
  1
.
  9
$ELEVATION
 40
0
  9
$PELEVATION
 40
0
  9
$THICKNESS
 40
0
  9
$LIMCHECK
 70
    0
  9
$BLIPMODE
 70
    0
  9
$CHAMFERA
 40
0
  9
$CHAMFERB
 40
0
  9
$SKPOLY
 70
    0
  9
$USRTIMER
 70
    1
  9
$ANGBASE
 50
0
  9
$ANGDIR
 70
    0
  9
$PDMODE
 70
   34
  9
$PDSIZE
 40
0
  9
$PLINEWID
 40
0
  9
$COORDS
 70
    2
  9
$SPLFRAME
 70
    0
  9
$SPLINETYPE
 70
    2
  9
$SPLINESEGS
 70
    8
  9
$ATTDIA
 70
    1
  9
$ATTREQ
 70
    1
  9
$HANDLING
 70
    1
  9
$HANDSEED
  5
20000
  9
$SURFTAB1
 70
    6
  9
$SURFTAB2
 70
    6
  9
$SURFTYPE
 70
    6
  9
$SURFU
 70
    6
  9
$SURFV
 70
    6
  9
$UCSNAME
  2

  9
$UCSORG
 10
0
 20
0
 30
0
  9
$UCSXDIR
 10
1
 20
0
 30
0
  9
$UCSYDIR
 10
0
 20
1
 30
0
  9
$PUCSNAME
  2

  9
$PUCSORG
 10
0
 20
0
 30
0
  9
$PUCSXDIR
 10
1
 20
0
 30
0
  9
$PUCSYDIR
 10
0
 20
1
 30
0
  9
$USERI1
 70
    0
  9
$USERI2
 70
    0
  9
$USERI3
 70
    0
  9
$USERI4
 70
    0
  9
$USERI5
 70
    0
  9
$USERR1
 40
0
  9
$USERR2
 40
0
  9
$USERR3
 40
0
  9
$USERR4
 40
0
  9
$USERR5
 40
0
  9
$WORLDVIEW
 70
    1
  9
$SHADEDGE
 70
    3
  9
$SHADEDIF
 70
   70
  9
$TILEMODE
 70
    1
  9
$MAXACTVP
 70
   64
  9
$PLIMCHECK
 70
    0
  9
$PEXTMIN
 10
0
 20
0
 30
0
  9
$PEXTMAX
 10
0
 20
0
 30
0
  9
$SNAPSTYLE
 70
    0
  9
$PLIMMIN
 10
0
 20
0
  9
$PLIMMAX
 10
210
 20
297
  9
$UNITMODE
 70
    0
  9
$VISRETAIN
 70
    1
  9
$PLINEGEN
 70
    0
  9
$PSLTSCALE
 70
    1
  0
ENDSEC
  0
SECTION
  2
TABLES
  0
TABLE
  2
VPORT
 70
    1
  0
VPORT
  2
*ACTIVE
 70
    0
 10
0
 20
0
 11
1
 21
1
 12
67.77771765715686
 22
50.51438430156985
 13
0
 23
0
 14
10
 24
10
 15
10
 25
10
 16
0
 26
0
 36
1
 17
0
 27
0
 37
0
 40
144.2296225176136
 41
1.794811320754717
 42
50
 43
0
 44
0
 50
0
 51
0
 71
    0
 72
  100
 73
    1
 74
    3
 75
    0
 76
    1
 77
    0
 78
    0
  0
ENDTAB
  0
TABLE
  2
LTYPE
 70
    4
  0
LTYPE
  2
BYBLOCK
 70
    0
  3

 72
   65
 73
    0
 40
0
  0
LTYPE
  2
BYLAYER
 70
    0
  3

 72
   65
 73
    0
 40
0
  0
LTYPE
  2
CONTINUOUS
 70
    0
  3
Solid line
 72
   65
 73
    0
 40
0
  0
LTYPE
  2
DOT
 70
    0
  3
Dot . . . . . . . . . . . . . . . . . . . . . .
 72
   65
 73
    2
 40
6.35
 49
0
 49
-6.35
  0
LTYPE
  2
DOTTINY
 70
    0
  3
Dot (.15x) .....................................
 72
   65
 73
    2
 40
0.9525
 49
0
 49
-0.9525
  0
LTYPE
  2
DOT2
 70
    0
  3
Dot (.5x) .....................................
 72
   65
 73
    2
 40
3.175
 49
0
 49
-3.175
  0
LTYPE
  2
DOTX2
 70
    0
  3
Dot (2x) .  .  .  .  .  .  .  .  .  .  .  .  .
 72
   65
 73
    2
 40
12.7
 49
0
 49
-12.7
  0
LTYPE
  2
DASHED
 70
    0
  3
Dashed _ _ _ _ _ _ _ _ _ _ _ _ _ _ _ _ _
 72
   65
 73
    2
 40
19.05
 49
12.7
 49
-6.35
  0
LTYPE
  2
DASHEDTINY
 70
    0
  3
Dashed (.15x) _ _ _ _ _ _ _ _ _ _ _ _ _ _ _ _ _
 72
   65
 73
    2
 40
2.8575
 49
1.905
 49
-0.9525
  0
LTYPE
  2
DASHED2
 70
    0
  3
Dashed (.5x) _ _ _ _ _ _ _ _ _ _ _ _ _ _ _ _ _
 72
   65
 73
    2
 40
9.524999999999999
 49
6.35
 49
-3.175
  0
LTYPE
  2
DASHEDX2
 70
    0
  3
Dashed (2x) ____  ____  ____  ____  ____  ___
 72
   65
 73
    2
 40
38.09999999999999
 49
25.4
 49
-12.7
  0
LTYPE
  2
DASHDOT
 70
    0
  3
Dash dot __ . __ . __ . __ . __ . __ . __ . __
 72
   65
 73
    4
 40
25.4
 49
12.7
 49
-6.35
 49
0
 49
-6.35
  0
LTYPE
  2
DASHDOTTINY
 70
    0
  3
Dash dot (.15x) _._._._._._._._._._._._._._._.
 72
   65
 73
    4
 40
3.81
 49
1.905
 49
-0.9525
 49
0
 49
-0.9525
  0
LTYPE
  2
DASHDOT2
 70
    0
  3
Dash dot (.5x) _._._._._._._._._._._._._._._.
 72
   65
 73
    4
 40
12.7
 49
6.35
 49
-3.175
 49
0
 49
-3.175
  0
LTYPE
  2
DASHDOTX2
 70
    0
  3
Dash dot (2x) ____  .  ____  .  ____  .  ___
 72
   65
 73
    4
 40
50.8
 49
25.4
 49
-12.7
 49
0
 49
-12.7
  0
LTYPE
  2
DIVIDE
 70
    0
  3
Divide ____ . . ____ . . ____ . . ____ . . ____
 72
   65
 73
    6
 40
31.75
 49
12.7
 49
-6.35
 49
0
 49
-6.35
 49
0
 49
-6.35
  0
LTYPE
  2
DIVIDETINY
 70
    0
  3
Divide (.15x) __..__..__..__..__..__..__..__.._
 72
   65
 73
    6
 40
4.7625
 49
1.905
 49
-0.9525
 49
0
 49
-0.9525
 49
0
 49
-0.9525
  0
LTYPE
  2
DIVIDE2
 70
    0
  3
Divide (.5x) __..__..__..__..__..__..__..__.._
 72
   65
 73
    6
 40
15.875
 49
6.35
 49
-3.175
 49
0
 49
-3.175
 49
0
 49
-3.175
  0
LTYPE
  2
DIVIDEX2
 70
    0
  3
Divide (2x) ________  .  .  ________  .  .  _
 72
   65
 73
    6
 40
63.5
 49
25.4
 49
-12.7
 49
0
 49
-12.7
 49
0
 49
-12.7
  0
LTYPE
  2
BORDER
 70
    0
  3
Border __ __ . __ __ . __ __ . __ __ . __ __ .
 72
   65
 73
    6
 40
44.45
 49
12.7
 49
-6.35
 49
12.7
 49
-6.35
 49
0
 49
-6.35
  0
LTYPE
  2
BORDERTINY
 70
    0
  3
Border (.15x) __.__.__.__.__.__.__.__.__.__.__.
 72
   65
 73
    6
 40
6.6675
 49
1.905
 49
-0.9525
 49
1.905
 49
-0.9525
 49
0
 49
-0.9525
  0
LTYPE
  2
BORDER2
 70
    0
  3
Border (.5x) __.__.__.__.__.__.__.__.__.__.__.
 72
   65
 73
    6
 40
22.225
 49
6.35
 49
-3.175
 49
6.35
 49
-3.175
 49
0
 49
-3.175
  0
LTYPE
  2
BORDERX2
 70
    0
  3
Border (2x) ____  ____  .  ____  ____  .  ___
 72
   65
 73
    6
 40
88.89999999999999
 49
25.4
 49
-12.7
 49
25.4
 49
-12.7
 49
0
 49
-12.7
  0
LTYPE
  2
CENTER
 70
    0
  3
Center ____ _ ____ _ ____ _ ____ _ ____ _ ____
 72
   65
 73
    4
 40
50.8
 49
31.75
 49
-6.35
 49
6.35
 49
-6.35
  0
LTYPE
  2
CENTERTINY
 70
    0
  3
Center (.15x) ___ _ ___ _ ___ _ ___ _ ___ _ ___
 72
   65
 73
    4
 40
7.62
 49
4.7625
 49
-0.9525
 49
0.9525
 49
-0.9525
  0
LTYPE
  2
CENTER2
 70
    0
  3
Center (.5x) ___ _ ___ _ ___ _ ___ _ ___ _ ___
 72
   65
 73
    4
 40
28.575
 49
19.05
 49
-3.175
 49
3.175
 49
-3.175
  0
LTYPE
  2
CENTERX2
 70
    0
  3
Center (2x) ________  __  ________  __  _____
 72
   65
 73
    4
 40
101.6
 49
63.5
 49
-12.7
 49
12.7
 49
-12.7
  0
ENDTAB
  0
TABLE
  2
LAYER
 70
    1
  0
LAYER
  2
0
 70
    0
 62
    7
  6
CONTINUOUS
  0
ENDTAB
  0
TABLE
  2
STYLE
 70
    3
  0
STYLE
  2
STANDARD
 70
    0
 40
0
 41
1
 50
0
 71
    0
 42
1
  3
TXT
  4

  0
ENDTAB
  0
TABLE
  2
VIEW
 70
    0
  0
ENDTAB
  0
TABLE
  2
UCS
 70
    0
  0
ENDTAB
  0
TABLE
  2
APPID
 70
    1
  0
APPID
  2
ACAD
 70
    0
  0
APPID
  2
LIBRECAD
 70
    0
  0
ENDTAB
  0
TABLE
  2
DIMSTYLE
 70
    1
  0
DIMSTYLE
  2
STANDARD
 70
    0
  3

  4

  5

  6

  7

 40
1
 41
2.5
 42
0.625
 43
0.38
 44
1.25
 45
0
 46
0
 47
0
 48
0
 49
1
140
2.5
141
0.09
142
2.5
143
25.4
144
1
145
0
146
1
147
0.625
 71
    0
 72
    0
 73
    0
 74
    1
 75
    0
 76
    0
 77
    0
 78
    1
170
    0
171
    2
172
    0
173
    0
174
    0
175
    0
176
    0
177
    0
178
    0
  0
ENDTAB
  0
ENDSEC
  0
SECTION
  2
BLOCKS
  0
BLOCK
  8
0
  2
$MODEL_SPACE
 70
    0
 10
0
 20
0
 30
0
  3
$MODEL_SPACE
  1

  0
ENDBLK
  8
0
  0
BLOCK
  8
0
  2
$PAPER_SPACE
 70
    0
 10
0
 20
0
 30
0
  3
$PAPER_SPACE
  1

  0
ENDBLK
  8
0
  0
ENDSEC
  0
SECTION
  2
ENTITIES
  0
POLYLINE
  5
31
  8
0
  6
BYLAYER
 62
  256
 66
    1
 10
0
 20
0
 30
0
 70
    1
  0
VERTEX
  5
32
  8
0
  6
BYLAYER
 62
  256
 10
1.980308113241659
 20
31.62346799308307
 30
0
  0
VERTEX
  5
33
  8
0
  6
BYLAYER
 62
  256
 10
22.46011494746692
 20
43.39020871470622
 30
0
 42
0.3124412818130871
  0
VERTEX
  5
34
  8
0
  6
BYLAYER
 62
  256
 10
24.41500370941625
 20
47.50378184399511
 30
0
 42
-0.02529255883258113
  0
VERTEX
  5
35
  8
0
  6
BYLAYER
 62
  256
 10
22.75164342365969
 20
62.36620929904551
 30
0
 42
0.6030083073354358
  0
VERTEX
  5
36
  8
0
  6
BYLAYER
 62
  256
 10
19.52817194820196
 20
63.82377871614312
 30
0
  0
VERTEX
  5
37
  8
0
  6
BYLAYER
 62
  256
 10
13.64172847135572
 20
59.24964835924585
 30
0
 42
-0.6307829792372008
  0
VERTEX
  5
38
  8
0
  6
BYLAYER
 62
  256
 10
3.310951534964801
 20
64.43118991451989
 30
0
  0
VERTEX
  5
39
  8
0
  6
BYLAYER
 62
  256
 10
4
 20
70
 30
0
  0
VERTEX
  5
3A
  8
0
  6
BYLAYER
 62
  256
 10
3.312445312995328
 20
78.51360112224098
 30
0
 42
-0.6307829792372016
  0
VERTEX
  5
3B
  8
0
  6
BYLAYER
 62
  256
 10
13.64432127082738
 20
83.69295090676711
 30
0
  0
VERTEX
  5
3C
  8
0
  6
BYLAYER
 62
  256
 10
19.52979422238908
 20
79.11757185531896
 30
0
 42
0.6030083073354361
  0
VERTEX
  5
3D
  8
0
  6
BYLAYER
 62
  256
 10
22.75357484581227
 20
80.57445738643997
 30
0
 42
-0.02529255883258102
  0
VERTEX
  5
3E
  8
0
  6
BYLAYER
 62
  256
 10
24.42008812908807
 20
95.43653162840016
 30
0
 42
0.3124412818130871
  0
VERTEX
  5
3F
  8
0
  6
BYLAYER
 62
  256
 10
22.46607209763375
 20
99.55051939095145
 30
0
  0
VERTEX
  5
40
  8
0
  6
BYLAYER
 62
  256
 10
1.98876201533122
 20
111.3216045987951
 30
0
 42
-0.3672405695660073
  0
VERTEX
  5
41
  8
0
  6
BYLAYER
 62
  256
 10
0.3130383761875066
 20
115.9765470697534
 30
0
 42
-0.008943230999717352
  0
VERTEX
  5
42
  8
0
  6
BYLAYER
 62
  256
 10
1.206399784980297
 20
118.232755760808
 30
0
 42
-0.4144220932559703
  0
VERTEX
  5
43
  8
0
  6
BYLAYER
 62
  256
 10
3.554392828685637
 20
119.153356596427
 30
0
 42
-0.4142385902997754
  0
VERTEX
  5
44
  8
0
  6
BYLAYER
 62
  256
 10
4.475239917163634
 20
116.802231185421
 30
0
 42
0.0034667709057892
  0
VERTEX
  5
45
  8
0
  6
BYLAYER
 62
  256
 10
4.082434877115702
 20
115.8366777752866
 30
0
 42
0.000135530305352785
  0
VERTEX
  5
46
  8
0
  6
BYLAYER
 62
  256
 10
3.971065785524616
 20
115.5574974587772
 30
0
 42
0.3718348653119447
  0
VERTEX
  5
47
  8
0
  6
BYLAYER
 62
  256
 10
4.520807219023767
 20
113.9846763161075
 30
0
  0
VERTEX
  5
48
  8
0
  6
BYLAYER
 62
  256
 10
5.215184706784381
 20
113.5854419995719
 30
0
 42
0.4318651340149263
  0
VERTEX
  5
49
  8
0
  6
BYLAYER
 62
  256
 10
6.608827651705493
 20
114.0067064379245
 30
0
  0
VERTEX
  5
4A
  8
0
  6
BYLAYER
 62
  256
 10
6.777825021920139
 20
114.3514365673134
 30
0
 42
-0.6406541327996034
  0
VERTEX
  5
4B
  8
0
  6
BYLAYER
 62
  256
 10
8.388590845557694
 20
114.2777245506459
 30
0
  0
VERTEX
  5
4C
  8
0
  6
BYLAYER
 62
  256
 10
9.731412359670776
 20
111.2229431711162
 30
0
 42
0.1635410776657693
  0
VERTEX
  5
4D
  8
0
  6
BYLAYER
 62
  256
 10
10.15380952065673
 20
110.7459655808443
 30
0
  0
VERTEX
  5
4E
  8
0
  6
BYLAYER
 62
  256
 10
20.92770570656518
 20
104.5514832480758
 30
0
 42
0.4985945917980113
  0
VERTEX
  5
4F
  8
0
  6
BYLAYER
 62
  256
 10
26.80442567385387
 20
107.0586404587894
 30
0
 42
-0.03433026976754988
  0
VERTEX
  5
50
  8
0
  6
BYLAYER
 62
  256
 10
32.99142099848448
 20
126.2978327132107
 30
0
 42
-0.1948244713992429
  0
VERTEX
  5
51
  8
0
  6
BYLAYER
 62
  256
 10
38.94060558213999
 20
132.5027947933845
 30
0
 42
-0.1949490859027102
  0
VERTEX
  5
52
  8
0
  6
BYLAYER
 62
  256
 10
47.53169405265362
 20
132.8219350810978
 30
0
 42
3.668205318180039e-006
  0
VERTEX
  5
53
  8
0
  6
BYLAYER
 62
  256
 10
53.05191782087785
 20
130.8203205103747
 30
0
 42
0.2173816340427219
  0
VERTEX
  5
54
  8
0
  6
BYLAYER
 62
  256
 10
61.26498568286257
 20
131.4806336630085
 30
0
  0
VERTEX
  5
55
  8
0
  6
BYLAYER
 62
  256
 10
71.92279676749426
 20
137.4164870383734
 30
0
 42
0.2179529438991328
  0
VERTEX
  5
56
  8
0
  6
BYLAYER
 62
  256
 10
72.90807971492262
 20
138.7581089587473
 30
0
  0
VERTEX
  5
57
  8
0
  6
BYLAYER
 62
  256
 10
73.2180729167511
 20
140.2546873886807
 30
0
 42
-0.2166808083927575
  0
VERTEX
  5
58
  8
0
  6
BYLAYER
 62
  256
 10
74.19487723890484
 20
141.5915601248644
 30
0
 42
-0.2726054921913206
  0
VERTEX
  5
59
  8
0
  6
BYLAYER
 62
  256
 10
81.39561074834572
 20
141.4528861842151
 30
0
 42
-0.7606118229890693
  0
VERTEX
  5
5A
  8
0
  6
BYLAYER
 62
  256
 10
81.18809694092498
 20
140.472017221178
 30
0
  0
VERTEX
  5
5B
  8
0
  6
BYLAYER
 62
  256
 10
79.1557562326704
 20
140.4715210379911
 30
0
 42
1.00000000000001
  0
VERTEX
  5
5C
  8
0
  6
BYLAYER
 62
  256
 10
79.15575623267041
 20
139.0018093348071
 30
0
 42
-0.01816555811659532
  0
VERTEX
  5
5D
  8
0
  6
BYLAYER
 62
  256
 10
79.86854953810132
 20
138.8619614702154
 30
0
  0
VERTEX
  5
5E
  8
0
  6
BYLAYER
 62
  256
 10
83.72200015009696
 20
137.9594445677142
 30
0
 42
-0.1240974609032127
  0
VERTEX
  5
5F
  8
0
  6
BYLAYER
 62
  256
 10
174.5494482952569
 20
93.52138235313895
 30
0
 42
2.000000000000028
  0
VERTEX
  5
60
  8
0
  6
BYLAYER
 62
  256
 10
174.5471570962946
 20
101.5213820250389
 30
0
 42
-0.9999999999999977
  0
VERTEX
  5
61
  8
0
  6
BYLAYER
 62
  256
 10
172.1462407151394
 20
104.7206945341105
 30
0
 42
-2.018919279332308
  0
VERTEX
  5
62
  8
0
  6
BYLAYER
 62
  256
 10
172.0427986839261
 20
90.4025906296899
 30
0
 42
0.005692624657014215
  0
VERTEX
  5
63
  8
0
  6
BYLAYER
 62
  256
 10
168.406203512921
 20
93.40896266575342
 30
0
 42
0.1042294315126295
  0
VERTEX
  5
64
  8
0
  6
BYLAYER
 62
  256
 10
167.6713219910074
 20
93.78361797741236
 30
0
  0
VERTEX
  5
65
  8
0
  6
BYLAYER
 62
  256
 10
163.9324882605352
 20
94.79330313579258
 30
0
 42
-0.1975132317693647
  0
VERTEX
  5
66
  8
0
  6
BYLAYER
 62
  256
 10
162.7252982457244
 20
95.71821295030664
 30
0
  0
VERTEX
  5
67
  8
0
  6
BYLAYER
 62
  256
 10
161.0071794757505
 20
98.67069835064302
 30
0
 42
0.2096602416281847
  0
VERTEX
  5
68
  8
0
  6
BYLAYER
 62
  256
 10
159.7093739834241
 20
99.61782504674184
 30
0
  0
VERTEX
  5
69
  8
0
  6
BYLAYER
 62
  256
 10
156.3735892971635
 20
100.3536477363515
 30
0
 42
-0.1975131548398246
  0
VERTEX
  5
6A
  8
0
  6
BYLAYER
 62
  256
 10
155.1245781716819
 20
101.2212510091405
 30
0
  0
VERTEX
  5
6B
  8
0
  6
BYLAYER
 62
  256
 10
153.2706312527201
 20
104.0903983653728
 30
0
 42
0.2096601661549222
  0
VERTEX
  5
6C
  8
0
  6
BYLAYER
 62
  256
 10
151.9300671066475
 20
104.9759683189534
 30
0
  0
VERTEX
  5
6D
  8
0
  6
BYLAYER
 62
  256
 10
148.5635940139519
 20
105.5554197944774
 30
0
 42
-0.1975130730975569
  0
VERTEX
  5
6E
  8
0
  6
BYLAYER
 62
  256
 10
147.2754799239322
 20
106.3638284479858
 30
0
  0
VERTEX
  5
6F
  8
0
  6
BYLAYER
 62
  256
 10
145.2897390379573
 20
109.1433937421336
 30
0
 42
0.2096600861878926
  0
VERTEX
  5
70
  8
0
  6
BYLAYER
 62
  256
 10
143.9093336179988
 20
109.9654797751491
 30
0
  0
VERTEX
  5
71
  8
0
  6
BYLAYER
 62
  256
 10
140.5194979909054
 20
110.3872988925822
 30
0
 42
-0.1975129867204861
  0
VERTEX
  5
72
  8
0
  6
BYLAYER
 62
  256
 10
139.1950841800926
 20
111.1347536716527
 30
0
  0
VERTEX
  5
73
  8
0
  6
BYLAYER
 62
  256
 10
137.0818703271043
 20
113.8186877966167
 30
0
 42
0.2096600019011296
  0
VERTEX
  5
74
  8
0
  6
BYLAYER
 62
  256
 10
135.664627717565
 20
114.5755008872369
 30
0
  0
VERTEX
  5
75
  8
0
  6
BYLAYER
 62
  256
 10
132.2588062804609
 20
114.8387695087065
 30
0
 42
-0.1975128958965778
  0
VERTEX
  5
76
  8
0
  6
BYLAYER
 62
  256
 10
130.9009749896302
 20
115.5236438091459
 30
0
  0
VERTEX
  5
77
  8
0
  6
BYLAYER
 62
  256
 10
128.3658731191799
 20
118.4514368470821
 30
0
 42
0.104228556179958
  0
VERTEX
  5
78
  8
0
  6
BYLAYER
 62
  256
 10
127.7089355389495
 20
118.9502747833904
 30
0
 42
0.06202534784075871
  0
VERTEX
  5
79
  8
0
  6
BYLAYER
 62
  256
 10
80.0882995318137
 20
134.6177986176282
 30
0
 42
0.1773466634451886
  0
VERTEX
  5
7A
  8
0
  6
BYLAYER
 62
  256
 10
73.2954230348528
 20
133.541885606377
 30
0
  0
VERTEX
  5
7B
  8
0
  6
BYLAYER
 62
  256
 10
63.25453547222558
 20
127.9500940170343
 30
0
 42
-0.2174151564117153
  0
VERTEX
  5
7C
  8
0
  6
BYLAYER
 62
  256
 10
51.66851318176487
 20
127.0187209559372
 30
0
 42
-3.636029430003554e-006
  0
VERTEX
  5
7D
  8
0
  6
BYLAYER
 62
  256
 10
46.1482920931594
 20
129.0203355270898
 30
0
 42
0.1949342117762904
  0
VERTEX
  5
7E
  8
0
  6
BYLAYER
 62
  256
 10
40.61404551687928
 20
128.8172271072105
 30
0
 42
0.1946559291364972
  0
VERTEX
  5
7F
  8
0
  6
BYLAYER
 62
  256
 10
36.78205548584407
 20
124.8212541938779
 30
0
  0
VERTEX
  5
80
  8
0
  6
BYLAYER
 62
  256
 10
36.78205548584407
 20
124.8212541938781
 30
0
 42
0.07128644921009472
  0
VERTEX
  5
81
  8
0
  6
BYLAYER
 62
  256
 10
27.19725873126302
 20
85.09453351655355
 30
0
  0
VERTEX
  5
82
  8
0
  6
BYLAYER
 62
  256
 10
26.746112908093
 20
80.33024473066784
 30
0
 42
-0.6030083073354328
  0
VERTEX
  5
83
  8
0
  6
BYLAYER
 62
  256
 10
17.07477103782334
 20
75.95958813730441
 30
0
  0
VERTEX
  5
84
  8
0
  6
BYLAYER
 62
  256
 10
11.18929808626175
 20
80.53496718875249
 30
0
 42
0.6307829792371913
  0
VERTEX
  5
85
  8
0
  6
BYLAYER
 62
  256
 10
7.311693825995642
 20
78.59113389776068
 30
0
 42
0.271481743494555
  0
VERTEX
  5
86
  8
0
  6
BYLAYER
 62
  256
 10
11.55575623267042
 20
71.47152103799104
 30
0
 42
0.2714817434945546
  0
VERTEX
  5
87
  8
0
  6
BYLAYER
 62
  256
 10
7.310183509541586
 20
64.35280870798556
 30
0
 42
0.6307829792371885
  0
VERTEX
  5
88
  8
0
  6
BYLAYER
 62
  256
 10
11.18737530211306
 20
62.40815283456777
 30
0
  0
VERTEX
  5
89
  8
0
  6
BYLAYER
 62
  256
 10
17.07381877895919
 20
66.98228319146497
 30
0
 42
-0.603008307335433
  0
VERTEX
  5
8A
  8
0
  6
BYLAYER
 62
  256
 10
26.74423320533269
 20
62.60957494017158
 30
0
  0
VERTEX
  5
8B
  8
0
  6
BYLAYER
 62
  256
 10
27.19436828379168
 20
57.84519055179366
 30
0
 42
0.07128644921009472
  0
VERTEX
  5
8C
  8
0
  6
BYLAYER
 62
  256
 10
36.77073687649741
 20
18.11643737254793
 30
0
  0
VERTEX
  5
8D
  8
0
  6
BYLAYER
 62
  256
 10
36.77073687649744
 20
18.1164373725478
 30
0
 42
0.1946559291364967
  0
VERTEX
  5
8E
  8
0
  6
BYLAYER
 62
  256
 10
40.60187908345254
 20
14.11965159993907
 30
0
 42
0.1949342117762909
  0
VERTEX
  5
8F
  8
0
  6
BYLAYER
 62
  256
 10
46.13608244655188
 20
13.91536910505965
 30
0
 42
-3.636029430003554e-006
  0
VERTEX
  5
90
  8
0
  6
BYLAYER
 62
  256
 10
51.65672804930364
 20
15.91581252718985
 30
0
 42
-0.2174151564117155
  0
VERTEX
  5
91
  8
0
  6
BYLAYER
 62
  256
 10
63.24255248990202
 20
14.98198153488648
 30
0
  0
VERTEX
  5
92
  8
0
  6
BYLAYER
 62
  256
 10
73.28225353891315
 20
9.388059916696752
 30
0
 42
0.1773466634451884
  0
VERTEX
  5
93
  8
0
  6
BYLAYER
 62
  256
 10
80.07490163016743
 20
8.31070583417835
 30
0
 42
0.06202534784075871
  0
VERTEX
  5
94
  8
0
  6
BYLAYER
 62
  256
 10
127.6988604002521
 20
23.96812669094285
 30
0
 42
0.104228556179958
  0
VERTEX
  5
95
  8
0
  6
BYLAYER
 62
  256
 10
128.3559037931929
 20
24.46682524800119
 30
0
  0
VERTEX
  5
96
  8
0
  6
BYLAYER
 62
  256
 10
130.8916267321682
 20
27.39408040314268
 30
0
 42
-0.1975128958965788
  0
VERTEX
  5
97
  8
0
  6
BYLAYER
 62
  256
 10
132.249603287188
 20
28.07866662691426
 30
0
  0
VERTEX
  5
98
  8
0
  6
BYLAYER
 62
  256
 10
135.6554804995733
 20
28.34121270409489
 30
0
 42
0.2096600019011306
  0
VERTEX
  5
99
  8
0
  6
BYLAYER
 62
  256
 10
137.0728836336386
 20
29.09772511243322
 30
0
  0
VERTEX
  5
9A
  8
0
  6
BYLAYER
 62
  256
 10
139.1866668304538
 20
31.78121086280887
 30
0
 42
-0.1975129867204848
  0
VERTEX
  5
9B
  8
0
  6
BYLAYER
 62
  256
 10
140.5112391825341
 20
32.52838465325641
 30
0
  0
VERTEX
  5
9C
  8
0
  6
BYLAYER
 62
  256
 10
143.9011642214464
 20
32.94948461419098
 30
0
 42
0.2096600861878932
  0
VERTEX
  5
9D
  8
0
  6
BYLAYER
 62
  256
 10
145.281744014287
 20
33.77127777839358
 30
0
  0
VERTEX
  5
9E
  8
0
  6
BYLAYER
 62
  256
 10
147.2680745349233
 20
36.55042173894194
 30
0
 42
-0.1975130730975583
  0
VERTEX
  5
9F
  8
0
  6
BYLAYER
 62
  256
 10
148.5563600982725
 20
37.35855710337056
 30
0
  0
VERTEX
  5
A0
  8
0
  6
BYLAYER
 62
  256
 10
151.9229560447097
 20
37.93729437516479
 30
0
 42
0.2096601661549218
  0
VERTEX
  5
A1
  8
0
  6
BYLAYER
 62
  256
 10
153.2637080325507
 20
38.8225799107523
 30
0
  0
VERTEX
  5
A2
  8
0
  6
BYLAYER
 62
  256
 10
155.1182635937991
 20
41.69133389120189
 30
0
 42
-0.1975131548398251
  0
VERTEX
  5
A3
  8
0
  6
BYLAYER
 62
  256
 10
156.3674587515131
 20
42.55867216919659
 30
0
  0
VERTEX
  5
A4
  8
0
  6
BYLAYER
 62
  256
 10
159.7033994660534
 20
43.29378716204307
 30
0
 42
0.2096602416281853
  0
VERTEX
  5
A5
  8
0
  6
BYLAYER
 62
  256
 10
161.0014058602531
 20
44.24063850992841
 30
0
  0
VERTEX
  5
A6
  8
0
  6
BYLAYER
 62
  256
 10
162.7201509555734
 20
47.19275934828317
 30
0
 42
-0.1975132317693637
  0
VERTEX
  5
A7
  8
0
  6
BYLAYER
 62
  256
 10
163.9275371610287
 20
48.11741303898028
 30
0
  0
VERTEX
  5
A8
  8
0
  6
BYLAYER
 62
  256
 10
167.6665850100984
 20
49.12630498836711
 30
0
 42
0.1042294315126292
  0
VERTEX
  5
A9
  8
0
  6
BYLAYER
 62
  256
 10
168.4015459978667
 20
49.50080438791551
 30
0
 42
0.005692624657014215
  0
VERTEX
  5
AA
  8
0
  6
BYLAYER
 62
  256
 10
172.0387788829908
 20
52.50640485976431
 30
0
 42
-2.018919279332304
  0
VERTEX
  5
AB
  8
0
  6
BYLAYER
 62
  256
 10
172.1391833541038
 20
38.18827933252494
 30
0
 42
-1.000000000000006
  0
VERTEX
  5
AC
  8
0
  6
BYLAYER
 62
  256
 10
174.5407784091291
 20
41.38708241988103
 30
0
 42
2.000000000000035
  0
VERTEX
  5
AD
  8
0
  6
BYLAYER
 62
  256
 10
174.5447667923416
 20
49.38708142568018
 30
0
 42
-0.1240974609032127
  0
VERTEX
  5
AE
  8
0
  6
BYLAYER
 62
  256
 10
83.70789324301998
 20
4.968289076803273
 30
0
  0
VERTEX
  5
AF
  8
0
  6
BYLAYER
 62
  256
 10
79.85425125054232
 20
4.066589696631199
 30
0
 42
-0.01816555811659532
  0
VERTEX
  5
B0
  8
0
  6
BYLAYER
 62
  256
 10
79.14142829270048
 20
3.926893052894056
 30
0
 42
0.9999999999999997
  0
VERTEX
  5
B1
  8
0
  6
BYLAYER
 62
  256
 10
79.14111649623376
 20
2.457181382783432
 30
0
  0
VERTEX
  5
B2
  8
0
  6
BYLAYER
 62
  256
 10
81.17345705348947
 20
2.456254042496653
 30
0
 42
-0.7606118229890888
  0
VERTEX
  5
B3
  8
0
  6
BYLAYER
 62
  256
 10
81.38076276680604
 20
1.475341077883535
 30
0
 42
-0.2726054921913207
  0
VERTEX
  5
B4
  8
0
  6
BYLAYER
 62
  256
 10
74.17999999999999
 20
1.338194761901105
 30
0
 42
-0.2166808083927586
  0
VERTEX
  5
B5
  8
0
  6
BYLAYER
 62
  256
 10
73.20347931476759
 20
2.67527469513044
 30
0
  0
VERTEX
  5
B6
  8
0
  6
BYLAYER
 62
  256
 10
72.89380361610533
 20
4.171918855837818
 30
0
 42
0.2179529438991352
  0
VERTEX
  5
B7
  8
0
  6
BYLAYER
 62
  256
 10
71.90880531331872
 20
5.513749771873194
 30
0
  0
VERTEX
  5
B8
  8
0
  6
BYLAYER
 62
  256
 10
61.25225374822173
 20
11.45186404746257
 30
0
 42
0.2173816340427216
  0
VERTEX
  5
B9
  8
0
  6
BYLAYER
 62
  256
 10
53.03932615544181
 20
12.11391957179876
 30
0
 42
3.668205318180039e-006
  0
VERTEX
  5
BA
  8
0
  6
BYLAYER
 62
  256
 10
47.5186778725183
 20
10.113476150622
 30
0
 42
-0.1949490859027099
  0
VERTEX
  5
BB
  8
0
  6
BYLAYER
 62
  256
 10
38.9276573003865
 20
10.43443901371591
 30
0
 42
-0.1948244713992429
  0
VERTEX
  5
BC
  8
0
  6
BYLAYER
 62
  256
 10
32.97978922119162
 20
16.64066306214495
 30
0
 42
-0.03433026976754955
  0
VERTEX
  5
BD
  8
0
  6
BYLAYER
 62
  256
 10
26.79687559284207
 20
35.88116744259052
 30
0
 42
0.4985945917980138
  0
VERTEX
  5
BE
  8
0
  6
BYLAYER
 62
  256
 10
20.92068764630402
 20
38.38957133154516
 30
0
  0
VERTEX
  5
BF
  8
0
  6
BYLAYER
 62
  256
 10
10.14547755551899
 20
32.19737479920239
 30
0
 42
0.1635410776657691
  0
VERTEX
  5
C0
  8
0
  6
BYLAYER
 62
  256
 10
9.722979214174419
 20
31.72048683039662
 30
0
  0
VERTEX
  5
C1
  8
0
  6
BYLAYER
 62
  256
 10
8.3795096643773
 20
28.66599039657083
 30
0
 42
-0.640654132799615
  0
VERTEX
  5
C2
  8
0
  6
BYLAYER
 62
  256
 10
6.768728239127101
 20
28.59262010238496
 30
0
  0
VERTEX
  5
C3
  8
0
  6
BYLAYER
 62
  256
 10
6.599804006538983
 20
28.9373860764782
 30
0
 42
0.4318651340149263
  0
VERTEX
  5
C4
  8
0
  6
BYLAYER
 62
  256
 10
5.206250463407222
 20
29.35894616397918
 30
0
  0
VERTEX
  5
C5
  8
0
  6
BYLAYER
 62
  256
 10
4.511788294492126
 20
28.95985916725526
 30
0
 42
0.3718348653119432
  0
VERTEX
  5
C6
  8
0
  6
BYLAYER
 62
  256
 10
3.961713202430929
 20
27.3871546865513
 30
0
 42
0.000135530305352563
  0
VERTEX
  5
C7
  8
0
  6
BYLAYER
 62
  256
 10
4.073023063957166
 20
27.10795074958874
 30
0
 42
0.003466770905789422
  0
VERTEX
  5
C8
  8
0
  6
BYLAYER
 62
  256
 10
4.465623254896015
 20
26.14231402836037
 30
0
 42
-0.4142385902997752
  0
VERTEX
  5
C9
  8
0
  6
BYLAYER
 62
  256
 10
3.544277400477243
 20
23.79138402617358
 30
0
 42
-0.4144220932559705
  0
VERTEX
  5
CA
  8
0
  6
BYLAYER
 62
  256
 10
1.196479713278578
 20
24.71248296321342
 30
0
 42
-0.008943230999717352
  0
VERTEX
  5
CB
  8
0
  6
BYLAYER
 62
  256
 10
0.3035969748557497
 20
26.96888112837328
 30
0
 42
-0.3672405695660074
  0
SEQEND
  5
CC
  8
0
  6
BYLAYER
 62
  256
  0
ENDSEC
  0
EOF
