999
dxfrw 0.6.3
  0
SECTION
  2
HEADER
  9
$ACADVER
  1
AC1009
  9
$DWGCODEPAGE
  3
ANSI_1252
  9
$INSBASE
 10
0
 20
0
 30
0
  9
$EXTMIN
 10
0.7108386833316782
 20
-0.03486598544332509
 30
0
  9
$EXTMAX
 10
220.289161193631
 20
358.0348659854433
 30
0
  9
$LIMMIN
 10
0
 20
0
  9
$LIMMAX
 10
420
 20
297
  9
$ORTHOMODE
 70
    0
  9
$REGENMODE
 70
    1
  9
$FILLMODE
 70
    1
  9
$QTEXTMODE
 70
    0
  9
$MIRRTEXT
 70
    0
  9
$DRAGMODE
 70
    2
  9
$LTSCALE
 40
1
  9
$OSMODE
 70
    0
  9
$ATTMODE
 70
    0
  9
$TEXTSIZE
 40
2.5
  9
$TRACEWID
 40
15.68
  9
$TEXTSTYLE
  7
STANDARD
  9
$CLAYER
  8
0
  9
$CELTYPE
  6
BYLAYER
  9
$CECOLOR
 62
  256
  9
$DIMSCALE
 40
2.5
  9
$DIMASZ
 40
2.5
  9
$DIMEXO
 40
0.625
  9
$DIMDLI
 40
3.75
  9
$DIMRND
 40
0
  9
$DIMDLE
 40
0
  9
$DIMEXE
 40
1.25
  9
$DIMTP
 40
0
  9
$DIMTM
 40
0
  9
$DIMTXT
 40
2.5
  9
$DIMCEN
 40
2.5
  9
$DIMTSZ
 40
0
  9
$DIMTOL
 70
    0
  9
$DIMLIM
 70
    0
  9
$DIMTIH
 70
    0
  9
$DIMTOH
 70
    0
  9
$DIMSE1
 70
    0
  9
$DIMSE2
 70
    0
  9
$DIMTAD
 70
    1
  9
$DIMZIN
 70
    8
  9
$DIMBLK
  1

  9
$DIMASO
 70
    1
  9
$DIMSHO
 70
    1
  9
$DIMPOST
  1

  9
$DIMAPOST
  1

  9
$DIMALT
 70
    0
  9
$DIMALTD
 70
    3
  9
$DIMALTF
 40
0.03937
  9
$DIMLFAC
 40
1
  9
$DIMTOFL
 70
    1
  9
$DIMTVP
 40
0
  9
$DIMTIX
 70
    0
  9
$DIMSOXD
 70
    0
  9
$DIMSAH
 70
    0
  9
$DIMBLK1
  1

  9
$DIMBLK2
  1

  9
$DIMSTYLE
  2
STANDARD
  9
$DIMCLRD
 70
    0
  9
$DIMCLRE
 70
    0
  9
$DIMCLRT
 70
    0
  9
$DIMTFAC
 40
1
  9
$DIMGAP
 40
0.625
  9
$LUNITS
 70
    2
  9
$LUPREC
 70
    4
  9
$SKETCHINC
 40
1
  9
$FILLETRAD
 40
0
  9
$AUNITS
 70
    0
  9
$AUPREC
 70
    2
  9
$MENU
  1
.
  9
$ELEVATION
 40
0
  9
$PELEVATION
 40
0
  9
$THICKNESS
 40
0
  9
$LIMCHECK
 70
    0
  9
$BLIPMODE
 70
    0
  9
$CHAMFERA
 40
0
  9
$CHAMFERB
 40
0
  9
$SKPOLY
 70
    0
  9
$USRTIMER
 70
    1
  9
$ANGBASE
 50
0
  9
$ANGDIR
 70
    0
  9
$PDMODE
 70
   34
  9
$PDSIZE
 40
0
  9
$PLINEWID
 40
0
  9
$COORDS
 70
    2
  9
$SPLFRAME
 70
    0
  9
$SPLINETYPE
 70
    2
  9
$SPLINESEGS
 70
    8
  9
$ATTDIA
 70
    1
  9
$ATTREQ
 70
    1
  9
$HANDLING
 70
    1
  9
$HANDSEED
  5
20000
  9
$SURFTAB1
 70
    6
  9
$SURFTAB2
 70
    6
  9
$SURFTYPE
 70
    6
  9
$SURFU
 70
    6
  9
$SURFV
 70
    6
  9
$UCSNAME
  2

  9
$UCSORG
 10
0
 20
0
 30
0
  9
$UCSXDIR
 10
1
 20
0
 30
0
  9
$UCSYDIR
 10
0
 20
1
 30
0
  9
$PUCSNAME
  2

  9
$PUCSORG
 10
0
 20
0
 30
0
  9
$PUCSXDIR
 10
1
 20
0
 30
0
  9
$PUCSYDIR
 10
0
 20
1
 30
0
  9
$USERI1
 70
    0
  9
$USERI2
 70
    0
  9
$USERI3
 70
    0
  9
$USERI4
 70
    0
  9
$USERI5
 70
    0
  9
$USERR1
 40
0
  9
$USERR2
 40
0
  9
$USERR3
 40
0
  9
$USERR4
 40
0
  9
$USERR5
 40
0
  9
$WORLDVIEW
 70
    1
  9
$SHADEDGE
 70
    3
  9
$SHADEDIF
 70
   70
  9
$TILEMODE
 70
    1
  9
$MAXACTVP
 70
   64
  9
$PLIMCHECK
 70
    0
  9
$PEXTMIN
 10
0
 20
0
 30
0
  9
$PEXTMAX
 10
0
 20
0
 30
0
  9
$GRIDMODE
 70
    1
  9
$SNAPSTYLE
 70
    0
  9
$PLIMMIN
 10
0
 20
0
  9
$PLIMMAX
 10
210
 20
297
  9
$UNITMODE
 70
    0
  9
$VISRETAIN
 70
    1
  9
$PLINEGEN
 70
    0
  9
$PSLTSCALE
 70
    1
  0
ENDSEC
  0
SECTION
  2
TABLES
  0
TABLE
  2
VPORT
 70
    1
  0
VPORT
  2
*ACTIVE
 70
    0
 10
0
 20
0
 11
1
 21
1
 12
459.5195757510147
 22
365.3688826984204
 13
0
 23
0
 14
10
 24
10
 15
10
 25
10
 16
0
 26
0
 36
1
 17
0
 27
0
 37
0
 40
863.40465106186
 41
1.478314745972739
 42
50
 43
0
 44
0
 50
0
 51
0
 71
    0
 72
  100
 73
    1
 74
    3
 75
    0
 76
    1
 77
    0
 78
    0
  0
ENDTAB
  0
TABLE
  2
LTYPE
 70
    4
  0
LTYPE
  2
BYBLOCK
 70
    0
  3

 72
   65
 73
    0
 40
0
  0
LTYPE
  2
BYLAYER
 70
    0
  3

 72
   65
 73
    0
 40
0
  0
LTYPE
  2
CONTINUOUS
 70
    0
  3
Solid line
 72
   65
 73
    0
 40
0
  0
LTYPE
  2
DOT
 70
    0
  3
Dot . . . . . . . . . . . . . . . . . . . . . .
 72
   65
 73
    2
 40
6.35
 49
0
 49
-6.35
  0
LTYPE
  2
DOTTINY
 70
    0
  3
Dot (.15x) .....................................
 72
   65
 73
    2
 40
0.9525
 49
0
 49
-0.9525
  0
LTYPE
  2
DOT2
 70
    0
  3
Dot (.5x) .....................................
 72
   65
 73
    2
 40
3.175
 49
0
 49
-3.175
  0
LTYPE
  2
DOTX2
 70
    0
  3
Dot (2x) .  .  .  .  .  .  .  .  .  .  .  .  .
 72
   65
 73
    2
 40
12.7
 49
0
 49
-12.7
  0
LTYPE
  2
DASHED
 70
    0
  3
Dashed _ _ _ _ _ _ _ _ _ _ _ _ _ _ _ _ _
 72
   65
 73
    2
 40
19.05
 49
12.7
 49
-6.35
  0
LTYPE
  2
DASHEDTINY
 70
    0
  3
Dashed (.15x) _ _ _ _ _ _ _ _ _ _ _ _ _ _ _ _ _
 72
   65
 73
    2
 40
2.8575
 49
1.905
 49
-0.9525
  0
LTYPE
  2
DASHED2
 70
    0
  3
Dashed (.5x) _ _ _ _ _ _ _ _ _ _ _ _ _ _ _ _ _
 72
   65
 73
    2
 40
9.524999999999999
 49
6.35
 49
-3.175
  0
LTYPE
  2
DASHEDX2
 70
    0
  3
Dashed (2x) ____  ____  ____  ____  ____  ___
 72
   65
 73
    2
 40
38.09999999999999
 49
25.4
 49
-12.7
  0
LTYPE
  2
DASHDOT
 70
    0
  3
Dash dot __ . __ . __ . __ . __ . __ . __ . __
 72
   65
 73
    4
 40
25.4
 49
12.7
 49
-6.35
 49
0
 49
-6.35
  0
LTYPE
  2
DASHDOTTINY
 70
    0
  3
Dash dot (.15x) _._._._._._._._._._._._._._._.
 72
   65
 73
    4
 40
3.81
 49
1.905
 49
-0.9525
 49
0
 49
-0.9525
  0
LTYPE
  2
DASHDOT2
 70
    0
  3
Dash dot (.5x) _._._._._._._._._._._._._._._.
 72
   65
 73
    4
 40
12.7
 49
6.35
 49
-3.175
 49
0
 49
-3.175
  0
LTYPE
  2
DASHDOTX2
 70
    0
  3
Dash dot (2x) ____  .  ____  .  ____  .  ___
 72
   65
 73
    4
 40
50.8
 49
25.4
 49
-12.7
 49
0
 49
-12.7
  0
LTYPE
  2
DIVIDE
 70
    0
  3
Divide ____ . . ____ . . ____ . . ____ . . ____
 72
   65
 73
    6
 40
31.75
 49
12.7
 49
-6.35
 49
0
 49
-6.35
 49
0
 49
-6.35
  0
LTYPE
  2
DIVIDETINY
 70
    0
  3
Divide (.15x) __..__..__..__..__..__..__..__.._
 72
   65
 73
    6
 40
4.7625
 49
1.905
 49
-0.9525
 49
0
 49
-0.9525
 49
0
 49
-0.9525
  0
LTYPE
  2
DIVIDE2
 70
    0
  3
Divide (.5x) __..__..__..__..__..__..__..__.._
 72
   65
 73
    6
 40
15.875
 49
6.35
 49
-3.175
 49
0
 49
-3.175
 49
0
 49
-3.175
  0
LTYPE
  2
DIVIDEX2
 70
    0
  3
Divide (2x) ________  .  .  ________  .  .  _
 72
   65
 73
    6
 40
63.5
 49
25.4
 49
-12.7
 49
0
 49
-12.7
 49
0
 49
-12.7
  0
LTYPE
  2
BORDER
 70
    0
  3
Border __ __ . __ __ . __ __ . __ __ . __ __ .
 72
   65
 73
    6
 40
44.45
 49
12.7
 49
-6.35
 49
12.7
 49
-6.35
 49
0
 49
-6.35
  0
LTYPE
  2
BORDERTINY
 70
    0
  3
Border (.15x) __.__.__.__.__.__.__.__.__.__.__.
 72
   65
 73
    6
 40
6.6675
 49
1.905
 49
-0.9525
 49
1.905
 49
-0.9525
 49
0
 49
-0.9525
  0
LTYPE
  2
BORDER2
 70
    0
  3
Border (.5x) __.__.__.__.__.__.__.__.__.__.__.
 72
   65
 73
    6
 40
22.225
 49
6.35
 49
-3.175
 49
6.35
 49
-3.175
 49
0
 49
-3.175
  0
LTYPE
  2
BORDERX2
 70
    0
  3
Border (2x) ____  ____  .  ____  ____  .  ___
 72
   65
 73
    6
 40
88.89999999999999
 49
25.4
 49
-12.7
 49
25.4
 49
-12.7
 49
0
 49
-12.7
  0
LTYPE
  2
CENTER
 70
    0
  3
Center ____ _ ____ _ ____ _ ____ _ ____ _ ____
 72
   65
 73
    4
 40
50.8
 49
31.75
 49
-6.35
 49
6.35
 49
-6.35
  0
LTYPE
  2
CENTERTINY
 70
    0
  3
Center (.15x) ___ _ ___ _ ___ _ ___ _ ___ _ ___
 72
   65
 73
    4
 40
7.619999999999999
 49
4.7625
 49
-0.9525
 49
0.9525
 49
-0.9525
  0
LTYPE
  2
CENTER2
 70
    0
  3
Center (.5x) ___ _ ___ _ ___ _ ___ _ ___ _ ___
 72
   65
 73
    4
 40
28.575
 49
19.05
 49
-3.175
 49
3.175
 49
-3.175
  0
LTYPE
  2
CENTERX2
 70
    0
  3
Center (2x) ________  __  ________  __  _____
 72
   65
 73
    4
 40
101.6
 49
63.5
 49
-12.7
 49
12.7
 49
-12.7
  0
ENDTAB
  0
TABLE
  2
LAYER
 70
    1
  0
LAYER
  2
0
 70
    0
 62
    7
  6
CONTINUOUS
  0
LAYER
  2
DRAFT
 70
    0
 62
    7
  6
CONTINUOUS
  0
ENDTAB
  0
TABLE
  2
STYLE
 70
    3
  0
STYLE
  2
STANDARD
 70
    0
 40
0
 41
1
 50
0
 71
    0
 42
1
  3
TXT
  4

  0
ENDTAB
  0
TABLE
  2
VIEW
 70
    0
  0
ENDTAB
  0
TABLE
  2
UCS
 70
    0
  0
ENDTAB
  0
TABLE
  2
APPID
 70
    1
  0
APPID
  2
ACAD
 70
    0
  0
APPID
  2
LIBRECAD
 70
    0
  0
ENDTAB
  0
TABLE
  2
DIMSTYLE
 70
    1
  0
DIMSTYLE
  2
STANDARD
 70
    0
  3

  4

  5

  6

  7

 40
2.5
 41
2.5
 42
0.625
 43
0.38
 44
1.25
 45
0
 46
0
 47
0
 48
0
 49
1
140
2.5
141
0.09
142
0
143
25.4
144
1
145
0
146
1
147
0.625
 71
    0
 72
    0
 73
    0
 74
    1
 75
    0
 76
    0
 77
    0
 78
    8
170
    0
171
    2
172
    0
173
    0
174
    0
175
    0
176
    0
177
    0
178
    0
  0
ENDTAB
  0
ENDSEC
  0
SECTION
  2
BLOCKS
  0
BLOCK
  8
0
  2
$MODEL_SPACE
 70
    0
 10
0
 20
0
 30
0
  3
$MODEL_SPACE
  1

  0
ENDBLK
  8
0
  0
BLOCK
  8
0
  2
$PAPER_SPACE
 70
    0
 10
0
 20
0
 30
0
  3
$PAPER_SPACE
  1

  0
ENDBLK
  8
0
  0
ENDSEC
  0
SECTION
  2
ENTITIES
  0
LINE
  5
31
  8
0
  6
BYLAYER
 62
  256
 10
36.32629925317366
 20
126.3497331558869
 11
36.32629925317369
 21
126.349733155887
  0
POLYLINE
  5
32
  8
0
  6
BYLAYER
 62
  256
 66
    1
 10
0
 20
0
 30
0
 70
    1
  0
VERTEX
  5
33
  8
0
  6
BYLAYER
 62
  256
 10
36.34157712000035
 20
19.66067287951102
 30
0
  0
SEQEND
  5
34
  8
0
  6
BYLAYER
 62
  256
  0
POLYLINE
  5
35
  8
0
  6
BYLAYER
 62
  256
 66
    1
 10
0
 20
0
 30
0
 70
    0
  0
VERTEX
  5
36
  8
0
  6
BYLAYER
 62
  256
 10
3.000000123037331
 20
70.99914080038906
 30
0
  0
VERTEX
  5
37
  8
0
  6
BYLAYER
 62
  256
 10
2.858705937025304
 20
63.95787916033413
 30
0
 42
0.6307829792372016
  0
VERTEX
  5
38
  8
0
  6
BYLAYER
 62
  256
 10
13.19206483622846
 20
58.78148863616018
 30
0
  0
VERTEX
  5
39
  8
0
  6
BYLAYER
 62
  256
 10
19.07622715844557
 20
63.35855309865093
 30
0
 42
-0.6030083073354373
  0
VERTEX
  5
3A
  8
0
  6
BYLAYER
 62
  256
 10
22.30042490148077
 20
61.90259091763286
 30
0
 42
0.02434037690786563
  0
VERTEX
  5
3B
  8
0
  6
BYLAYER
 62
  256
 10
23.88114772303798
 20
47.59677511990019
 30
0
 42
-0.290063674299161
  0
VERTEX
  5
3C
  8
0
  6
BYLAYER
 62
  256
 10
21.72720224303781
 20
42.58381367989995
 30
0
  0
VERTEX
  5
3D
  8
0
  6
BYLAYER
 62
  256
 10
2.387757567037717
 20
29.34346127989994
 30
0
 42
0.367240569566007
  0
VERTEX
  5
3E
  8
0
  6
BYLAYER
 62
  256
 10
1.082827779037878
 20
24.57128175989997
 30
0
 42
0.008943230999717352
  0
VERTEX
  5
3F
  8
0
  6
BYLAYER
 62
  256
 10
2.150640547037689
 20
22.39221127989997
 30
0
 42
0.414422093255966
  0
VERTEX
  5
40
  8
0
  6
BYLAYER
 62
  256
 10
4.563687355037681
 20
21.65887483989998
 30
0
 42
0.4142385902997757
  0
VERTEX
  5
41
  8
0
  6
BYLAYER
 62
  256
 10
5.297023259037644
 20
24.07506367990018
 30
0
 42
-0.0034667709057892
  0
VERTEX
  5
42
  8
0
  6
BYLAYER
 62
  256
 10
4.829593471036617
 20
25.00678175990103
 30
0
 42
-0.000135530305352563
  0
VERTEX
  5
43
  8
0
  6
BYLAYER
 62
  256
 10
4.696640547036825
 20
25.27635223990097
 30
0
 42
-0.371834865311942
  0
VERTEX
  5
44
  8
0
  6
BYLAYER
 62
  256
 10
5.121148259037776
 20
26.88749319989989
 30
0
  0
VERTEX
  5
45
  8
0
  6
BYLAYER
 62
  256
 10
5.782023190800465
 20
27.34003320871244
 30
0
 42
-0.4318651340149227
  0
VERTEX
  5
46
  8
0
  6
BYLAYER
 62
  256
 10
7.204448420788687
 20
27.02953224246292
 30
0
  0
VERTEX
  5
47
  8
0
  6
BYLAYER
 62
  256
 10
7.400000123037327
 20
26.69914080038906
 30
0
 42
0.6406541327996248
  0
VERTEX
  5
48
  8
0
  6
BYLAYER
 62
  256
 10
9.000000123037333
 20
26.89914080038906
 30
0
  0
VERTEX
  5
49
  8
0
  6
BYLAYER
 62
  256
 10
10.09873900166313
 20
30.04995526209305
 30
0
 42
-0.1635410776657718
  0
VERTEX
  5
4A
  8
0
  6
BYLAYER
 62
  256
 10
10.48236759193503
 20
30.55863599492709
 30
0
  0
VERTEX
  5
4B
  8
0
  6
BYLAYER
 62
  256
 10
19.03725676303769
 20
36.41667271989991
 30
0
 42
-0.2436677787623327
  0
VERTEX
  5
4C
  8
0
  6
BYLAYER
 62
  256
 10
23.69794560303771
 20
36.98460223989985
 30
0
 42
-0.2435153206128367
  0
VERTEX
  5
4D
  8
0
  6
BYLAYER
 62
  256
 10
26.84799080303773
 20
33.50007963990021
 30
0
 42
0.03096575169187361
  0
VERTEX
  5
4E
  8
0
  6
BYLAYER
 62
  256
 10
32.55136580303776
 20
16.1821495839
 30
0
 42
0.1948244713992431
  0
VERTEX
  5
4F
  8
0
  6
BYLAYER
 62
  256
 10
38.50232724303767
 20
9.978891603899918
 30
0
 42
0.1949490859027101
  0
VERTEX
  5
50
  8
0
  6
BYLAYER
 62
  256
 10
47.09350676293252
 20
9.662211815884802
 30
0
 42
-3.668205318069017e-06
  0
VERTEX
  5
51
  8
0
  6
BYLAYER
 62
  256
 10
52.61315704263777
 20
11.66540729586739
 30
0
 42
-0.2173816340427223
  0
VERTEX
  5
52
  8
0
  6
BYLAYER
 62
  256
 10
60.82641368136771
 20
11.00744639192015
 30
0
  0
VERTEX
  5
53
  8
0
  6
BYLAYER
 62
  256
 10
70.71048140506983
 20
5.506236622082042
 30
0
 42
-0.07799831033370107
  0
VERTEX
  5
54
  8
0
  6
BYLAYER
 62
  256
 10
73.15352045146244
 20
3.596217595428285
 30
0
  0
VERTEX
  5
55
  8
0
  6
BYLAYER
 62
  256
 10
75.19677728121349
 20
1.409770013774475
 30
0
 42
0.3096887855888146
  0
VERTEX
  5
56
  8
0
  6
BYLAYER
 62
  256
 10
83.20779484269121
 20
1.018331309507298
 30
0
 42
0.760611822989085
  0
VERTEX
  5
57
  8
0
  6
BYLAYER
 62
  256
 10
83.00000012303732
 20
1.999140800389057
 30
0
  0
VERTEX
  5
58
  8
0
  6
BYLAYER
 62
  256
 10
81.00000012303732
 20
1.999140800389057
 30
0
 42
-0.7677543333594768
  0
VERTEX
  5
59
  8
0
  6
BYLAYER
 62
  256
 10
81.00000012303732
 20
3.999140800389057
 30
0
  0
VERTEX
  5
5A
  8
0
  6
BYLAYER
 62
  256
 10
83.28528275818786
 20
4.535067438957327
 30
0
 42
0.1240974609032127
  0
VERTEX
  5
5B
  8
0
  6
BYLAYER
 62
  256
 10
174.1000001230371
 20
48.99914080038854
 30
0
 42
-2.000000000000048
  0
VERTEX
  5
5C
  8
0
  6
BYLAYER
 62
  256
 10
174.1000001230373
 20
40.99914080038905
 30
0
 42
1.000000000000006
  0
VERTEX
  5
5D
  8
0
  6
BYLAYER
 62
  256
 10
171.7000001230373
 20
37.799140800389
 30
0
 42
2.018919279332302
  0
VERTEX
  5
5E
  8
0
  6
BYLAYER
 62
  256
 10
171.5924573929648
 20
52.11721449180479
 30
0
 42
-0.005692624657014215
  0
VERTEX
  5
5F
  8
0
  6
BYLAYER
 62
  256
 10
167.9567233956671
 20
49.10980105865477
 30
0
 42
-0.1042294315126278
  0
VERTEX
  5
60
  8
0
  6
BYLAYER
 62
  256
 10
167.2219492051252
 20
48.7349352923886
 30
0
  0
VERTEX
  5
61
  8
0
  6
BYLAYER
 62
  256
 10
163.4834048016901
 20
47.72417937392252
 30
0
 42
0.1975132317693684
  0
VERTEX
  5
62
  8
0
  6
BYLAYER
 62
  256
 10
162.27647973044
 20
46.79892385827758
 30
0
  0
VERTEX
  5
63
  8
0
  6
BYLAYER
 62
  256
 10
160.5592066223661
 20
43.84594651003685
 30
0
 42
-0.2096602416281837
  0
VERTEX
  5
64
  8
0
  6
BYLAYER
 62
  256
 10
159.2616724402288
 20
42.89844816145742
 30
0
  0
VERTEX
  5
65
  8
0
  6
BYLAYER
 62
  256
 10
155.9260986302998
 20
42.16167013372409
 30
0
 42
0.1975131548398208
  0
VERTEX
  5
66
  8
0
  6
BYLAYER
 62
  256
 10
154.677336037508
 20
41.29370917989326
 30
0
  0
VERTEX
  5
67
  8
0
  6
BYLAYER
 62
  256
 10
152.8242109180119
 20
38.42403097117455
 30
0
 42
-0.2096601661549241
  0
VERTEX
  5
68
  8
0
  6
BYLAYER
 62
  256
 10
151.4839004540389
 20
37.53807711651574
 30
0
  0
VERTEX
  5
69
  8
0
  6
BYLAYER
 62
  256
 10
148.117593454238
 20
36.95766150729931
 30
0
 42
0.1975130730975577
  0
VERTEX
  5
6A
  8
0
  6
BYLAYER
 62
  256
 10
146.8297109451806
 20
36.14888397123737
 30
0
  0
VERTEX
  5
6B
  8
0
  6
BYLAYER
 62
  256
 10
144.8447662077855
 20
33.36875007515417
 30
0
 42
-0.2096600861878925
  0
VERTEX
  5
6C
  8
0
  6
BYLAYER
 62
  256
 10
143.4645962897741
 20
32.54626872792116
 30
0
  0
VERTEX
  5
6D
  8
0
  6
BYLAYER
 62
  256
 10
140.0748816106467
 20
32.12347877930389
 30
0
 42
0.1975129867204849
  0
VERTEX
  5
6E
  8
0
  6
BYLAYER
 62
  256
 10
138.750681925103
 20
31.37564471894469
 30
0
  0
VERTEX
  5
6F
  8
0
  6
BYLAYER
 62
  256
 10
136.6382368371681
 20
28.69110547988197
 30
0
 42
-0.2096600019011294
  0
VERTEX
  5
70
  8
0
  6
BYLAYER
 62
  256
 10
135.2212110369244
 20
27.93388652220095
 30
0
  0
VERTEX
  5
71
  8
0
  6
BYLAYER
 62
  256
 10
131.8154651396004
 20
27.66964248471071
 30
0
 42
0.1975128958965788
  0
VERTEX
  5
72
  8
0
  6
BYLAYER
 62
  256
 10
130.4578300523685
 20
26.9843793296541
 30
0
  0
VERTEX
  5
73
  8
0
  6
BYLAYER
 62
  256
 10
127.9235668054354
 20
24.05586035894691
 30
0
 42
-0.104228556179958
  0
VERTEX
  5
74
  8
0
  6
BYLAYER
 62
  256
 10
127.2667721192678
 20
23.55683429625938
 30
0
 42
-0.06202534784075871
  0
VERTEX
  5
75
  8
0
  6
BYLAYER
 62
  256
 10
79.65062524196483
 20
7.875672560608479
 30
0
 42
-0.1773466634451879
  0
VERTEX
  5
76
  8
0
  6
BYLAYER
 62
  256
 10
72.85744088224962
 20
8.949640048786046
 30
0
  0
VERTEX
  5
77
  8
0
  6
BYLAYER
 62
  256
 10
62.81495224303771
 20
14.53855569989997
 30
0
 42
0.2174151564117146
  0
VERTEX
  5
78
  8
0
  6
BYLAYER
 62
  256
 10
51.22866368296673
 20
15.4666104876087
 30
0
 42
3.636029430003554e-06
  0
VERTEX
  5
79
  8
0
  6
BYLAYER
 62
  256
 10
45.70901608241636
 20
13.46341500786838
 30
0
 42
-0.1949342117762916
  0
VERTEX
  5
7A
  8
0
  6
BYLAYER
 62
  256
 10
40.17471156303777
 20
13.66493841190002
 30
0
 42
-0.1946559291364974
  0
VERTEX
  5
7B
  8
0
  6
BYLAYER
 62
  256
 10
36.34157724303773
 20
17.65981367990022
 30
0
 42
-0.07128644921009472
  0
VERTEX
  5
7C
  8
0
  6
BYLAYER
 62
  256
 10
26.74540315390286
 20
57.38378764338719
 30
0
  0
VERTEX
  5
7D
  8
0
  6
BYLAYER
 62
  256
 10
26.29289285754486
 20
62.14794702577242
 30
0
 42
0.6030083073354312
  0
VERTEX
  5
7E
  8
0
  6
BYLAYER
 62
  256
 10
16.62029962843907
 20
66.51583356882716
 30
0
  0
VERTEX
  5
7F
  8
0
  6
BYLAYER
 62
  256
 10
10.73613730622205
 20
61.93876910633651
 30
0
 42
-0.6307829792371953
  0
VERTEX
  5
80
  8
0
  6
BYLAYER
 62
  256
 10
6.857976491383521
 20
63.88149177224975
 30
0
 42
-0.2714817434945557
  0
VERTEX
  5
81
  8
0
  6
BYLAYER
 62
  256
 10
11.10000012303735
 20
70.99914080038904
 30
0
 42
-0.2714817434945547
  0
VERTEX
  5
82
  8
0
  6
BYLAYER
 62
  256
 10
6.855937716362567
 20
78.1187536601587
 30
0
 42
-0.6307829792371887
  0
VERTEX
  5
83
  8
0
  6
BYLAYER
 62
  256
 10
10.73354197662867
 20
80.06258695115052
 30
0
  0
VERTEX
  5
84
  8
0
  6
BYLAYER
 62
  256
 10
16.61901492819027
 20
75.48720789970244
 30
0
 42
0.603008307335433
  0
VERTEX
  5
85
  8
0
  6
BYLAYER
 62
  256
 10
26.29035679845994
 20
79.85786449306588
 30
0
  0
VERTEX
  5
86
  8
0
  6
BYLAYER
 62
  256
 10
26.74150262162996
 20
84.62215327895161
 30
0
 42
-0.07128644921009461
  0
VERTEX
  5
87
  8
0
  6
BYLAYER
 62
  256
 10
36.32629937621099
 20
124.3488739562761
 30
0
 42
-0.1946559291364972
  0
VERTEX
  5
88
  8
0
  6
BYLAYER
 62
  256
 10
40.15828940724622
 20
128.3448468696085
 30
0
 42
-0.1949342117762911
  0
VERTEX
  5
89
  8
0
  6
BYLAYER
 62
  256
 10
45.69253598360228
 20
128.5479552894249
 30
0
 42
3.636029430003554e-06
  0
VERTEX
  5
8A
  8
0
  6
BYLAYER
 62
  256
 10
51.21275707251422
 20
126.5463407180552
 30
0
 42
0.2174151564117151
  0
VERTEX
  5
8B
  8
0
  6
BYLAYER
 62
  256
 10
62.79877936259252
 20
127.4777137794323
 30
0
  0
VERTEX
  5
8C
  8
0
  6
BYLAYER
 62
  256
 10
72.83966692521973
 20
133.0695053687751
 30
0
 42
-0.1773466634451884
  0
VERTEX
  5
8D
  8
0
  6
BYLAYER
 62
  256
 10
79.63254342218063
 20
134.1454183800263
 30
0
 42
-0.06202534784075871
  0
VERTEX
  5
8E
  8
0
  6
BYLAYER
 62
  256
 10
127.2531794293165
 20
118.4778945457884
 30
0
 42
-0.1042285561799577
  0
VERTEX
  5
8F
  8
0
  6
BYLAYER
 62
  256
 10
127.9101170095468
 20
117.9790566094802
 30
0
  0
VERTEX
  5
90
  8
0
  6
BYLAYER
 62
  256
 10
130.4452188799971
 20
115.051263571544
 30
0
 42
0.1975128958965778
  0
VERTEX
  5
91
  8
0
  6
BYLAYER
 62
  256
 10
131.8030501708278
 20
114.3663892711046
 30
0
  0
VERTEX
  5
92
  8
0
  6
BYLAYER
 62
  256
 10
135.2088716079319
 20
114.103120649635
 30
0
 42
-0.2096600019011295
  0
VERTEX
  5
93
  8
0
  6
BYLAYER
 62
  256
 10
136.6261142174712
 20
113.3463075590148
 30
0
  0
VERTEX
  5
94
  8
0
  6
BYLAYER
 62
  256
 10
138.7393280704595
 20
110.6623734340508
 30
0
 42
0.197512986720486
  0
VERTEX
  5
95
  8
0
  6
BYLAYER
 62
  256
 10
140.0637418812723
 20
109.9149186549802
 30
0
  0
VERTEX
  5
96
  8
0
  6
BYLAYER
 62
  256
 10
143.4535775083657
 20
109.4930995375472
 30
0
 42
-0.2096600861878926
  0
VERTEX
  5
97
  8
0
  6
BYLAYER
 62
  256
 10
144.8339829283242
 20
108.6710135045317
 30
0
  0
VERTEX
  5
98
  8
0
  6
BYLAYER
 62
  256
 10
146.8197238142991
 20
105.8914482103839
 30
0
 42
0.197513073097557
  0
VERTEX
  5
99
  8
0
  6
BYLAYER
 62
  256
 10
148.1078379043188
 20
105.0830395568755
 30
0
  0
VERTEX
  5
9A
  8
0
  6
BYLAYER
 62
  256
 10
151.4743109970144
 20
104.5035880813515
 30
0
 42
-0.2096601661549221
  0
VERTEX
  5
9B
  8
0
  6
BYLAYER
 62
  256
 10
152.814875143087
 20
103.6180181277709
 30
0
  0
VERTEX
  5
9C
  8
0
  6
BYLAYER
 62
  256
 10
154.6688220620488
 20
100.7488707715386
 30
0
 42
0.1975131548398249
  0
VERTEX
  5
9D
  8
0
  6
BYLAYER
 62
  256
 10
155.9178331875304
 20
99.88126749874954
 30
0
  0
VERTEX
  5
9E
  8
0
  6
BYLAYER
 62
  256
 10
159.253617873791
 20
99.14544480913987
 30
0
 42
-0.2096602416281844
  0
VERTEX
  5
9F
  8
0
  6
BYLAYER
 62
  256
 10
160.5514233661174
 20
98.19831811304105
 30
0
  0
VERTEX
  5
A0
  8
0
  6
BYLAYER
 62
  256
 10
162.2695421360913
 20
95.24583271270467
 30
0
 42
0.1975132317693655
  0
VERTEX
  5
A1
  8
0
  6
BYLAYER
 62
  256
 10
163.4767321509021
 20
94.3209228981906
 30
0
  0
VERTEX
  5
A2
  8
0
  6
BYLAYER
 62
  256
 10
167.2155658813743
 20
93.31123773981039
 30
0
 42
-0.1042294315126292
  0
VERTEX
  5
A3
  8
0
  6
BYLAYER
 62
  256
 10
167.9504474032879
 20
92.93658242815144
 30
0
 42
-0.005692624657014215
  0
VERTEX
  5
A4
  8
0
  6
BYLAYER
 62
  256
 10
171.587042574293
 20
89.93021039208793
 30
0
 42
2.018919279332313
  0
VERTEX
  5
A5
  8
0
  6
BYLAYER
 62
  256
 10
171.6904846055063
 20
104.2483142965085
 30
0
 42
0.9999999999999977
  0
VERTEX
  5
A6
  8
0
  6
BYLAYER
 62
  256
 10
174.0914009866615
 20
101.0490017874369
 30
0
 42
-2.000000000000028
  0
VERTEX
  5
A7
  8
0
  6
BYLAYER
 62
  256
 10
174.0936921856238
 20
93.04900211553699
 30
0
 42
0.1240974609032127
  0
VERTEX
  5
A8
  8
0
  6
BYLAYER
 62
  256
 10
83.26624404046386
 20
137.4870643301122
 30
0
  0
VERTEX
  5
A9
  8
0
  6
BYLAYER
 62
  256
 10
80.98080800971853
 20
138.0223364420505
 30
0
 42
-0.7677543333594465
  0
VERTEX
  5
AA
  8
0
  6
BYLAYER
 62
  256
 10
80.98023520997788
 20
140.0223363600257
 30
0
  0
VERTEX
  5
AB
  8
0
  6
BYLAYER
 62
  256
 10
82.98023512795302
 20
140.0229091597662
 30
0
 42
0.7606118229890885
  0
VERTEX
  5
AC
  8
0
  6
BYLAYER
 62
  256
 10
83.18774893537375
 20
141.0037781228034
 30
0
 42
0.3096887855888147
  0
VERTEX
  5
AD
  8
0
  6
BYLAYER
 62
  256
 10
75.17684381044151
 20
140.6100450801995
 30
0
  0
VERTEX
  5
AE
  8
0
  6
BYLAYER
 62
  256
 10
73.1342132627933
 20
138.423012399726
 30
0
 42
-0.07799831033370118
  0
VERTEX
  5
AF
  8
0
  6
BYLAYER
 62
  256
 10
70.69172134579716
 20
136.5122937653408
 30
0
  0
VERTEX
  5
B0
  8
0
  6
BYLAYER
 62
  256
 10
60.80922957322949
 20
131.0082534254066
 30
0
 42
-0.2173816340427219
  0
VERTEX
  5
B1
  8
0
  6
BYLAYER
 62
  256
 10
52.59616171117523
 20
130.347940272768
 30
0
 42
-3.668205318180039e-06
  0
VERTEX
  5
B2
  8
0
  6
BYLAYER
 62
  256
 10
47.07593794311195
 20
132.3495548433904
 30
0
 42
0.1949490859027103
  0
VERTEX
  5
B3
  8
0
  6
BYLAYER
 62
  256
 10
38.48484947250691
 20
132.0304145557826
 30
0
 42
0.1948244713992431
  0
VERTEX
  5
B4
  8
0
  6
BYLAYER
 62
  256
 10
32.53566488885144
 20
125.8254524756086
 30
0
 42
0.03096575169187338
  0
VERTEX
  5
B5
  8
0
  6
BYLAYER
 62
  256
 10
26.83724997568292
 20
108.5058896839988
 30
0
 42
-0.2435153206128368
  0
VERTEX
  5
B6
  8
0
  6
BYLAYER
 62
  256
 10
23.68820287169462
 20
105.0204650543711
 30
0
 42
-0.2436677787623328
  0
VERTEX
  5
B7
  8
0
  6
BYLAYER
 62
  256
 10
19.02735156789996
 20
105.5870597303995
 30
0
  0
VERTEX
  5
B8
  8
0
  6
BYLAYER
 62
  256
 10
10.47078500669591
 20
111.4426460959708
 30
0
 42
-0.1635410776657699
  0
VERTEX
  5
B9
  8
0
  6
BYLAYER
 62
  256
 10
10.08701074606164
 20
111.9512169367641
 30
0
  0
VERTEX
  5
BA
  8
0
  6
BYLAYER
 62
  256
 10
8.987369519644604
 20
115.1017165905731
 30
0
 42
0.6406541327996139
  0
VERTEX
  5
BB
  8
0
  6
BYLAYER
 62
  256
 10
7.387312305290454
 20
115.3012583425781
 30
0
  0
VERTEX
  5
BC
  8
0
  6
BYLAYER
 62
  256
 10
7.191855235128026
 20
114.9708109080723
 30
0
 42
-0.4318651340149258
  0
VERTEX
  5
BD
  8
0
  6
BYLAYER
 62
  256
 10
5.769518990913401
 20
114.6599025721558
 30
0
  0
VERTEX
  5
BE
  8
0
  6
BYLAYER
 62
  256
 10
5.108514478854964
 20
115.1122532879138
 30
0
 42
-0.3718348653119433
  0
VERTEX
  5
BF
  8
0
  6
BYLAYER
 62
  256
 10
4.683545353702073
 20
116.7232726028822
 30
0
 42
-0.000135530305352785
  0
VERTEX
  5
C0
  8
0
  6
BYLAYER
 62
  256
 10
4.816421067299203
 20
116.9928811495272
 30
0
 42
-0.0034667709057892
  0
VERTEX
  5
C1
  8
0
  6
BYLAYER
 62
  256
 10
5.283583992192013
 20
117.9247330631462
 30
0
 42
0.4142385902997749
  0
VERTEX
  5
C2
  8
0
  6
BYLAYER
 62
  256
 10
4.54955612209751
 20
120.3407117767447
 30
0
 42
0.4144220932559698
  0
VERTEX
  5
C3
  8
0
  6
BYLAYER
 62
  256
 10
2.136719440523748
 20
119.6066842705277
 30
0
 42
0.008943230999717352
  0
VERTEX
  5
C4
  8
0
  6
BYLAYER
 62
  256
 10
1.069530801820405
 20
117.4273080584585
 30
0
 42
0.3672405695660073
  0
VERTEX
  5
C5
  8
0
  6
BYLAYER
 62
  256
 10
2.375827287897538
 20
112.6555024658993
 30
0
  0
VERTEX
  5
C6
  8
0
  6
BYLAYER
 62
  256
 10
21.71906320594999
 20
99.42068942336556
 30
0
 42
-0.290063674299161
  0
VERTEX
  5
C7
  8
0
  6
BYLAYER
 62
  256
 10
23.87444430911779
 20
94.40834507866526
 30
0
 42
0.02434037690786563
  0
VERTEX
  5
C8
  8
0
  6
BYLAYER
 62
  256
 10
22.29781873617916
 20
80.10207714883799
 30
0
 42
-0.603008307335434
  0
VERTEX
  5
C9
  8
0
  6
BYLAYER
 62
  256
 10
19.07403811275601
 20
78.64519161771699
 30
0
  0
VERTEX
  5
CA
  8
0
  6
BYLAYER
 62
  256
 10
13.1885651611943
 20
83.22057066916514
 30
0
 42
0.6307829792372016
  0
VERTEX
  5
CB
  8
0
  6
BYLAYER
 62
  256
 10
2.856689203362246
 20
78.04122088463902
 30
0
  0
VERTEX
  5
CC
  8
0
  6
BYLAYER
 62
  256
 10
3
 20
71
 30
0
  0
SEQEND
  5
CD
  8
0
  6
BYLAYER
 62
  256
  0
POLYLINE
  5
CE
  8
0
  6
BYLAYER
 62
  256
 66
    1
 10
0
 20
0
 30
0
 70
    0
  0
VERTEX
  5
CF
  8
0
  6
BYLAYER
 62
  256
 10
3
 20
215
 30
0
  0
VERTEX
  5
D0
  8
0
  6
BYLAYER
 62
  256
 10
2.858705813987974
 20
207.9587383599451
 30
0
 42
0.6307829792372016
  0
VERTEX
  5
D1
  8
0
  6
BYLAYER
 62
  256
 10
13.19206471319114
 20
202.7823478357711
 30
0
  0
VERTEX
  5
D2
  8
0
  6
BYLAYER
 62
  256
 10
19.07622703540826
 20
207.3594122982619
 30
0
 42
-0.6030083073354373
  0
VERTEX
  5
D3
  8
0
  6
BYLAYER
 62
  256
 10
22.30042477844344
 20
205.9034501172438
 30
0
 42
0.02434037690786563
  0
VERTEX
  5
D4
  8
0
  6
BYLAYER
 62
  256
 10
23.88114760000067
 20
191.5976343195111
 30
0
 42
-0.290063674299161
  0
VERTEX
  5
D5
  8
0
  6
BYLAYER
 62
  256
 10
21.72720212000053
 20
186.5846728795109
 30
0
  0
VERTEX
  5
D6
  8
0
  6
BYLAYER
 62
  256
 10
2.387757444000395
 20
173.3443204795109
 30
0
 42
0.367240569566007
  0
VERTEX
  5
D7
  8
0
  6
BYLAYER
 62
  256
 10
1.082827656000553
 20
168.5721409595109
 30
0
 42
0.008943230999717352
  0
VERTEX
  5
D8
  8
0
  6
BYLAYER
 62
  256
 10
2.150640424000373
 20
166.3930704795109
 30
0
 42
0.414422093255966
  0
VERTEX
  5
D9
  8
0
  6
BYLAYER
 62
  256
 10
4.563687232000368
 20
165.6597340395109
 30
0
 42
0.4142385902997757
  0
VERTEX
  5
DA
  8
0
  6
BYLAYER
 62
  256
 10
5.297023136000305
 20
168.0759228795112
 30
0
 42
-0.0034667709057892
  0
VERTEX
  5
DB
  8
0
  6
BYLAYER
 62
  256
 10
4.829593347999264
 20
169.007640959512
 30
0
 42
-0.000135530305352563
  0
VERTEX
  5
DC
  8
0
  6
BYLAYER
 62
  256
 10
4.696640423999506
 20
169.2772114395119
 30
0
 42
-0.371834865311942
  0
VERTEX
  5
DD
  8
0
  6
BYLAYER
 62
  256
 10
5.121148136000443
 20
170.8883523995108
 30
0
  0
VERTEX
  5
DE
  8
0
  6
BYLAYER
 62
  256
 10
5.782023067763155
 20
171.3408924083234
 30
0
 42
-0.4318651340149227
  0
VERTEX
  5
DF
  8
0
  6
BYLAYER
 62
  256
 10
7.204448297751355
 20
171.0303914420739
 30
0
  0
VERTEX
  5
E0
  8
0
  6
BYLAYER
 62
  256
 10
7.399999999999992
 20
170.7
 30
0
 42
0.6406541327996248
  0
VERTEX
  5
E1
  8
0
  6
BYLAYER
 62
  256
 10
9
 20
170.9
 30
0
  0
VERTEX
  5
E2
  8
0
  6
BYLAYER
 62
  256
 10
10.0987388786258
 20
174.050814461704
 30
0
 42
-0.1635410776657718
  0
VERTEX
  5
E3
  8
0
  6
BYLAYER
 62
  256
 10
10.48236746889773
 20
174.559495194538
 30
0
  0
VERTEX
  5
E4
  8
0
  6
BYLAYER
 62
  256
 10
19.03725664000035
 20
180.4175319195109
 30
0
 42
-0.2436677787623327
  0
VERTEX
  5
E5
  8
0
  6
BYLAYER
 62
  256
 10
23.69794548000036
 20
180.9854614395108
 30
0
 42
-0.2435153206128367
  0
VERTEX
  5
E6
  8
0
  6
BYLAYER
 62
  256
 10
26.84799068000041
 20
177.5009388395112
 30
0
 42
0.03096575169187361
  0
VERTEX
  5
E7
  8
0
  6
BYLAYER
 62
  256
 10
32.5513656800004
 20
160.1830087835109
 30
0
 42
0.1948244713992431
  0
VERTEX
  5
E8
  8
0
  6
BYLAYER
 62
  256
 10
38.50232712000034
 20
153.9797508035109
 30
0
 42
0.1949490859027101
  0
VERTEX
  5
E9
  8
0
  6
BYLAYER
 62
  256
 10
47.09350663988153
 20
153.6630710155005
 30
0
 42
-3.668205318069017e-06
  0
VERTEX
  5
EA
  8
0
  6
BYLAYER
 62
  256
 10
52.61315691960041
 20
155.6662664954783
 30
0
 42
-0.2173816340427223
  0
VERTEX
  5
EB
  8
0
  6
BYLAYER
 62
  256
 10
60.82641355833039
 20
155.0083055915311
 30
0
  0
VERTEX
  5
EC
  8
0
  6
BYLAYER
 62
  256
 10
70.71048128203249
 20
149.507095821693
 30
0
 42
-0.07799831033370107
  0
VERTEX
  5
ED
  8
0
  6
BYLAYER
 62
  256
 10
73.15352032842515
 20
147.5970767950392
 30
0
  0
VERTEX
  5
EE
  8
0
  6
BYLAYER
 62
  256
 10
75.19677715817616
 20
145.4106292133854
 30
0
 42
0.3096887855888146
  0
VERTEX
  5
EF
  8
0
  6
BYLAYER
 62
  256
 10
83.20779471965392
 20
145.0191905091183
 30
0
 42
0.760611822989085
  0
VERTEX
  5
F0
  8
0
  6
BYLAYER
 62
  256
 10
83
 20
146
 30
0
  0
VERTEX
  5
F1
  8
0
  6
BYLAYER
 62
  256
 10
81.00000000000001
 20
146
 30
0
 42
-0.7677543333594768
  0
VERTEX
  5
F2
  8
0
  6
BYLAYER
 62
  256
 10
81
 20
148
 30
0
  0
VERTEX
  5
F3
  8
0
  6
BYLAYER
 62
  256
 10
83.28528263515054
 20
148.5359266385683
 30
0
 42
0.1240974609032127
  0
VERTEX
  5
F4
  8
0
  6
BYLAYER
 62
  256
 10
174.0999999999998
 20
192.9999999999995
 30
0
 42
-2.000000000000048
  0
VERTEX
  5
F5
  8
0
  6
BYLAYER
 62
  256
 10
174.1
 20
185
 30
0
 42
1.000000000000006
  0
VERTEX
  5
F6
  8
0
  6
BYLAYER
 62
  256
 10
171.7
 20
181.7999999999999
 30
0
 42
2.018919279332302
  0
VERTEX
  5
F7
  8
0
  6
BYLAYER
 62
  256
 10
171.5924572699275
 20
196.1180736914157
 30
0
 42
-0.005692624657014215
  0
VERTEX
  5
F8
  8
0
  6
BYLAYER
 62
  256
 10
167.9567232726298
 20
193.1106602582657
 30
0
 42
-0.1042294315126278
  0
VERTEX
  5
F9
  8
0
  6
BYLAYER
 62
  256
 10
167.2219490820879
 20
192.7357944919996
 30
0
  0
VERTEX
  5
FA
  8
0
  6
BYLAYER
 62
  256
 10
163.4834046786528
 20
191.7250385735334
 30
0
 42
0.1975132317693684
  0
VERTEX
  5
FB
  8
0
  6
BYLAYER
 62
  256
 10
162.2764796074027
 20
190.7997830578885
 30
0
  0
VERTEX
  5
FC
  8
0
  6
BYLAYER
 62
  256
 10
160.5592064993288
 20
187.8468057096478
 30
0
 42
-0.2096602416281837
  0
VERTEX
  5
FD
  8
0
  6
BYLAYER
 62
  256
 10
159.2616723171915
 20
186.8993073610684
 30
0
  0
VERTEX
  5
FE
  8
0
  6
BYLAYER
 62
  256
 10
155.9260985072625
 20
186.162529333335
 30
0
 42
0.1975131548398208
  0
VERTEX
  5
FF
  8
0
  6
BYLAYER
 62
  256
 10
154.6773359144707
 20
185.2945683795042
 30
0
  0
VERTEX
  5
100
  8
0
  6
BYLAYER
 62
  256
 10
152.8242107949746
 20
182.4248901707855
 30
0
 42
-0.2096601661549241
  0
VERTEX
  5
101
  8
0
  6
BYLAYER
 62
  256
 10
151.4839003310016
 20
181.5389363161267
 30
0
  0
VERTEX
  5
102
  8
0
  6
BYLAYER
 62
  256
 10
148.1175933312007
 20
180.9585207069102
 30
0
 42
0.1975130730975577
  0
VERTEX
  5
103
  8
0
  6
BYLAYER
 62
  256
 10
146.8297108221433
 20
180.1497431708483
 30
0
  0
VERTEX
  5
104
  8
0
  6
BYLAYER
 62
  256
 10
144.8447660847482
 20
177.3696092747651
 30
0
 42
-0.2096600861878925
  0
VERTEX
  5
105
  8
0
  6
BYLAYER
 62
  256
 10
143.4645961667368
 20
176.5471279275321
 30
0
  0
VERTEX
  5
106
  8
0
  6
BYLAYER
 62
  256
 10
140.0748814876094
 20
176.1243379789148
 30
0
 42
0.1975129867204849
  0
VERTEX
  5
107
  8
0
  6
BYLAYER
 62
  256
 10
138.7506818020657
 20
175.3765039185556
 30
0
  0
VERTEX
  5
108
  8
0
  6
BYLAYER
 62
  256
 10
136.6382367141308
 20
172.6919646794929
 30
0
 42
-0.2096600019011294
  0
VERTEX
  5
109
  8
0
  6
BYLAYER
 62
  256
 10
135.2212109138871
 20
171.9347457218119
 30
0
  0
VERTEX
  5
10A
  8
0
  6
BYLAYER
 62
  256
 10
131.8154650165631
 20
171.6705016843216
 30
0
 42
0.1975128958965788
  0
VERTEX
  5
10B
  8
0
  6
BYLAYER
 62
  256
 10
130.4578299293312
 20
170.985238529265
 30
0
  0
VERTEX
  5
10C
  8
0
  6
BYLAYER
 62
  256
 10
127.9235666823981
 20
168.0567195585579
 30
0
 42
-0.104228556179958
  0
VERTEX
  5
10D
  8
0
  6
BYLAYER
 62
  256
 10
127.2667719962305
 20
167.5576934958704
 30
0
 42
-0.06202534784075871
  0
VERTEX
  5
10E
  8
0
  6
BYLAYER
 62
  256
 10
79.65062511892751
 20
151.8765317602194
 30
0
 42
-0.1773466634451879
  0
VERTEX
  5
10F
  8
0
  6
BYLAYER
 62
  256
 10
72.8574407592123
 20
152.950499248397
 30
0
  0
VERTEX
  5
110
  8
0
  6
BYLAYER
 62
  256
 10
62.81495212000038
 20
158.5394148995109
 30
0
 42
0.2174151564117146
  0
VERTEX
  5
111
  8
0
  6
BYLAYER
 62
  256
 10
51.22866355991573
 20
159.4674696872244
 30
0
 42
3.636029430003554e-06
  0
VERTEX
  5
112
  8
0
  6
BYLAYER
 62
  256
 10
45.70901595937902
 20
157.4642742074793
 30
0
 42
-0.1949342117762916
  0
VERTEX
  5
113
  8
0
  6
BYLAYER
 62
  256
 10
40.17471144000042
 20
157.665797611511
 30
0
 42
-0.1946559291364974
  0
VERTEX
  5
114
  8
0
  6
BYLAYER
 62
  256
 10
36.34157712000041
 20
161.6606728795112
 30
0
 42
-0.07128644921009472
  0
VERTEX
  5
115
  8
0
  6
BYLAYER
 62
  256
 10
26.74540303086553
 20
201.3846468429982
 30
0
  0
VERTEX
  5
116
  8
0
  6
BYLAYER
 62
  256
 10
26.29289273450754
 20
206.1488062253834
 30
0
 42
0.6030083073354312
  0
VERTEX
  5
117
  8
0
  6
BYLAYER
 62
  256
 10
16.62029950540176
 20
210.5166927684381
 30
0
  0
VERTEX
  5
118
  8
0
  6
BYLAYER
 62
  256
 10
10.73613718318473
 20
205.9396283059475
 30
0
 42
-0.6307829792371953
  0
VERTEX
  5
119
  8
0
  6
BYLAYER
 62
  256
 10
6.857976368346229
 20
207.8823509718607
 30
0
 42
-0.2714817434945557
  0
VERTEX
  5
11A
  8
0
  6
BYLAYER
 62
  256
 10
11.10000000000005
 20
215
 30
0
 42
-0.2714817434945547
  0
VERTEX
  5
11B
  8
0
  6
BYLAYER
 62
  256
 10
6.855937593325239
 20
222.1196128597696
 30
0
 42
-0.6307829792371887
  0
VERTEX
  5
11C
  8
0
  6
BYLAYER
 62
  256
 10
10.73354185359136
 20
224.0634461507615
 30
0
  0
VERTEX
  5
11D
  8
0
  6
BYLAYER
 62
  256
 10
16.61901480515294
 20
219.4880670993134
 30
0
 42
0.603008307335433
  0
VERTEX
  5
11E
  8
0
  6
BYLAYER
 62
  256
 10
26.29035667542263
 20
223.8587236926768
 30
0
  0
VERTEX
  5
11F
  8
0
  6
BYLAYER
 62
  256
 10
26.74150249859267
 20
228.6230124785626
 30
0
 42
-0.07128644921009461
  0
VERTEX
  5
120
  8
0
  6
BYLAYER
 62
  256
 10
36.32629925317364
 20
268.349733155887
 30
0
 42
-0.1946559291364972
  0
VERTEX
  5
121
  8
0
  6
BYLAYER
 62
  256
 10
40.15828928420893
 20
272.3457060692195
 30
0
 42
-0.1949342117762911
  0
VERTEX
  5
122
  8
0
  6
BYLAYER
 62
  256
 10
45.69253586055129
 20
272.5488144890405
 30
0
 42
3.636029430003554e-06
  0
VERTEX
  5
123
  8
0
  6
BYLAYER
 62
  256
 10
51.21275694947686
 20
270.5471999176661
 30
0
 42
0.2174151564117151
  0
VERTEX
  5
124
  8
0
  6
BYLAYER
 62
  256
 10
62.79877923955519
 20
271.4785729790433
 30
0
  0
VERTEX
  5
125
  8
0
  6
BYLAYER
 62
  256
 10
72.83966680218238
 20
277.070364568386
 30
0
 42
-0.1773466634451884
  0
VERTEX
  5
126
  8
0
  6
BYLAYER
 62
  256
 10
79.63254329914331
 20
278.1462775796372
 30
0
 42
-0.06202534784075871
  0
VERTEX
  5
127
  8
0
  6
BYLAYER
 62
  256
 10
127.2531793062792
 20
262.4787537453993
 30
0
 42
-0.1042285561799577
  0
VERTEX
  5
128
  8
0
  6
BYLAYER
 62
  256
 10
127.9101168865095
 20
261.9799158090911
 30
0
  0
VERTEX
  5
129
  8
0
  6
BYLAYER
 62
  256
 10
130.4452187569598
 20
259.0521227711549
 30
0
 42
0.1975128958965778
  0
VERTEX
  5
12A
  8
0
  6
BYLAYER
 62
  256
 10
131.8030500477905
 20
258.3672484707155
 30
0
  0
VERTEX
  5
12B
  8
0
  6
BYLAYER
 62
  256
 10
135.2088714848946
 20
258.1039798492459
 30
0
 42
-0.2096600019011295
  0
VERTEX
  5
12C
  8
0
  6
BYLAYER
 62
  256
 10
136.6261140944339
 20
257.3471667586257
 30
0
  0
VERTEX
  5
12D
  8
0
  6
BYLAYER
 62
  256
 10
138.7393279474222
 20
254.6632326336617
 30
0
 42
0.197512986720486
  0
VERTEX
  5
12E
  8
0
  6
BYLAYER
 62
  256
 10
140.063741758235
 20
253.9157778545912
 30
0
  0
VERTEX
  5
12F
  8
0
  6
BYLAYER
 62
  256
 10
143.4535773853284
 20
253.4939587371581
 30
0
 42
-0.2096600861878926
  0
VERTEX
  5
130
  8
0
  6
BYLAYER
 62
  256
 10
144.8339828052869
 20
252.6718727041426
 30
0
  0
VERTEX
  5
131
  8
0
  6
BYLAYER
 62
  256
 10
146.8197236912618
 20
249.8923074099948
 30
0
 42
0.197513073097557
  0
VERTEX
  5
132
  8
0
  6
BYLAYER
 62
  256
 10
148.1078377812815
 20
249.0838987564864
 30
0
  0
VERTEX
  5
133
  8
0
  6
BYLAYER
 62
  256
 10
151.4743108739771
 20
248.5044472809624
 30
0
 42
-0.2096601661549221
  0
VERTEX
  5
134
  8
0
  6
BYLAYER
 62
  256
 10
152.8148750200497
 20
247.6188773273818
 30
0
  0
VERTEX
  5
135
  8
0
  6
BYLAYER
 62
  256
 10
154.6688219390115
 20
244.7497299711495
 30
0
 42
0.1975131548398249
  0
VERTEX
  5
136
  8
0
  6
BYLAYER
 62
  256
 10
155.9178330644931
 20
243.8821266983605
 30
0
  0
VERTEX
  5
137
  8
0
  6
BYLAYER
 62
  256
 10
159.2536177507537
 20
243.1463040087508
 30
0
 42
-0.2096602416281844
  0
VERTEX
  5
138
  8
0
  6
BYLAYER
 62
  256
 10
160.5514232430801
 20
242.199177312652
 30
0
  0
VERTEX
  5
139
  8
0
  6
BYLAYER
 62
  256
 10
162.269542013054
 20
239.2466919123156
 30
0
 42
0.1975132317693655
  0
VERTEX
  5
13A
  8
0
  6
BYLAYER
 62
  256
 10
163.4767320278648
 20
238.3217820978015
 30
0
  0
VERTEX
  5
13B
  8
0
  6
BYLAYER
 62
  256
 10
167.215565758337
 20
237.3120969394213
 30
0
 42
-0.1042294315126292
  0
VERTEX
  5
13C
  8
0
  6
BYLAYER
 62
  256
 10
167.9504472802506
 20
236.9374416277624
 30
0
 42
-0.005692624657014215
  0
VERTEX
  5
13D
  8
0
  6
BYLAYER
 62
  256
 10
171.5870424512557
 20
233.9310695916989
 30
0
 42
2.018919279332313
  0
VERTEX
  5
13E
  8
0
  6
BYLAYER
 62
  256
 10
171.690484482469
 20
248.2491734961194
 30
0
 42
0.9999999999999977
  0
VERTEX
  5
13F
  8
0
  6
BYLAYER
 62
  256
 10
174.0914008636242
 20
245.0498609870479
 30
0
 42
-2.000000000000028
  0
VERTEX
  5
140
  8
0
  6
BYLAYER
 62
  256
 10
174.0936920625864
 20
237.0498613151479
 30
0
 42
0.1240974609032127
  0
VERTEX
  5
141
  8
0
  6
BYLAYER
 62
  256
 10
83.26624391742655
 20
281.4879235297231
 30
0
  0
VERTEX
  5
142
  8
0
  6
BYLAYER
 62
  256
 10
80.98080788668122
 20
282.0231956416615
 30
0
 42
-0.7677543333594465
  0
VERTEX
  5
143
  8
0
  6
BYLAYER
 62
  256
 10
80.98023508694058
 20
284.0231955596366
 30
0
  0
VERTEX
  5
144
  8
0
  6
BYLAYER
 62
  256
 10
82.98023500491567
 20
284.0237683593772
 30
0
 42
0.7606118229890885
  0
VERTEX
  5
145
  8
0
  6
BYLAYER
 62
  256
 10
83.18774881233644
 20
285.0046373224143
 30
0
 42
0.3096887855888147
  0
VERTEX
  5
146
  8
0
  6
BYLAYER
 62
  256
 10
75.17684368740419
 20
284.6109042798104
 30
0
  0
VERTEX
  5
147
  8
0
  6
BYLAYER
 62
  256
 10
73.13421313975597
 20
282.423871599337
 30
0
 42
-0.07799831033370118
  0
VERTEX
  5
148
  8
0
  6
BYLAYER
 62
  256
 10
70.69172122275984
 20
280.5131529649518
 30
0
  0
VERTEX
  5
149
  8
0
  6
BYLAYER
 62
  256
 10
60.80922945019217
 20
275.0091126250175
 30
0
 42
-0.2173816340427219
  0
VERTEX
  5
14A
  8
0
  6
BYLAYER
 62
  256
 10
52.59616158812423
 20
274.3487994723837
 30
0
 42
-3.668205318180039e-06
  0
VERTEX
  5
14B
  8
0
  6
BYLAYER
 62
  256
 10
47.07593782007459
 20
276.3504140430014
 30
0
 42
0.1949490859027103
  0
VERTEX
  5
14C
  8
0
  6
BYLAYER
 62
  256
 10
38.48484934946955
 20
276.0312737553935
 30
0
 42
0.1948244713992431
  0
VERTEX
  5
14D
  8
0
  6
BYLAYER
 62
  256
 10
32.53566476581412
 20
269.8263116752196
 30
0
 42
0.03096575169187338
  0
VERTEX
  5
14E
  8
0
  6
BYLAYER
 62
  256
 10
26.8372498526456
 20
252.5067488836098
 30
0
 42
-0.2435153206128368
  0
VERTEX
  5
14F
  8
0
  6
BYLAYER
 62
  256
 10
23.6882027486573
 20
249.021324253982
 30
0
 42
-0.2436677787623328
  0
VERTEX
  5
150
  8
0
  6
BYLAYER
 62
  256
 10
19.02735144486263
 20
249.5879189300104
 30
0
  0
VERTEX
  5
151
  8
0
  6
BYLAYER
 62
  256
 10
10.47078488365859
 20
255.4435052955817
 30
0
 42
-0.1635410776657699
  0
VERTEX
  5
152
  8
0
  6
BYLAYER
 62
  256
 10
10.08701062302436
 20
255.952076136375
 30
0
  0
VERTEX
  5
153
  8
0
  6
BYLAYER
 62
  256
 10
8.987369396607269
 20
259.1025757901839
 30
0
 42
0.6406541327996139
  0
VERTEX
  5
154
  8
0
  6
BYLAYER
 62
  256
 10
7.38731218225314
 20
259.302117542189
 30
0
  0
VERTEX
  5
155
  8
0
  6
BYLAYER
 62
  256
 10
7.1918551120907
 20
258.9716701076832
 30
0
 42
-0.4318651340149258
  0
VERTEX
  5
156
  8
0
  6
BYLAYER
 62
  256
 10
5.769518867876087
 20
258.6607617717667
 30
0
  0
VERTEX
  5
157
  8
0
  6
BYLAYER
 62
  256
 10
5.108514355817638
 20
259.1131124875247
 30
0
 42
-0.3718348653119433
  0
VERTEX
  5
158
  8
0
  6
BYLAYER
 62
  256
 10
4.683545230664777
 20
260.7241318024932
 30
0
 42
-0.000135530305352785
  0
VERTEX
  5
159
  8
0
  6
BYLAYER
 62
  256
 10
4.816420944261878
 20
260.9937403491382
 30
0
 42
-0.0034667709057892
  0
VERTEX
  5
15A
  8
0
  6
BYLAYER
 62
  256
 10
5.283583869154681
 20
261.925592262757
 30
0
 42
0.4142385902997749
  0
VERTEX
  5
15B
  8
0
  6
BYLAYER
 62
  256
 10
4.549555999060185
 20
264.3415709763556
 30
0
 42
0.4144220932559698
  0
VERTEX
  5
15C
  8
0
  6
BYLAYER
 62
  256
 10
2.136719317486396
 20
263.6075434701386
 30
0
 42
0.008943230999717352
  0
VERTEX
  5
15D
  8
0
  6
BYLAYER
 62
  256
 10
1.069530678783092
 20
261.4281672580694
 30
0
 42
0.3672405695660073
  0
VERTEX
  5
15E
  8
0
  6
BYLAYER
 62
  256
 10
2.375827164860226
 20
256.6563616655102
 30
0
  0
VERTEX
  5
15F
  8
0
  6
BYLAYER
 62
  256
 10
21.71906308291265
 20
243.4215486229765
 30
0
 42
-0.290063674299161
  0
VERTEX
  5
160
  8
0
  6
BYLAYER
 62
  256
 10
23.87444418608047
 20
238.4092042782762
 30
0
 42
0.02434037690786563
  0
VERTEX
  5
161
  8
0
  6
BYLAYER
 62
  256
 10
22.29781861314184
 20
224.1029363484489
 30
0
 42
-0.603008307335434
  0
VERTEX
  5
162
  8
0
  6
BYLAYER
 62
  256
 10
19.07403798971865
 20
222.6460508173279
 30
0
  0
VERTEX
  5
163
  8
0
  6
BYLAYER
 62
  256
 10
13.18856503815697
 20
227.2214298687761
 30
0
 42
0.6307829792372016
  0
VERTEX
  5
164
  8
0
  6
BYLAYER
 62
  256
 10
2.856689080324912
 20
222.04208008425
 30
0
  0
VERTEX
  5
165
  8
0
  6
BYLAYER
 62
  256
 10
2.999999876962676
 20
215.0008591996109
 30
0
  0
SEQEND
  5
166
  8
0
  6
BYLAYER
 62
  256
  0
POLYLINE
  5
167
  8
0
  6
BYLAYER
 62
  256
 66
    1
 10
0
 20
0
 30
0
 70
    0
  0
VERTEX
  5
168
  8
0
  6
BYLAYER
 62
  256
 10
218
 20
143
 30
0
  0
VERTEX
  5
169
  8
0
  6
BYLAYER
 62
  256
 10
218.1412940629747
 20
150.0421208396658
 30
0
 42
0.6307829792372016
  0
VERTEX
  5
16A
  8
0
  6
BYLAYER
 62
  256
 10
207.8079351637715
 20
155.2185113638398
 30
0
  0
VERTEX
  5
16B
  8
0
  6
BYLAYER
 62
  256
 10
201.9237728415544
 20
150.6414469013491
 30
0
 42
-0.6030083073354373
  0
VERTEX
  5
16C
  8
0
  6
BYLAYER
 62
  256
 10
198.6995750985193
 20
152.0974090823672
 30
0
 42
0.02434037690786563
  0
VERTEX
  5
16D
  8
0
  6
BYLAYER
 62
  256
 10
197.118852276962
 20
166.4032248800998
 30
0
 42
-0.2900636742991612
  0
VERTEX
  5
16E
  8
0
  6
BYLAYER
 62
  256
 10
199.2727977569622
 20
171.4161863201001
 30
0
  0
VERTEX
  5
16F
  8
0
  6
BYLAYER
 62
  256
 10
218.6122424329623
 20
184.6565387201001
 30
0
 42
0.367240569566007
  0
VERTEX
  5
170
  8
0
  6
BYLAYER
 62
  256
 10
219.9171722209621
 20
189.4287182401
 30
0
 42
0.008943230999717352
  0
VERTEX
  5
171
  8
0
  6
BYLAYER
 62
  256
 10
218.8493594529623
 20
191.6077887201
 30
0
 42
0.414422093255966
  0
VERTEX
  5
172
  8
0
  6
BYLAYER
 62
  256
 10
216.4363126449623
 20
192.3411251601
 30
0
 42
0.4142385902997756
  0
VERTEX
  5
173
  8
0
  6
BYLAYER
 62
  256
 10
215.7029767409624
 20
189.9249363200998
 30
0
 42
-0.0034667709057892
  0
VERTEX
  5
174
  8
0
  6
BYLAYER
 62
  256
 10
216.1704065289632
 20
188.9932182400991
 30
0
 42
-0.000135530305352563
  0
VERTEX
  5
175
  8
0
  6
BYLAYER
 62
  256
 10
216.3033594529632
 20
188.723647760099
 30
0
 42
-0.371834865311942
  0
VERTEX
  5
176
  8
0
  6
BYLAYER
 62
  256
 10
215.8788517409622
 20
187.1125068001001
 30
0
  0
VERTEX
  5
177
  8
0
  6
BYLAYER
 62
  256
 10
215.2179768091995
 20
186.6599667912876
 30
0
 42
-0.4318651340149226
  0
VERTEX
  5
178
  8
0
  6
BYLAYER
 62
  256
 10
213.7955515792113
 20
186.9704677575371
 30
0
  0
VERTEX
  5
179
  8
0
  6
BYLAYER
 62
  256
 10
213.5999998769627
 20
187.3008591996109
 30
0
 42
0.6406541327996248
  0
VERTEX
  5
17A
  8
0
  6
BYLAYER
 62
  256
 10
211.9999998769627
 20
187.1008591996109
 30
0
  0
VERTEX
  5
17B
  8
0
  6
BYLAYER
 62
  256
 10
210.9012609983369
 20
183.9500447379069
 30
0
 42
-0.1635410776657717
  0
VERTEX
  5
17C
  8
0
  6
BYLAYER
 62
  256
 10
210.517632408065
 20
183.4413640050729
 30
0
  0
VERTEX
  5
17D
  8
0
  6
BYLAYER
 62
  256
 10
201.9627432369623
 20
177.5833272801001
 30
0
 42
-0.2436677787623328
  0
VERTEX
  5
17E
  8
0
  6
BYLAYER
 62
  256
 10
197.3020543969623
 20
177.0153977601002
 30
0
 42
-0.2435153206128368
  0
VERTEX
  5
17F
  8
0
  6
BYLAYER
 62
  256
 10
194.1520091969623
 20
180.4999203600998
 30
0
 42
0.03096575169187361
  0
VERTEX
  5
180
  8
0
  6
BYLAYER
 62
  256
 10
188.4486341969622
 20
197.8178504161
 30
0
 42
0.1948244713992431
  0
VERTEX
  5
181
  8
0
  6
BYLAYER
 62
  256
 10
182.4976727569623
 20
204.0211083961001
 30
0
 42
0.1949490859027101
  0
VERTEX
  5
182
  8
0
  6
BYLAYER
 62
  256
 10
173.9064932370966
 20
204.3377881841152
 30
0
 42
-3.668205318180039e-06
  0
VERTEX
  5
183
  8
0
  6
BYLAYER
 62
  256
 10
168.3868429573622
 20
202.3345927041326
 30
0
 42
-0.2173816340427221
  0
VERTEX
  5
184
  8
0
  6
BYLAYER
 62
  256
 10
160.1735863186323
 20
202.9925536080798
 30
0
  0
VERTEX
  5
185
  8
0
  6
BYLAYER
 62
  256
 10
150.2895185949301
 20
208.493763377918
 30
0
 42
-0.07799831033370107
  0
VERTEX
  5
186
  8
0
  6
BYLAYER
 62
  256
 10
147.8464795485376
 20
210.4037824045717
 30
0
  0
VERTEX
  5
187
  8
0
  6
BYLAYER
 62
  256
 10
145.8032227187865
 20
212.5902299862255
 30
0
 42
0.3096887855888146
  0
VERTEX
  5
188
  8
0
  6
BYLAYER
 62
  256
 10
137.7922051573088
 20
212.9816686904927
 30
0
 42
0.7606118229890843
  0
VERTEX
  5
189
  8
0
  6
BYLAYER
 62
  256
 10
137.9999998769627
 20
212.0008591996109
 30
0
  0
VERTEX
  5
18A
  8
0
  6
BYLAYER
 62
  256
 10
139.9999998769627
 20
212.0008591996109
 30
0
 42
-0.767754333359477
  0
VERTEX
  5
18B
  8
0
  6
BYLAYER
 62
  256
 10
139.9999998769627
 20
210.0008591996109
 30
0
  0
VERTEX
  5
18C
  8
0
  6
BYLAYER
 62
  256
 10
137.7147172418121
 20
209.4649325610426
 30
0
 42
0.1240974609032127
  0
VERTEX
  5
18D
  8
0
  6
BYLAYER
 62
  256
 10
46.89999987696288
 20
165.0008591996115
 30
0
 42
-2.000000000000048
  0
VERTEX
  5
18E
  8
0
  6
BYLAYER
 62
  256
 10
46.89999987696266
 20
173.000859199611
 30
0
 42
1.000000000000005
  0
VERTEX
  5
18F
  8
0
  6
BYLAYER
 62
  256
 10
49.29999987696267
 20
176.200859199611
 30
0
 42
2.018919279332302
  0
VERTEX
  5
190
  8
0
  6
BYLAYER
 62
  256
 10
49.40754260703514
 20
161.8827855081952
 30
0
 42
-0.005692624657014215
  0
VERTEX
  5
191
  8
0
  6
BYLAYER
 62
  256
 10
53.04327660433293
 20
164.8901989413453
 30
0
 42
-0.1042294315126276
  0
VERTEX
  5
192
  8
0
  6
BYLAYER
 62
  256
 10
53.77805079487479
 20
165.2650647076114
 30
0
  0
VERTEX
  5
193
  8
0
  6
BYLAYER
 62
  256
 10
57.51659519830989
 20
166.2758206260775
 30
0
 42
0.1975132317693685
  0
VERTEX
  5
194
  8
0
  6
BYLAYER
 62
  256
 10
58.72352026955997
 20
167.2010761417224
 30
0
  0
VERTEX
  5
195
  8
0
  6
BYLAYER
 62
  256
 10
60.44079337763389
 20
170.1540534899632
 30
0
 42
-0.2096602416281839
  0
VERTEX
  5
196
  8
0
  6
BYLAYER
 62
  256
 10
61.73832755977116
 20
171.1015518385426
 30
0
  0
VERTEX
  5
197
  8
0
  6
BYLAYER
 62
  256
 10
65.07390136970014
 20
171.8383298662759
 30
0
 42
0.1975131548398205
  0
VERTEX
  5
198
  8
0
  6
BYLAYER
 62
  256
 10
66.32266396249202
 20
172.7062908201068
 30
0
  0
VERTEX
  5
199
  8
0
  6
BYLAYER
 62
  256
 10
68.17578908198809
 20
175.5759690288255
 30
0
 42
-0.2096601661549241
  0
VERTEX
  5
19A
  8
0
  6
BYLAYER
 62
  256
 10
69.51609954596108
 20
176.4619228834843
 30
0
  0
VERTEX
  5
19B
  8
0
  6
BYLAYER
 62
  256
 10
72.88240654576197
 20
177.0423384927007
 30
0
 42
0.1975130730975577
  0
VERTEX
  5
19C
  8
0
  6
BYLAYER
 62
  256
 10
74.17028905481936
 20
177.8511160287626
 30
0
  0
VERTEX
  5
19D
  8
0
  6
BYLAYER
 62
  256
 10
76.15523379221446
 20
180.6312499248458
 30
0
 42
-0.2096600861878925
  0
VERTEX
  5
19E
  8
0
  6
BYLAYER
 62
  256
 10
77.53540371022586
 20
181.4537312720789
 30
0
  0
VERTEX
  5
19F
  8
0
  6
BYLAYER
 62
  256
 10
80.92511838935329
 20
181.8765212206961
 30
0
 42
0.1975129867204849
  0
VERTEX
  5
1A0
  8
0
  6
BYLAYER
 62
  256
 10
82.24931807489696
 20
182.6243552810553
 30
0
  0
VERTEX
  5
1A1
  8
0
  6
BYLAYER
 62
  256
 10
84.36176316283186
 20
185.308894520118
 30
0
 42
-0.2096600019011294
  0
VERTEX
  5
1A2
  8
0
  6
BYLAYER
 62
  256
 10
85.77878896307561
 20
186.066113477799
 30
0
  0
VERTEX
  5
1A3
  8
0
  6
BYLAYER
 62
  256
 10
89.18453486039954
 20
186.3303575152893
 30
0
 42
0.1975128958965787
  0
VERTEX
  5
1A4
  8
0
  6
BYLAYER
 62
  256
 10
90.54216994763146
 20
187.0156206703459
 30
0
  0
VERTEX
  5
1A5
  8
0
  6
BYLAYER
 62
  256
 10
93.07643319456456
 20
189.9441396410531
 30
0
 42
-0.104228556179958
  0
VERTEX
  5
1A6
  8
0
  6
BYLAYER
 62
  256
 10
93.73322788073231
 20
190.4431657037406
 30
0
 42
-0.06202534784075871
  0
VERTEX
  5
1A7
  8
0
  6
BYLAYER
 62
  256
 10
141.3493747580351
 20
206.1243274393915
 30
0
 42
-0.1773466634451882
  0
VERTEX
  5
1A8
  8
0
  6
BYLAYER
 62
  256
 10
148.1425591177504
 20
205.050359951214
 30
0
  0
VERTEX
  5
1A9
  8
0
  6
BYLAYER
 62
  256
 10
158.1850477569623
 20
199.4614443001
 30
0
 42
0.2174151564117146
  0
VERTEX
  5
1AA
  8
0
  6
BYLAYER
 62
  256
 10
169.7713363170624
 20
198.5333895124495
 30
0
 42
3.636029430003554e-06
  0
VERTEX
  5
1AB
  8
0
  6
BYLAYER
 62
  256
 10
175.2909839175836
 20
200.5365849921316
 30
0
 42
-0.1949342117762918
  0
VERTEX
  5
1AC
  8
0
  6
BYLAYER
 62
  256
 10
180.8252884369622
 20
200.3350615881
 30
0
 42
-0.1946559291364974
  0
VERTEX
  5
1AD
  8
0
  6
BYLAYER
 62
  256
 10
184.6584227569623
 20
196.3401863200998
 30
0
 42
-0.07128644921009472
  0
VERTEX
  5
1AE
  8
0
  6
BYLAYER
 62
  256
 10
194.2545968460971
 20
156.6162123566128
 30
0
  0
VERTEX
  5
1AF
  8
0
  6
BYLAYER
 62
  256
 10
194.7071071424551
 20
151.8520529742276
 30
0
 42
0.6030083073354312
  0
VERTEX
  5
1B0
  8
0
  6
BYLAYER
 62
  256
 10
204.3797003715609
 20
147.4841664311728
 30
0
  0
VERTEX
  5
1B1
  8
0
  6
BYLAYER
 62
  256
 10
210.263862693778
 20
152.0612308936635
 30
0
 42
-0.6307829792371954
  0
VERTEX
  5
1B2
  8
0
  6
BYLAYER
 62
  256
 10
214.1420235086165
 20
150.1185082277503
 30
0
 42
-0.2714817434945557
  0
VERTEX
  5
1B3
  8
0
  6
BYLAYER
 62
  256
 10
209.8999998769627
 20
143.000859199611
 30
0
 42
-0.2714817434945547
  0
VERTEX
  5
1B4
  8
0
  6
BYLAYER
 62
  256
 10
214.1440622836374
 20
135.8812463398413
 30
0
 42
-0.6307829792371886
  0
VERTEX
  5
1B5
  8
0
  6
BYLAYER
 62
  256
 10
210.2664580233713
 20
133.9374130488495
 30
0
  0
VERTEX
  5
1B6
  8
0
  6
BYLAYER
 62
  256
 10
204.3809850718097
 20
138.5127921002976
 30
0
 42
0.603008307335433
  0
VERTEX
  5
1B7
  8
0
  6
BYLAYER
 62
  256
 10
194.7096432015401
 20
134.1421355069341
 30
0
  0
VERTEX
  5
1B8
  8
0
  6
BYLAYER
 62
  256
 10
194.25849737837
 20
129.3778467210483
 30
0
 42
-0.0712864492100945
  0
VERTEX
  5
1B9
  8
0
  6
BYLAYER
 62
  256
 10
184.673700623789
 20
89.65112604372393
 30
0
 42
-0.1946559291364972
  0
VERTEX
  5
1BA
  8
0
  6
BYLAYER
 62
  256
 10
180.8417105927538
 20
85.65515313039147
 30
0
 42
-0.1949342117762909
  0
VERTEX
  5
1BB
  8
0
  6
BYLAYER
 62
  256
 10
175.3074640163104
 20
85.45204471063334
 30
0
 42
3.636029430003554e-06
  0
VERTEX
  5
1BC
  8
0
  6
BYLAYER
 62
  256
 10
169.7872429274858
 20
87.45365928194477
 30
0
 42
0.2174151564117151
  0
VERTEX
  5
1BD
  8
0
  6
BYLAYER
 62
  256
 10
158.2012206374075
 20
86.52228622056765
 30
0
  0
VERTEX
  5
1BE
  8
0
  6
BYLAYER
 62
  256
 10
148.1603330747803
 20
80.93049463122493
 30
0
 42
-0.1773466634451884
  0
VERTEX
  5
1BF
  8
0
  6
BYLAYER
 62
  256
 10
141.3674565778194
 20
79.85458161997374
 30
0
 42
-0.06202534784075871
  0
VERTEX
  5
1C0
  8
0
  6
BYLAYER
 62
  256
 10
93.74682057068352
 20
95.52210545421164
 30
0
 42
-0.1042285561799577
  0
VERTEX
  5
1C1
  8
0
  6
BYLAYER
 62
  256
 10
93.08988299045319
 20
96.02094339051985
 30
0
  0
VERTEX
  5
1C2
  8
0
  6
BYLAYER
 62
  256
 10
90.5547811200029
 20
98.94873642845603
 30
0
 42
0.1975128958965778
  0
VERTEX
  5
1C3
  8
0
  6
BYLAYER
 62
  256
 10
89.19694982917218
 20
99.63361072889546
 30
0
  0
VERTEX
  5
1C4
  8
0
  6
BYLAYER
 62
  256
 10
85.79112839206809
 20
99.89687935036504
 30
0
 42
-0.2096600019011294
  0
VERTEX
  5
1C5
  8
0
  6
BYLAYER
 62
  256
 10
84.37388578252876
 20
100.6536924409853
 30
0
  0
VERTEX
  5
1C6
  8
0
  6
BYLAYER
 62
  256
 10
82.26067192954051
 20
103.3376265659492
 30
0
 42
0.197512986720486
  0
VERTEX
  5
1C7
  8
0
  6
BYLAYER
 62
  256
 10
80.93625811872766
 20
104.0850813450198
 30
0
  0
VERTEX
  5
1C8
  8
0
  6
BYLAYER
 62
  256
 10
77.54642249163427
 20
104.5069004624529
 30
0
 42
-0.2096600861878927
  0
VERTEX
  5
1C9
  8
0
  6
BYLAYER
 62
  256
 10
76.16601707167581
 20
105.3289864954684
 30
0
  0
VERTEX
  5
1CA
  8
0
  6
BYLAYER
 62
  256
 10
74.1802761857009
 20
108.1085517896162
 30
0
 42
0.197513073097557
  0
VERTEX
  5
1CB
  8
0
  6
BYLAYER
 62
  256
 10
72.89216209568121
 20
108.9169604431246
 30
0
  0
VERTEX
  5
1CC
  8
0
  6
BYLAYER
 62
  256
 10
69.52568900298556
 20
109.4964119186486
 30
0
 42
-0.209660166154922
  0
VERTEX
  5
1CD
  8
0
  6
BYLAYER
 62
  256
 10
68.18512485691298
 20
110.3819818722292
 30
0
  0
VERTEX
  5
1CE
  8
0
  6
BYLAYER
 62
  256
 10
66.33117793795118
 20
113.2511292284615
 30
0
 42
0.1975131548398249
  0
VERTEX
  5
1CF
  8
0
  6
BYLAYER
 62
  256
 10
65.08216681246961
 20
114.1187325012505
 30
0
  0
VERTEX
  5
1D0
  8
0
  6
BYLAYER
 62
  256
 10
61.746382126209
 20
114.8545551908602
 30
0
 42
-0.2096602416281843
  0
VERTEX
  5
1D1
  8
0
  6
BYLAYER
 62
  256
 10
60.44857663388257
 20
115.801681886959
 30
0
  0
VERTEX
  5
1D2
  8
0
  6
BYLAYER
 62
  256
 10
58.73045786390867
 20
118.7541672872954
 30
0
 42
0.1975132317693655
  0
VERTEX
  5
1D3
  8
0
  6
BYLAYER
 62
  256
 10
57.52326784909786
 20
119.6790771018094
 30
0
  0
VERTEX
  5
1D4
  8
0
  6
BYLAYER
 62
  256
 10
53.7844341186257
 20
120.6887622601896
 30
0
 42
-0.104229431512629
  0
VERTEX
  5
1D5
  8
0
  6
BYLAYER
 62
  256
 10
53.04955259671212
 20
121.0634175718486
 30
0
 42
-0.005692624657014215
  0
VERTEX
  5
1D6
  8
0
  6
BYLAYER
 62
  256
 10
49.41295742570696
 20
124.0697896079121
 30
0
 42
2.018919279332313
  0
VERTEX
  5
1D7
  8
0
  6
BYLAYER
 62
  256
 10
49.3095153944937
 20
109.7516857034916
 30
0
 42
0.9999999999999981
  0
VERTEX
  5
1D8
  8
0
  6
BYLAYER
 62
  256
 10
46.90859901333848
 20
112.9509982125631
 30
0
 42
-2.000000000000028
  0
VERTEX
  5
1D9
  8
0
  6
BYLAYER
 62
  256
 10
46.90630781437625
 20
120.950997884463
 30
0
 42
0.1240974609032127
  0
VERTEX
  5
1DA
  8
0
  6
BYLAYER
 62
  256
 10
137.7337559595361
 20
76.51293566988784
 30
0
  0
VERTEX
  5
1DB
  8
0
  6
BYLAYER
 62
  256
 10
140.0191919902814
 20
75.97766355794947
 30
0
 42
-0.7677543333594467
  0
VERTEX
  5
1DC
  8
0
  6
BYLAYER
 62
  256
 10
140.0197647900221
 20
73.97766363997437
 30
0
  0
VERTEX
  5
1DD
  8
0
  6
BYLAYER
 62
  256
 10
138.019764872047
 20
73.97709084023374
 30
0
 42
0.7606118229890888
  0
VERTEX
  5
1DE
  8
0
  6
BYLAYER
 62
  256
 10
137.8122510646262
 20
72.99622187719666
 30
0
 42
0.3096887855888149
  0
VERTEX
  5
1DF
  8
0
  6
BYLAYER
 62
  256
 10
145.8231561895585
 20
73.38995491980052
 30
0
  0
VERTEX
  5
1E0
  8
0
  6
BYLAYER
 62
  256
 10
147.8657867372067
 20
75.57698760027394
 30
0
 42
-0.07799831033370118
  0
VERTEX
  5
1E1
  8
0
  6
BYLAYER
 62
  256
 10
150.3082786542028
 20
77.48770623465919
 30
0
  0
VERTEX
  5
1E2
  8
0
  6
BYLAYER
 62
  256
 10
160.1907704267705
 20
82.99174657459344
 30
0
 42
-0.2173816340427219
  0
VERTEX
  5
1E3
  8
0
  6
BYLAYER
 62
  256
 10
168.4038382887084
 20
83.65205972729018
 30
0
 42
-3.668205318180039e-06
  0
VERTEX
  5
1E4
  8
0
  6
BYLAYER
 62
  256
 10
173.9240620568881
 20
81.65044515660958
 30
0
 42
0.1949490859027103
  0
VERTEX
  5
1E5
  8
0
  6
BYLAYER
 62
  256
 10
182.5151505274931
 20
81.96958544421746
 30
0
 42
0.1948244713992431
  0
VERTEX
  5
1E6
  8
0
  6
BYLAYER
 62
  256
 10
188.4643351111485
 20
88.1745475243913
 30
0
 42
0.03096575169187361
  0
VERTEX
  5
1E7
  8
0
  6
BYLAYER
 62
  256
 10
194.1627500243171
 20
105.4941103160012
 30
0
 42
-0.2435153206128366
  0
VERTEX
  5
1E8
  8
0
  6
BYLAYER
 62
  256
 10
197.3117971283054
 20
108.979534945629
 30
0
 42
-0.2436677787623328
  0
VERTEX
  5
1E9
  8
0
  6
BYLAYER
 62
  256
 10
201.9726484321
 20
108.4129402696005
 30
0
  0
VERTEX
  5
1EA
  8
0
  6
BYLAYER
 62
  256
 10
210.5292149933041
 20
102.5573539040293
 30
0
 42
-0.1635410776657699
  0
VERTEX
  5
1EB
  8
0
  6
BYLAYER
 62
  256
 10
210.9129892539383
 20
102.0487830632359
 30
0
  0
VERTEX
  5
1EC
  8
0
  6
BYLAYER
 62
  256
 10
212.0126304803554
 20
98.89828340942694
 30
0
 42
0.640654132799614
  0
VERTEX
  5
1ED
  8
0
  6
BYLAYER
 62
  256
 10
213.6126876947095
 20
98.69874165742195
 30
0
  0
VERTEX
  5
1EE
  8
0
  6
BYLAYER
 62
  256
 10
213.808144764872
 20
99.02918909192773
 30
0
 42
-0.4318651340149258
  0
VERTEX
  5
1EF
  8
0
  6
BYLAYER
 62
  256
 10
215.2304810090866
 20
99.34009742784423
 30
0
  0
VERTEX
  5
1F0
  8
0
  6
BYLAYER
 62
  256
 10
215.891485521145
 20
98.88774671208624
 30
0
 42
-0.371834865311943
  0
VERTEX
  5
1F1
  8
0
  6
BYLAYER
 62
  256
 10
216.3164546462978
 20
97.27672739711775
 30
0
 42
-0.000135530305352785
  0
VERTEX
  5
1F2
  8
0
  6
BYLAYER
 62
  256
 10
216.1835789327008
 20
97.00711885047274
 30
0
 42
-0.003466770905788978
  0
VERTEX
  5
1F3
  8
0
  6
BYLAYER
 62
  256
 10
215.716416007808
 20
96.07526693685384
 30
0
 42
0.4142385902997749
  0
VERTEX
  5
1F4
  8
0
  6
BYLAYER
 62
  256
 10
216.4504438779025
 20
93.65928822325534
 30
0
 42
0.4144220932559697
  0
VERTEX
  5
1F5
  8
0
  6
BYLAYER
 62
  256
 10
218.8632805594763
 20
94.39331572947233
 30
0
 42
0.008943230999717352
  0
VERTEX
  5
1F6
  8
0
  6
BYLAYER
 62
  256
 10
219.9304691981796
 20
96.57269194154155
 30
0
 42
0.367240569566007
  0
VERTEX
  5
1F7
  8
0
  6
BYLAYER
 62
  256
 10
218.6241727121024
 20
101.3444975341008
 30
0
  0
VERTEX
  5
1F8
  8
0
  6
BYLAYER
 62
  256
 10
199.28093679405
 20
114.5793105766345
 30
0
 42
-0.290063674299161
  0
VERTEX
  5
1F9
  8
0
  6
BYLAYER
 62
  256
 10
197.1255556908822
 20
119.5916549213348
 30
0
 42
0.02434037690786563
  0
VERTEX
  5
1FA
  8
0
  6
BYLAYER
 62
  256
 10
198.7021812638208
 20
133.897922851162
 30
0
 42
-0.603008307335434
  0
VERTEX
  5
1FB
  8
0
  6
BYLAYER
 62
  256
 10
201.925961887244
 20
135.354808382283
 30
0
  0
VERTEX
  5
1FC
  8
0
  6
BYLAYER
 62
  256
 10
207.8114348388057
 20
130.7794293308349
 30
0
 42
0.6307829792372016
  0
VERTEX
  5
1FD
  8
0
  6
BYLAYER
 62
  256
 10
218.1433107966378
 20
135.958779115361
 30
0
  0
VERTEX
  5
1FE
  8
0
  6
BYLAYER
 62
  256
 10
218
 20
143
 30
0
  0
SEQEND
  5
1FF
  8
0
  6
BYLAYER
 62
  256
  0
POLYLINE
  5
200
  8
0
  6
BYLAYER
 62
  256
 66
    1
 10
0
 20
0
 30
0
 70
    0
  0
VERTEX
  5
201
  8
0
  6
BYLAYER
 62
  256
 10
218
 20
287
 30
0
  0
VERTEX
  5
202
  8
0
  6
BYLAYER
 62
  256
 10
218.1412940629747
 20
294.0421208396659
 30
0
 42
0.6307829792372016
  0
VERTEX
  5
203
  8
0
  6
BYLAYER
 62
  256
 10
207.8079351637715
 20
299.2185113638398
 30
0
  0
VERTEX
  5
204
  8
0
  6
BYLAYER
 62
  256
 10
201.9237728415544
 20
294.641446901349
 30
0
 42
-0.6030083073354373
  0
VERTEX
  5
205
  8
0
  6
BYLAYER
 62
  256
 10
198.6995750985193
 20
296.0974090823672
 30
0
 42
0.02434037690786563
  0
VERTEX
  5
206
  8
0
  6
BYLAYER
 62
  256
 10
197.118852276962
 20
310.4032248800998
 30
0
 42
-0.2900636742991612
  0
VERTEX
  5
207
  8
0
  6
BYLAYER
 62
  256
 10
199.2727977569622
 20
315.4161863201001
 30
0
  0
VERTEX
  5
208
  8
0
  6
BYLAYER
 62
  256
 10
218.6122424329623
 20
328.6565387201001
 30
0
 42
0.367240569566007
  0
VERTEX
  5
209
  8
0
  6
BYLAYER
 62
  256
 10
219.9171722209621
 20
333.4287182401001
 30
0
 42
0.008943230999717352
  0
VERTEX
  5
20A
  8
0
  6
BYLAYER
 62
  256
 10
218.8493594529623
 20
335.6077887201001
 30
0
 42
0.414422093255966
  0
VERTEX
  5
20B
  8
0
  6
BYLAYER
 62
  256
 10
216.4363126449623
 20
336.3411251601
 30
0
 42
0.4142385902997756
  0
VERTEX
  5
20C
  8
0
  6
BYLAYER
 62
  256
 10
215.7029767409624
 20
333.9249363200998
 30
0
 42
-0.0034667709057892
  0
VERTEX
  5
20D
  8
0
  6
BYLAYER
 62
  256
 10
216.1704065289632
 20
332.9932182400991
 30
0
 42
-0.000135530305352563
  0
VERTEX
  5
20E
  8
0
  6
BYLAYER
 62
  256
 10
216.3033594529632
 20
332.723647760099
 30
0
 42
-0.371834865311942
  0
VERTEX
  5
20F
  8
0
  6
BYLAYER
 62
  256
 10
215.8788517409622
 20
331.1125068001001
 30
0
  0
VERTEX
  5
210
  8
0
  6
BYLAYER
 62
  256
 10
215.2179768091995
 20
330.6599667912876
 30
0
 42
-0.4318651340149226
  0
VERTEX
  5
211
  8
0
  6
BYLAYER
 62
  256
 10
213.7955515792113
 20
330.9704677575371
 30
0
  0
VERTEX
  5
212
  8
0
  6
BYLAYER
 62
  256
 10
213.5999998769627
 20
331.300859199611
 30
0
 42
0.6406541327996248
  0
VERTEX
  5
213
  8
0
  6
BYLAYER
 62
  256
 10
211.9999998769627
 20
331.1008591996109
 30
0
  0
VERTEX
  5
214
  8
0
  6
BYLAYER
 62
  256
 10
210.9012609983369
 20
327.950044737907
 30
0
 42
-0.1635410776657717
  0
VERTEX
  5
215
  8
0
  6
BYLAYER
 62
  256
 10
210.517632408065
 20
327.4413640050729
 30
0
  0
VERTEX
  5
216
  8
0
  6
BYLAYER
 62
  256
 10
201.9627432369623
 20
321.5833272801001
 30
0
 42
-0.2436677787623328
  0
VERTEX
  5
217
  8
0
  6
BYLAYER
 62
  256
 10
197.3020543969623
 20
321.0153977601001
 30
0
 42
-0.2435153206128368
  0
VERTEX
  5
218
  8
0
  6
BYLAYER
 62
  256
 10
194.1520091969623
 20
324.4999203600998
 30
0
 42
0.03096575169187361
  0
VERTEX
  5
219
  8
0
  6
BYLAYER
 62
  256
 10
188.4486341969622
 20
341.8178504161
 30
0
 42
0.1948244713992431
  0
VERTEX
  5
21A
  8
0
  6
BYLAYER
 62
  256
 10
182.4976727569623
 20
348.0211083961001
 30
0
 42
0.1949490859027101
  0
VERTEX
  5
21B
  8
0
  6
BYLAYER
 62
  256
 10
173.9064932370966
 20
348.3377881841152
 30
0
 42
-3.668205318180039e-06
  0
VERTEX
  5
21C
  8
0
  6
BYLAYER
 62
  256
 10
168.3868429573622
 20
346.3345927041325
 30
0
 42
-0.2173816340427221
  0
VERTEX
  5
21D
  8
0
  6
BYLAYER
 62
  256
 10
160.1735863186323
 20
346.9925536080798
 30
0
  0
VERTEX
  5
21E
  8
0
  6
BYLAYER
 62
  256
 10
150.2895185949301
 20
352.493763377918
 30
0
 42
-0.07799831033370107
  0
VERTEX
  5
21F
  8
0
  6
BYLAYER
 62
  256
 10
147.8464795485376
 20
354.4037824045717
 30
0
  0
VERTEX
  5
220
  8
0
  6
BYLAYER
 62
  256
 10
145.8032227187865
 20
356.5902299862255
 30
0
 42
0.3096887855888146
  0
VERTEX
  5
221
  8
0
  6
BYLAYER
 62
  256
 10
137.7922051573088
 20
356.9816686904927
 30
0
 42
0.7606118229890843
  0
VERTEX
  5
222
  8
0
  6
BYLAYER
 62
  256
 10
137.9999998769627
 20
356.0008591996109
 30
0
  0
VERTEX
  5
223
  8
0
  6
BYLAYER
 62
  256
 10
139.9999998769627
 20
356.0008591996109
 30
0
 42
-0.767754333359477
  0
VERTEX
  5
224
  8
0
  6
BYLAYER
 62
  256
 10
139.9999998769627
 20
354.0008591996109
 30
0
  0
VERTEX
  5
225
  8
0
  6
BYLAYER
 62
  256
 10
137.7147172418121
 20
353.4649325610426
 30
0
 42
0.1240974609032127
  0
VERTEX
  5
226
  8
0
  6
BYLAYER
 62
  256
 10
46.89999987696288
 20
309.0008591996115
 30
0
 42
-2.000000000000048
  0
VERTEX
  5
227
  8
0
  6
BYLAYER
 62
  256
 10
46.89999987696266
 20
317.000859199611
 30
0
 42
1.000000000000005
  0
VERTEX
  5
228
  8
0
  6
BYLAYER
 62
  256
 10
49.29999987696267
 20
320.200859199611
 30
0
 42
2.018919279332302
  0
VERTEX
  5
229
  8
0
  6
BYLAYER
 62
  256
 10
49.40754260703514
 20
305.8827855081952
 30
0
 42
-0.005692624657014215
  0
VERTEX
  5
22A
  8
0
  6
BYLAYER
 62
  256
 10
53.04327660433293
 20
308.8901989413453
 30
0
 42
-0.1042294315126276
  0
VERTEX
  5
22B
  8
0
  6
BYLAYER
 62
  256
 10
53.77805079487479
 20
309.2650647076114
 30
0
  0
VERTEX
  5
22C
  8
0
  6
BYLAYER
 62
  256
 10
57.51659519830989
 20
310.2758206260775
 30
0
 42
0.1975132317693685
  0
VERTEX
  5
22D
  8
0
  6
BYLAYER
 62
  256
 10
58.72352026955997
 20
311.2010761417224
 30
0
  0
VERTEX
  5
22E
  8
0
  6
BYLAYER
 62
  256
 10
60.44079337763389
 20
314.1540534899632
 30
0
 42
-0.2096602416281839
  0
VERTEX
  5
22F
  8
0
  6
BYLAYER
 62
  256
 10
61.73832755977116
 20
315.1015518385426
 30
0
  0
VERTEX
  5
230
  8
0
  6
BYLAYER
 62
  256
 10
65.07390136970014
 20
315.838329866276
 30
0
 42
0.1975131548398205
  0
VERTEX
  5
231
  8
0
  6
BYLAYER
 62
  256
 10
66.32266396249202
 20
316.7062908201068
 30
0
  0
VERTEX
  5
232
  8
0
  6
BYLAYER
 62
  256
 10
68.17578908198809
 20
319.5759690288255
 30
0
 42
-0.2096601661549241
  0
VERTEX
  5
233
  8
0
  6
BYLAYER
 62
  256
 10
69.51609954596108
 20
320.4619228834842
 30
0
  0
VERTEX
  5
234
  8
0
  6
BYLAYER
 62
  256
 10
72.88240654576197
 20
321.0423384927008
 30
0
 42
0.1975130730975577
  0
VERTEX
  5
235
  8
0
  6
BYLAYER
 62
  256
 10
74.17028905481936
 20
321.8511160287626
 30
0
  0
VERTEX
  5
236
  8
0
  6
BYLAYER
 62
  256
 10
76.15523379221446
 20
324.6312499248458
 30
0
 42
-0.2096600861878925
  0
VERTEX
  5
237
  8
0
  6
BYLAYER
 62
  256
 10
77.53540371022586
 20
325.4537312720789
 30
0
  0
VERTEX
  5
238
  8
0
  6
BYLAYER
 62
  256
 10
80.92511838935329
 20
325.8765212206961
 30
0
 42
0.1975129867204849
  0
VERTEX
  5
239
  8
0
  6
BYLAYER
 62
  256
 10
82.24931807489696
 20
326.6243552810553
 30
0
  0
VERTEX
  5
23A
  8
0
  6
BYLAYER
 62
  256
 10
84.36176316283186
 20
329.308894520118
 30
0
 42
-0.2096600019011294
  0
VERTEX
  5
23B
  8
0
  6
BYLAYER
 62
  256
 10
85.77878896307561
 20
330.066113477799
 30
0
  0
VERTEX
  5
23C
  8
0
  6
BYLAYER
 62
  256
 10
89.18453486039954
 20
330.3303575152893
 30
0
 42
0.1975128958965787
  0
VERTEX
  5
23D
  8
0
  6
BYLAYER
 62
  256
 10
90.54216994763146
 20
331.0156206703459
 30
0
  0
VERTEX
  5
23E
  8
0
  6
BYLAYER
 62
  256
 10
93.07643319456456
 20
333.9441396410531
 30
0
 42
-0.104228556179958
  0
VERTEX
  5
23F
  8
0
  6
BYLAYER
 62
  256
 10
93.73322788073231
 20
334.4431657037406
 30
0
 42
-0.06202534784075871
  0
VERTEX
  5
240
  8
0
  6
BYLAYER
 62
  256
 10
141.3493747580351
 20
350.1243274393915
 30
0
 42
-0.1773466634451882
  0
VERTEX
  5
241
  8
0
  6
BYLAYER
 62
  256
 10
148.1425591177504
 20
349.050359951214
 30
0
  0
VERTEX
  5
242
  8
0
  6
BYLAYER
 62
  256
 10
158.1850477569623
 20
343.4614443001
 30
0
 42
0.2174151564117146
  0
VERTEX
  5
243
  8
0
  6
BYLAYER
 62
  256
 10
169.7713363170624
 20
342.5333895124495
 30
0
 42
3.636029430003554e-06
  0
VERTEX
  5
244
  8
0
  6
BYLAYER
 62
  256
 10
175.2909839175836
 20
344.5365849921316
 30
0
 42
-0.1949342117762918
  0
VERTEX
  5
245
  8
0
  6
BYLAYER
 62
  256
 10
180.8252884369622
 20
344.3350615881
 30
0
 42
-0.1946559291364974
  0
VERTEX
  5
246
  8
0
  6
BYLAYER
 62
  256
 10
184.6584227569623
 20
340.3401863200999
 30
0
 42
-0.07128644921009472
  0
VERTEX
  5
247
  8
0
  6
BYLAYER
 62
  256
 10
194.2545968460971
 20
300.6162123566128
 30
0
  0
VERTEX
  5
248
  8
0
  6
BYLAYER
 62
  256
 10
194.7071071424551
 20
295.8520529742275
 30
0
 42
0.6030083073354312
  0
VERTEX
  5
249
  8
0
  6
BYLAYER
 62
  256
 10
204.3797003715609
 20
291.4841664311729
 30
0
  0
VERTEX
  5
24A
  8
0
  6
BYLAYER
 62
  256
 10
210.263862693778
 20
296.0612308936634
 30
0
 42
-0.6307829792371954
  0
VERTEX
  5
24B
  8
0
  6
BYLAYER
 62
  256
 10
214.1420235086165
 20
294.1185082277502
 30
0
 42
-0.2714817434945557
  0
VERTEX
  5
24C
  8
0
  6
BYLAYER
 62
  256
 10
209.8999998769627
 20
287.000859199611
 30
0
 42
-0.2714817434945547
  0
VERTEX
  5
24D
  8
0
  6
BYLAYER
 62
  256
 10
214.1440622836374
 20
279.8812463398413
 30
0
 42
-0.6307829792371886
  0
VERTEX
  5
24E
  8
0
  6
BYLAYER
 62
  256
 10
210.2664580233713
 20
277.9374130488495
 30
0
  0
VERTEX
  5
24F
  8
0
  6
BYLAYER
 62
  256
 10
204.3809850718097
 20
282.5127921002976
 30
0
 42
0.603008307335433
  0
VERTEX
  5
250
  8
0
  6
BYLAYER
 62
  256
 10
194.7096432015401
 20
278.1421355069341
 30
0
  0
VERTEX
  5
251
  8
0
  6
BYLAYER
 62
  256
 10
194.25849737837
 20
273.3778467210483
 30
0
 42
-0.0712864492100945
  0
VERTEX
  5
252
  8
0
  6
BYLAYER
 62
  256
 10
184.673700623789
 20
233.6511260437239
 30
0
 42
-0.1946559291364972
  0
VERTEX
  5
253
  8
0
  6
BYLAYER
 62
  256
 10
180.8417105927538
 20
229.6551531303915
 30
0
 42
-0.1949342117762909
  0
VERTEX
  5
254
  8
0
  6
BYLAYER
 62
  256
 10
175.3074640163104
 20
229.4520447106333
 30
0
 42
3.636029430003554e-06
  0
VERTEX
  5
255
  8
0
  6
BYLAYER
 62
  256
 10
169.7872429274858
 20
231.4536592819448
 30
0
 42
0.2174151564117151
  0
VERTEX
  5
256
  8
0
  6
BYLAYER
 62
  256
 10
158.2012206374075
 20
230.5222862205677
 30
0
  0
VERTEX
  5
257
  8
0
  6
BYLAYER
 62
  256
 10
148.1603330747803
 20
224.9304946312249
 30
0
 42
-0.1773466634451884
  0
VERTEX
  5
258
  8
0
  6
BYLAYER
 62
  256
 10
141.3674565778194
 20
223.8545816199737
 30
0
 42
-0.06202534784075871
  0
VERTEX
  5
259
  8
0
  6
BYLAYER
 62
  256
 10
93.74682057068352
 20
239.5221054542116
 30
0
 42
-0.1042285561799577
  0
VERTEX
  5
25A
  8
0
  6
BYLAYER
 62
  256
 10
93.08988299045319
 20
240.0209433905198
 30
0
  0
VERTEX
  5
25B
  8
0
  6
BYLAYER
 62
  256
 10
90.5547811200029
 20
242.948736428456
 30
0
 42
0.1975128958965778
  0
VERTEX
  5
25C
  8
0
  6
BYLAYER
 62
  256
 10
89.19694982917218
 20
243.6336107288955
 30
0
  0
VERTEX
  5
25D
  8
0
  6
BYLAYER
 62
  256
 10
85.79112839206809
 20
243.896879350365
 30
0
 42
-0.2096600019011294
  0
VERTEX
  5
25E
  8
0
  6
BYLAYER
 62
  256
 10
84.37388578252876
 20
244.6536924409853
 30
0
  0
VERTEX
  5
25F
  8
0
  6
BYLAYER
 62
  256
 10
82.26067192954051
 20
247.3376265659493
 30
0
 42
0.197512986720486
  0
VERTEX
  5
260
  8
0
  6
BYLAYER
 62
  256
 10
80.93625811872766
 20
248.0850813450198
 30
0
  0
VERTEX
  5
261
  8
0
  6
BYLAYER
 62
  256
 10
77.54642249163427
 20
248.5069004624528
 30
0
 42
-0.2096600861878927
  0
VERTEX
  5
262
  8
0
  6
BYLAYER
 62
  256
 10
76.16601707167581
 20
249.3289864954684
 30
0
  0
VERTEX
  5
263
  8
0
  6
BYLAYER
 62
  256
 10
74.1802761857009
 20
252.1085517896161
 30
0
 42
0.197513073097557
  0
VERTEX
  5
264
  8
0
  6
BYLAYER
 62
  256
 10
72.89216209568121
 20
252.9169604431246
 30
0
  0
VERTEX
  5
265
  8
0
  6
BYLAYER
 62
  256
 10
69.52568900298556
 20
253.4964119186486
 30
0
 42
-0.209660166154922
  0
VERTEX
  5
266
  8
0
  6
BYLAYER
 62
  256
 10
68.18512485691298
 20
254.3819818722292
 30
0
  0
VERTEX
  5
267
  8
0
  6
BYLAYER
 62
  256
 10
66.33117793795118
 20
257.2511292284615
 30
0
 42
0.1975131548398249
  0
VERTEX
  5
268
  8
0
  6
BYLAYER
 62
  256
 10
65.08216681246961
 20
258.1187325012505
 30
0
  0
VERTEX
  5
269
  8
0
  6
BYLAYER
 62
  256
 10
61.746382126209
 20
258.8545551908601
 30
0
 42
-0.2096602416281843
  0
VERTEX
  5
26A
  8
0
  6
BYLAYER
 62
  256
 10
60.44857663388257
 20
259.8016818869589
 30
0
  0
VERTEX
  5
26B
  8
0
  6
BYLAYER
 62
  256
 10
58.73045786390867
 20
262.7541672872954
 30
0
 42
0.1975132317693655
  0
VERTEX
  5
26C
  8
0
  6
BYLAYER
 62
  256
 10
57.52326784909786
 20
263.6790771018094
 30
0
  0
VERTEX
  5
26D
  8
0
  6
BYLAYER
 62
  256
 10
53.7844341186257
 20
264.6887622601897
 30
0
 42
-0.104229431512629
  0
VERTEX
  5
26E
  8
0
  6
BYLAYER
 62
  256
 10
53.04955259671212
 20
265.0634175718486
 30
0
 42
-0.005692624657014215
  0
VERTEX
  5
26F
  8
0
  6
BYLAYER
 62
  256
 10
49.41295742570696
 20
268.0697896079121
 30
0
 42
2.018919279332313
  0
VERTEX
  5
270
  8
0
  6
BYLAYER
 62
  256
 10
49.3095153944937
 20
253.7516857034916
 30
0
 42
0.9999999999999981
  0
VERTEX
  5
271
  8
0
  6
BYLAYER
 62
  256
 10
46.90859901333848
 20
256.9509982125631
 30
0
 42
-2.000000000000028
  0
VERTEX
  5
272
  8
0
  6
BYLAYER
 62
  256
 10
46.90630781437625
 20
264.950997884463
 30
0
 42
0.1240974609032127
  0
VERTEX
  5
273
  8
0
  6
BYLAYER
 62
  256
 10
137.7337559595361
 20
220.5129356698878
 30
0
  0
VERTEX
  5
274
  8
0
  6
BYLAYER
 62
  256
 10
140.0191919902814
 20
219.9776635579495
 30
0
 42
-0.7677543333594467
  0
VERTEX
  5
275
  8
0
  6
BYLAYER
 62
  256
 10
140.0197647900221
 20
217.9776636399744
 30
0
  0
VERTEX
  5
276
  8
0
  6
BYLAYER
 62
  256
 10
138.019764872047
 20
217.9770908402337
 30
0
 42
0.7606118229890888
  0
VERTEX
  5
277
  8
0
  6
BYLAYER
 62
  256
 10
137.8122510646262
 20
216.9962218771967
 30
0
 42
0.3096887855888149
  0
VERTEX
  5
278
  8
0
  6
BYLAYER
 62
  256
 10
145.8231561895585
 20
217.3899549198005
 30
0
  0
VERTEX
  5
279
  8
0
  6
BYLAYER
 62
  256
 10
147.8657867372067
 20
219.5769876002739
 30
0
 42
-0.07799831033370118
  0
VERTEX
  5
27A
  8
0
  6
BYLAYER
 62
  256
 10
150.3082786542028
 20
221.4877062346592
 30
0
  0
VERTEX
  5
27B
  8
0
  6
BYLAYER
 62
  256
 10
160.1907704267705
 20
226.9917465745934
 30
0
 42
-0.2173816340427219
  0
VERTEX
  5
27C
  8
0
  6
BYLAYER
 62
  256
 10
168.4038382887084
 20
227.6520597272902
 30
0
 42
-3.668205318180039e-06
  0
VERTEX
  5
27D
  8
0
  6
BYLAYER
 62
  256
 10
173.9240620568881
 20
225.6504451566096
 30
0
 42
0.1949490859027103
  0
VERTEX
  5
27E
  8
0
  6
BYLAYER
 62
  256
 10
182.5151505274931
 20
225.9695854442174
 30
0
 42
0.1948244713992431
  0
VERTEX
  5
27F
  8
0
  6
BYLAYER
 62
  256
 10
188.4643351111485
 20
232.1745475243913
 30
0
 42
0.03096575169187361
  0
VERTEX
  5
280
  8
0
  6
BYLAYER
 62
  256
 10
194.1627500243171
 20
249.4941103160012
 30
0
 42
-0.2435153206128366
  0
VERTEX
  5
281
  8
0
  6
BYLAYER
 62
  256
 10
197.3117971283054
 20
252.979534945629
 30
0
 42
-0.2436677787623328
  0
VERTEX
  5
282
  8
0
  6
BYLAYER
 62
  256
 10
201.9726484321
 20
252.4129402696005
 30
0
  0
VERTEX
  5
283
  8
0
  6
BYLAYER
 62
  256
 10
210.5292149933041
 20
246.5573539040292
 30
0
 42
-0.1635410776657699
  0
VERTEX
  5
284
  8
0
  6
BYLAYER
 62
  256
 10
210.9129892539383
 20
246.0487830632359
 30
0
  0
VERTEX
  5
285
  8
0
  6
BYLAYER
 62
  256
 10
212.0126304803554
 20
242.8982834094269
 30
0
 42
0.640654132799614
  0
VERTEX
  5
286
  8
0
  6
BYLAYER
 62
  256
 10
213.6126876947095
 20
242.6987416574219
 30
0
  0
VERTEX
  5
287
  8
0
  6
BYLAYER
 62
  256
 10
213.808144764872
 20
243.0291890919277
 30
0
 42
-0.4318651340149258
  0
VERTEX
  5
288
  8
0
  6
BYLAYER
 62
  256
 10
215.2304810090866
 20
243.3400974278442
 30
0
  0
VERTEX
  5
289
  8
0
  6
BYLAYER
 62
  256
 10
215.891485521145
 20
242.8877467120863
 30
0
 42
-0.371834865311943
  0
VERTEX
  5
28A
  8
0
  6
BYLAYER
 62
  256
 10
216.3164546462978
 20
241.2767273971178
 30
0
 42
-0.000135530305352785
  0
VERTEX
  5
28B
  8
0
  6
BYLAYER
 62
  256
 10
216.1835789327008
 20
241.0071188504727
 30
0
 42
-0.003466770905788978
  0
VERTEX
  5
28C
  8
0
  6
BYLAYER
 62
  256
 10
215.716416007808
 20
240.0752669368538
 30
0
 42
0.4142385902997749
  0
VERTEX
  5
28D
  8
0
  6
BYLAYER
 62
  256
 10
216.4504438779025
 20
237.6592882232553
 30
0
 42
0.4144220932559697
  0
VERTEX
  5
28E
  8
0
  6
BYLAYER
 62
  256
 10
218.8632805594763
 20
238.3933157294723
 30
0
 42
0.008943230999717352
  0
VERTEX
  5
28F
  8
0
  6
BYLAYER
 62
  256
 10
219.9304691981796
 20
240.5726919415416
 30
0
 42
0.367240569566007
  0
VERTEX
  5
290
  8
0
  6
BYLAYER
 62
  256
 10
218.6241727121024
 20
245.3444975341008
 30
0
  0
VERTEX
  5
291
  8
0
  6
BYLAYER
 62
  256
 10
199.28093679405
 20
258.5793105766344
 30
0
 42
-0.290063674299161
  0
VERTEX
  5
292
  8
0
  6
BYLAYER
 62
  256
 10
197.1255556908822
 20
263.5916549213347
 30
0
 42
0.02434037690786563
  0
VERTEX
  5
293
  8
0
  6
BYLAYER
 62
  256
 10
198.7021812638208
 20
277.897922851162
 30
0
 42
-0.603008307335434
  0
VERTEX
  5
294
  8
0
  6
BYLAYER
 62
  256
 10
201.925961887244
 20
279.354808382283
 30
0
  0
VERTEX
  5
295
  8
0
  6
BYLAYER
 62
  256
 10
207.8114348388057
 20
274.7794293308349
 30
0
 42
0.6307829792372016
  0
VERTEX
  5
296
  8
0
  6
BYLAYER
 62
  256
 10
218.1433107966378
 20
279.958779115361
 30
0
  0
VERTEX
  5
297
  8
0
  6
BYLAYER
 62
  256
 10
218
 20
287
 30
0
  0
SEQEND
  5
298
  8
0
  6
BYLAYER
 62
  256
  0
ENDSEC
  0
EOF
